<svg class="main-svg" xmlns="http://www.w3.org/2000/svg" xmlns:xlink="http://www.w3.org/1999/xlink" width="700" height="450" style="" viewBox="0 0 700 450"><rect x="0" y="0" width="700" height="450" style="fill: rgb(255, 255, 255); fill-opacity: 1;"/><defs id="defs-159f7a"><g class="clips"><clipPath id="clip159f7axyplot" class="plotclip"><rect width="501" height="330"/></clipPath><clipPath class="axesclip" id="clip159f7ax"><rect x="60" y="0" width="501" height="450"/></clipPath><clipPath class="axesclip" id="clip159f7ay"><rect x="0" y="60" width="700" height="330"/></clipPath><clipPath class="axesclip" id="clip159f7axy"><rect x="60" y="60" width="501" height="330"/></clipPath></g><g class="gradients"/></defs><g class="bglayer"><rect class="bg" x="60" y="60" width="501" height="330" style="fill: rgb(255, 255, 255); fill-opacity: 1; stroke-width: 0;"/></g><g class="layer-below"><g class="imagelayer"/><g class="shapelayer"/></g><g class="cartesianlayer"><g class="subplot xy"><g class="layer-subplot"><g class="shapelayer"/><g class="imagelayer"/></g><g class="gridlayer"><g class="x"><path class="xgrid crisp" d="M0,60v330" transform="translate(138.37,0)" style="stroke: rgb(238, 238, 238); stroke-opacity: 1; stroke-width: 1px;"/><path class="xgrid crisp" d="M0,60v330" transform="translate(216.75,0)" style="stroke: rgb(238, 238, 238); stroke-opacity: 1; stroke-width: 1px;"/><path class="xgrid crisp" d="M0,60v330" transform="translate(295.12,0)" style="stroke: rgb(238, 238, 238); stroke-opacity: 1; stroke-width: 1px;"/><path class="xgrid crisp" d="M0,60v330" transform="translate(373.5,0)" style="stroke: rgb(238, 238, 238); stroke-opacity: 1; stroke-width: 1px;"/><path class="xgrid crisp" d="M0,60v330" transform="translate(451.87,0)" style="stroke: rgb(238, 238, 238); stroke-opacity: 1; stroke-width: 1px;"/><path class="xgrid crisp" d="M0,60v330" transform="translate(530.24,0)" style="stroke: rgb(238, 238, 238); stroke-opacity: 1; stroke-width: 1px;"/></g><g class="y"><path class="ygrid crisp" d="M60,0h501" transform="translate(0,312.76)" style="stroke: rgb(238, 238, 238); stroke-opacity: 1; stroke-width: 1px;"/><path class="ygrid crisp" d="M60,0h501" transform="translate(0,252.03)" style="stroke: rgb(238, 238, 238); stroke-opacity: 1; stroke-width: 1px;"/><path class="ygrid crisp" d="M60,0h501" transform="translate(0,191.29)" style="stroke: rgb(238, 238, 238); stroke-opacity: 1; stroke-width: 1px;"/><path class="ygrid crisp" d="M60,0h501" transform="translate(0,130.56)" style="stroke: rgb(238, 238, 238); stroke-opacity: 1; stroke-width: 1px;"/><path class="ygrid crisp" d="M60,0h501" transform="translate(0,69.82)" style="stroke: rgb(238, 238, 238); stroke-opacity: 1; stroke-width: 1px;"/></g></g><g class="zerolinelayer"><path class="xzl zl crisp" d="M0,60v330" transform="translate(60,0)" style="stroke: rgb(68, 68, 68); stroke-opacity: 1; stroke-width: 1px;"/><path class="yzl zl crisp" d="M60,0h501" transform="translate(0,373.5)" style="stroke: rgb(68, 68, 68); stroke-opacity: 1; stroke-width: 1px;"/></g><path class="xlines-below"/><path class="ylines-below"/><g class="overlines-below"/><g class="xaxislayer-below"/><g class="yaxislayer-below"/><g class="overaxes-below"/><g class="plot" transform="translate(60, 60)" clip-path="url(#clip159f7axyplot)"><g class="scatterlayer mlayer"><g class="trace scatter tracecce813" style="stroke-miterlimit: 2; opacity: 1;"><path class="js-line" d="M0,270.84L0.5,313.44L0.99,293.28L1.49,313.5L1.98,312.99L2.48,301.07L3.47,313.5L3.96,313.5L8.42,313.33L8.91,16.5L9.9,297.06L10.4,280.87L10.89,201.26L11.39,306.86L11.88,274.26L12.38,296.13L12.87,294.12L13.37,229.29L14.36,307.4L14.85,274.85L15.35,308.84L15.84,282.52L16.34,301.95L16.83,299.69L17.33,286.32L18.81,310.28L19.31,267.29L20.79,307.71L21.29,298.67L21.78,276.95L22.28,288.12L22.77,309.16L23.27,292.22L23.76,264.12L24.26,305.18L25.74,289.45L26.24,274.71L26.73,273.66L27.23,302.16L27.72,296.32L28.22,306.41L28.71,294.14L29.21,302.95L29.7,298.62L30.2,270.23L30.69,295.66L31.19,284.29L31.68,298.48L32.18,303.72L32.67,276.88L33.17,294.86L33.66,291.02L34.16,294.01L34.65,308.61L35.15,300.96L35.64,301.8L36.14,311.76L36.63,290.74L37.13,300.13L37.62,301.27L38.12,297.83L38.61,303.56L39.11,304.64L39.6,311.47L40.1,311.53L40.59,300.31L41.09,311.21L41.58,310.14L42.08,312.26L43.07,277.09L43.57,309.85L44.56,309.86L45.05,308.87L45.55,307.21L46.04,308.12L46.54,313.04L47.53,313.44L48.02,310.87L48.52,303.24L49.01,312.06L50.5,313.22L50.99,311.78L51.49,309.4L51.98,312.61L53.47,313.34L53.96,313.41L54.95,313.41L55.45,288.4L55.94,248.53L56.44,291.87L56.93,310.7L57.43,305.36L57.92,308.39L58.42,309.23L58.91,295.56L59.41,309.36L59.9,306.56L60.4,313.25L61.88,313.38L62.38,312.36L62.87,312.65L63.37,311.58L63.86,312.92L64.36,306.46L65.35,312.62L65.84,308.49L66.34,309.23L66.83,312.43L68.32,288.92L68.81,312.71L69.31,295.8L69.8,312.34L70.3,303.86L70.79,313.29L71.29,307.8L71.78,313.08L72.28,311.98L72.77,301.46L73.27,310.05L73.76,304.88L74.26,313.04L74.75,308.6L75.25,311.84L75.74,304.01L76.24,299.17L76.73,309.56L77.72,308.44L78.22,313.18L78.71,305.07L79.21,311.83L79.7,309.1L80.2,299.17L80.69,296.95L81.19,307.56L81.68,312.96L82.18,311.67L82.67,312.4L83.67,299.52L84.16,310.33L84.66,312.83L85.15,287.95L86.14,311.96L86.64,288.96L87.13,312.87L87.63,307.73L88.12,300.43L89.11,312.43L89.61,313.38L90.1,306.73L90.6,313.47L91.09,281.74L91.59,309.72L92.58,302.84L93.07,306.35L93.57,291.5L94.06,311.23L94.56,312.81L95.05,311.7L95.55,298.54L96.04,306.86L97.03,290.33L97.53,297.84L98.02,311.84L98.52,309L99.01,308.08L99.51,309.97L100,303.86L100.5,309.51L100.99,307.84L101.49,307.81L101.98,306.97L102.48,274.65L103.47,310.33L103.96,309.01L104.46,262.57L104.95,307.17L105.94,311.24L106.44,303.52L106.93,311.61L107.43,308.89L107.92,303.98L108.91,313.02L109.41,312.46L109.9,307.63L110.4,296.15L110.89,311.53L111.39,308.32L111.88,311.8L112.38,307.8L112.87,312.68L113.37,298.39L113.86,307.51L114.36,286.5L114.85,287.29L115.35,305.71L115.84,306.75L116.34,302.73L116.83,295.36L117.33,301.27L117.82,294.32L118.32,308.89L119.31,302.4L119.8,309.1L120.3,305.6L120.79,278.53L121.29,311.52L121.78,311.09L122.28,310.75L123.76,291.52L124.26,311.54L124.75,311.5L125.25,290.84L125.75,308.18L126.24,291.2L126.74,312.5L127.23,311.58L127.73,311.07L128.22,307.99L128.72,311.62L129.21,310.87L129.71,311.93L130.2,311.23L130.7,313.26L131.19,312.81L131.69,310.73L132.18,310.47L132.68,311.71L133.17,301.91L133.67,311.41L134.16,312.97L134.66,312.1L135.15,276.46L135.65,312.25L136.14,305.49L136.64,307.53L137.13,312.73L137.63,274.68L138.12,309.87L138.62,305.64L139.11,310.49L139.61,275.01L140.1,309.17L140.6,305.14L141.09,289.12L141.59,311.77L142.08,285.04L142.58,218.56L143.07,311.02L143.57,310.39L144.06,304.24L144.56,306.76L145.05,292.26L145.55,311.76L146.04,311.16L146.54,313.41L147.03,312.06L147.53,312.66L148.02,311.92L148.52,297.95L149.01,312.17L149.51,305.56L150,307.8L150.5,312.69L150.99,312.94L151.49,301.88L151.98,304.5L152.48,300.72L152.97,313.42L153.47,305.63L154.95,313.46L155.45,311.87L156.44,313.27L156.93,313.37L157.43,312.5L157.92,313.5L158.42,293.71L158.91,308.79L159.41,304.78L159.9,312.81L160.4,311.55L160.89,313.08L162.87,313.43L163.37,313.11L163.86,313.45L164.36,286.78L165.35,313.29L165.84,310.73L166.34,299.84L166.83,240.26L167.33,302.69L167.83,312.44L168.32,311.17L168.82,312.97L169.31,313.22L169.81,311.17L170.3,280.05L170.8,283.98L171.29,304.2L171.79,308.91L172.28,300L172.78,295.37L173.27,302.16L173.77,312.42L174.26,311.99L174.76,313.32L176.74,300.22L177.23,304.76L178.22,313.47L178.72,313.32L179.21,296.3L180.2,313.5L180.7,313.5L181.19,221.97L181.69,310.82L182.18,225.7L182.68,301.68L183.17,306.51L183.67,306.02L184.16,305.02L184.66,312.92L185.15,312.61L185.65,312.66L186.14,301.84L186.64,309.4L187.13,313.34L187.63,312.66L188.12,262.05L189.11,313.03L189.61,309.49L190.1,312.91L190.6,312.72L191.09,313.22L192.58,313.48L193.07,312.63L194.56,313.41L195.05,313.42L195.55,310.81L196.04,313.2L196.54,313.3L197.03,312.31L198.02,313.5L198.52,313.48L199.51,313.5L200,306.06L200.99,313.5L201.49,290.32L202.48,313.5L202.97,313.5L221.79,313.44L222.28,304.96L222.78,306.24L223.27,305.78L223.77,310.61L224.26,298.38L224.76,309.54L225.75,294.73L226.24,312.52L226.74,307.1L227.23,307.52L227.73,312.79L228.72,313.45L229.21,311.43L229.71,313.35L230.2,312.39L230.7,303.64L231.19,310.88L231.69,310.45L232.18,312.18L233.17,313.04L233.67,313.32L235.15,313.49L235.65,312.26L236.64,313.48L237.13,309.14L237.63,313.15L238.12,308.27L238.62,307.45L239.11,313.36L240.1,312.68L240.6,313.45L242.08,313.5L242.58,311.03L243.57,313.48L244.06,313.5L501,313.5" style="vector-effect: non-scaling-stroke; fill: none; stroke: rgb(31, 119, 180); stroke-opacity: 1; stroke-width: 2px; opacity: 1;"/><g class="points"/></g><g class="trace scatter trace26670c" style="stroke-miterlimit: 2; opacity: 1;"><path class="js-line" d="M0,312.62L4.95,312.07L5.45,312.11L8.42,312.2L8.91,312.36L10.89,312.69L11.39,312.54L15.84,312.73L16.34,312.65L20.3,312.74L20.79,312.67L25.74,312.83L26.24,312.7L30.69,312.9L31.19,312.86L36.14,312.82L36.63,312.82L102.48,312.86L102.97,313.04L104.95,312.81L105.45,312.9L107.92,312.89L108.42,312.77L114.36,312.58L114.85,313.01L119.31,312.89L119.8,312.92L149.51,312.87L150,312.98L151.49,312.99L151.98,312.89L174.26,312.75L174.76,312.57L176.24,313.03L176.74,312.97L179.71,312.25L180.2,312.27L184.16,313.06L184.66,312.89L187.13,312.83L187.63,312.77L191.59,312.9L192.08,312.69L195.05,312.78L195.55,312.6L198.02,312.6L198.52,312.67L200.5,312.6L200.99,312.44L201.49,312.79L201.98,312.09L205.45,312.34L205.94,312.33L220.3,312.41L220.8,312.69L223.27,312.8L223.77,312.93L224.76,313.02L225.25,312.95L242.08,312.61L242.58,312.93L246.54,312.29L247.03,312.35L262.88,312.42L263.37,312.45L297.04,312.44L297.53,312.5L301.99,312.43L302.48,312.44L321.29,312.46L321.79,312.46L330.7,312.53L331.19,312.47L350.5,312.5L351,312.5L360.4,312.44L360.9,312.5L378.72,312.51L379.22,312.52L388.62,312.47L389.12,312.52L407.43,312.49L407.93,312.52L501,312.51" style="vector-effect: non-scaling-stroke; fill: none; stroke: rgb(255, 127, 14); stroke-opacity: 1; stroke-width: 2px; opacity: 1;"/><g class="points"/></g></g></g><g class="overplot"/><path class="xlines-above crisp" d="M0,0" style="fill: none;"/><path class="ylines-above crisp" d="M0,0" style="fill: none;"/><g class="overlines-above"/><g class="xaxislayer-above"><g class="xtick"><text text-anchor="middle" x="0" y="403" transform="translate(60,0)" style="font-family: 'Open Sans', verdana, arial, sans-serif; font-size: 12px; fill: rgb(68, 68, 68); fill-opacity: 1; white-space: pre;">0</text></g><g class="xtick"><text text-anchor="middle" x="0" y="403" transform="translate(138.37,0)" style="font-family: 'Open Sans', verdana, arial, sans-serif; font-size: 12px; fill: rgb(68, 68, 68); fill-opacity: 1; white-space: pre;">1</text></g><g class="xtick"><text text-anchor="middle" x="0" y="403" transform="translate(216.75,0)" style="font-family: 'Open Sans', verdana, arial, sans-serif; font-size: 12px; fill: rgb(68, 68, 68); fill-opacity: 1; white-space: pre;">2</text></g><g class="xtick"><text text-anchor="middle" x="0" y="403" transform="translate(295.12,0)" style="font-family: 'Open Sans', verdana, arial, sans-serif; font-size: 12px; fill: rgb(68, 68, 68); fill-opacity: 1; white-space: pre;">3</text></g><g class="xtick"><text text-anchor="middle" x="0" y="403" transform="translate(373.5,0)" style="font-family: 'Open Sans', verdana, arial, sans-serif; font-size: 12px; fill: rgb(68, 68, 68); fill-opacity: 1; white-space: pre;">4</text></g><g class="xtick"><text text-anchor="middle" x="0" y="403" transform="translate(451.87,0)" style="font-family: 'Open Sans', verdana, arial, sans-serif; font-size: 12px; fill: rgb(68, 68, 68); fill-opacity: 1; white-space: pre;">5</text></g><g class="xtick"><text text-anchor="middle" x="0" y="403" transform="translate(530.24,0)" style="font-family: 'Open Sans', verdana, arial, sans-serif; font-size: 12px; fill: rgb(68, 68, 68); fill-opacity: 1; white-space: pre;">6</text></g></g><g class="yaxislayer-above"><g class="ytick"><text text-anchor="end" x="59" y="4.199999999999999" transform="translate(0,373.5)" style="font-family: 'Open Sans', verdana, arial, sans-serif; font-size: 12px; fill: rgb(68, 68, 68); fill-opacity: 1; white-space: pre;">0</text></g><g class="ytick"><text text-anchor="end" x="59" y="4.199999999999999" transform="translate(0,312.76)" style="font-family: 'Open Sans', verdana, arial, sans-serif; font-size: 12px; fill: rgb(68, 68, 68); fill-opacity: 1; white-space: pre;">2</text></g><g class="ytick"><text text-anchor="end" x="59" y="4.199999999999999" transform="translate(0,252.03)" style="font-family: 'Open Sans', verdana, arial, sans-serif; font-size: 12px; fill: rgb(68, 68, 68); fill-opacity: 1; white-space: pre;">4</text></g><g class="ytick"><text text-anchor="end" x="59" y="4.199999999999999" transform="translate(0,191.29)" style="font-family: 'Open Sans', verdana, arial, sans-serif; font-size: 12px; fill: rgb(68, 68, 68); fill-opacity: 1; white-space: pre;">6</text></g><g class="ytick"><text text-anchor="end" x="59" y="4.199999999999999" transform="translate(0,130.56)" style="font-family: 'Open Sans', verdana, arial, sans-serif; font-size: 12px; fill: rgb(68, 68, 68); fill-opacity: 1; white-space: pre;">8</text></g><g class="ytick"><text text-anchor="end" x="59" y="4.199999999999999" transform="translate(0,69.82)" style="font-family: 'Open Sans', verdana, arial, sans-serif; font-size: 12px; fill: rgb(68, 68, 68); fill-opacity: 1; white-space: pre;">10</text></g></g><g class="overaxes-above"/></g></g><g class="polarlayer"/><g class="ternarylayer"/><g class="geolayer"/><g class="pielayer"/><g class="glimages"/><defs id="topdefs-159f7a"><g class="clips"/><clipPath id="legend159f7a"><rect width="117" height="48" x="0" y="0"/></clipPath></defs><g class="layer-above"><g class="imagelayer"/><g class="shapelayer"/></g><g class="infolayer"><g class="legend" pointer-events="all" transform="translate(571.02, 60)"><rect class="bg" shape-rendering="crispEdges" width="117" height="48" x="0" y="0" style="stroke: rgb(68, 68, 68); stroke-opacity: 1; fill: rgb(255, 255, 255); fill-opacity: 1; stroke-width: 0px;"/><g class="scrollbox" transform="translate(0, 0)" clip-path="url(#legend159f7a)"><g class="groups"><g class="traces" transform="translate(0, 14.5)" style="opacity: 1;"><g class="layers" style="opacity: 1;"><g class="legendfill"/><g class="legendlines"><path class="js-line" d="M5,0h30" style="fill: none; stroke: rgb(31, 119, 180); stroke-opacity: 1; stroke-width: 2px;"/></g><g class="legendsymbols"><g class="legendpoints"/></g></g><text class="legendtext user-select-none" text-anchor="start" x="40" y="4.680000000000001" style="font-family: 'Open Sans', verdana, arial, sans-serif; font-size: 12px; fill: rgb(68, 68, 68); fill-opacity: 1; white-space: pre;">Discriminator</text><rect class="legendtoggle" pointer-events="all" x="0" y="-9.5" width="157" height="19" style="cursor: pointer; fill: rgb(0, 0, 0); fill-opacity: 0;"/></g><g class="traces" transform="translate(0, 33.5)" style="opacity: 1;"><g class="layers" style="opacity: 1;"><g class="legendfill"/><g class="legendlines"><path class="js-line" d="M5,0h30" style="fill: none; stroke: rgb(255, 127, 14); stroke-opacity: 1; stroke-width: 2px;"/></g><g class="legendsymbols"><g class="legendpoints"/></g></g><text class="legendtext user-select-none" text-anchor="start" x="40" y="4.680000000000001" style="font-family: 'Open Sans', verdana, arial, sans-serif; font-size: 12px; fill: rgb(68, 68, 68); fill-opacity: 1; white-space: pre;">Generator</text><rect class="legendtoggle" pointer-events="all" x="0" y="-9.5" width="157" height="19" style="cursor: pointer; fill: rgb(0, 0, 0); fill-opacity: 0;"/></g></g></g><rect class="scrollbar" rx="20" ry="3" width="0" height="0" x="0" y="0" style="fill: rgb(128, 139, 164); fill-opacity: 1;"/></g><g class="g-gtitle"><text class="gtitle" x="350" y="30" text-anchor="middle" style="font-family: 'Open Sans', verdana, arial, sans-serif; font-size: 17px; fill: rgb(68, 68, 68); opacity: 1; font-weight: normal; white-space: pre;">loss over time</text></g><g class="g-xtitle"><text class="xtitle" x="310.5" y="442" text-anchor="middle" style="font-family: 'Open Sans', verdana, arial, sans-serif; font-size: 14px; fill: rgb(68, 68, 68); opacity: 1; font-weight: normal; white-space: pre;">epoch</text></g><g class="g-ytitle"><text class="ytitle" transform="rotate(-90,22,225)" x="22" y="225" text-anchor="middle" style="font-family: 'Open Sans', verdana, arial, sans-serif; font-size: 14px; fill: rgb(68, 68, 68); opacity: 1; font-weight: normal; white-space: pre;">loss</text></g></g></svg>