<svg class="main-svg" xmlns="http://www.w3.org/2000/svg" xmlns:xlink="http://www.w3.org/1999/xlink" width="700" height="450" style="" viewBox="0 0 700 450"><rect x="0" y="0" width="700" height="450" style="fill: rgb(255, 255, 255); fill-opacity: 1;"/><defs id="defs-a27ec7"><g class="clips"><clipPath id="clipa27ec7xyplot" class="plotclip"><rect width="500" height="330"/></clipPath><clipPath class="axesclip" id="clipa27ec7x"><rect x="60" y="0" width="500" height="450"/></clipPath><clipPath class="axesclip" id="clipa27ec7y"><rect x="0" y="60" width="700" height="330"/></clipPath><clipPath class="axesclip" id="clipa27ec7xy"><rect x="60" y="60" width="500" height="330"/></clipPath></g><g class="gradients"/></defs><g class="bglayer"><rect class="bg" x="60" y="60" width="500" height="330" style="fill: rgb(255, 255, 255); fill-opacity: 1; stroke-width: 0;"/></g><g class="layer-below"><g class="imagelayer"/><g class="shapelayer"/></g><g class="cartesianlayer"><g class="subplot xy"><g class="layer-subplot"><g class="shapelayer"/><g class="imagelayer"/></g><g class="gridlayer"><g class="x"><path class="xgrid crisp" d="M0,60v330" transform="translate(129.04000000000002,0)" style="stroke: rgb(238, 238, 238); stroke-opacity: 1; stroke-width: 1px;"/><path class="xgrid crisp" d="M0,60v330" transform="translate(198.07,0)" style="stroke: rgb(238, 238, 238); stroke-opacity: 1; stroke-width: 1px;"/><path class="xgrid crisp" d="M0,60v330" transform="translate(267.11,0)" style="stroke: rgb(238, 238, 238); stroke-opacity: 1; stroke-width: 1px;"/><path class="xgrid crisp" d="M0,60v330" transform="translate(336.15,0)" style="stroke: rgb(238, 238, 238); stroke-opacity: 1; stroke-width: 1px;"/><path class="xgrid crisp" d="M0,60v330" transform="translate(405.18,0)" style="stroke: rgb(238, 238, 238); stroke-opacity: 1; stroke-width: 1px;"/><path class="xgrid crisp" d="M0,60v330" transform="translate(474.22,0)" style="stroke: rgb(238, 238, 238); stroke-opacity: 1; stroke-width: 1px;"/><path class="xgrid crisp" d="M0,60v330" transform="translate(543.26,0)" style="stroke: rgb(238, 238, 238); stroke-opacity: 1; stroke-width: 1px;"/></g><g class="y"><path class="ygrid crisp" d="M60,0h500" transform="translate(0,336.79)" style="stroke: rgb(238, 238, 238); stroke-opacity: 1; stroke-width: 1px;"/><path class="ygrid crisp" d="M60,0h500" transform="translate(0,299.95)" style="stroke: rgb(238, 238, 238); stroke-opacity: 1; stroke-width: 1px;"/><path class="ygrid crisp" d="M60,0h500" transform="translate(0,263.12)" style="stroke: rgb(238, 238, 238); stroke-opacity: 1; stroke-width: 1px;"/><path class="ygrid crisp" d="M60,0h500" transform="translate(0,226.29)" style="stroke: rgb(238, 238, 238); stroke-opacity: 1; stroke-width: 1px;"/><path class="ygrid crisp" d="M60,0h500" transform="translate(0,189.45)" style="stroke: rgb(238, 238, 238); stroke-opacity: 1; stroke-width: 1px;"/><path class="ygrid crisp" d="M60,0h500" transform="translate(0,152.62)" style="stroke: rgb(238, 238, 238); stroke-opacity: 1; stroke-width: 1px;"/><path class="ygrid crisp" d="M60,0h500" transform="translate(0,115.78999999999999)" style="stroke: rgb(238, 238, 238); stroke-opacity: 1; stroke-width: 1px;"/><path class="ygrid crisp" d="M60,0h500" transform="translate(0,78.95)" style="stroke: rgb(238, 238, 238); stroke-opacity: 1; stroke-width: 1px;"/></g></g><g class="zerolinelayer"><path class="xzl zl crisp" d="M0,60v330" transform="translate(60,0)" style="stroke: rgb(68, 68, 68); stroke-opacity: 1; stroke-width: 1px;"/><path class="yzl zl crisp" d="M60,0h500" transform="translate(0,373.62)" style="stroke: rgb(68, 68, 68); stroke-opacity: 1; stroke-width: 1px;"/></g><path class="xlines-below"/><path class="ylines-below"/><g class="overlines-below"/><g class="xaxislayer-below"/><g class="yaxislayer-below"/><g class="overaxes-below"/><g class="plot" transform="translate(60, 60)" clip-path="url(#clipa27ec7xyplot)"><g class="scatterlayer mlayer"><g class="trace scatter traceef16dd" style="stroke-miterlimit: 2; opacity: 1;"><path class="js-line" d="M0,257.19L1.12,311.95L2.24,304.81L3.36,308.52L4.47,279.72L5.59,299.82L6.71,302.84L7.83,300.53L8.95,310.55L10.07,282.37L11.19,301.7L12.3,298.93L13.42,279.74L14.54,298.93L15.66,297.07L16.78,295.72L17.9,290.08L20.13,298.98L21.25,296.42L22.37,289.72L23.49,290.95L24.61,300.32L25.73,295.56L26.85,300.85L27.96,301.44L29.08,296.18L30.2,300.65L31.32,292.62L32.44,295.72L33.56,295.42L34.68,292.2L35.79,298.31L36.91,291.42L38.03,299.43L39.15,292.92L41.39,298.9L42.51,299.66L43.62,300.88L44.74,294.29L45.86,300.79L46.98,298.3L48.1,289.72L49.22,300.93L51.45,297.48L52.57,295.55L53.69,296.52L54.81,295.18L55.93,293.37L57.05,294.19L58.17,300.62L59.28,298.28L60.4,293.33L61.52,298L62.64,285.81L63.76,284.24L64.88,301.4L66,299.3L67.11,303.29L68.23,298.39L69.35,300.7L70.47,300.19L71.59,291.71L72.71,301.86L74.94,299.18L76.06,304.68L77.18,302.52L78.3,288.52L80.54,303.41L81.66,297.31L83.89,299.47L85.01,305.65L86.13,307.5L87.25,295.26L88.37,249.45L89.49,305.7L91.72,288.02L92.84,303.87L93.96,303.46L95.08,304.08L96.2,299.94L97.32,300.23L98.43,290.3L99.55,305.26L101.79,300.88L102.91,301.94L104.03,303.92L105.15,303.35L107.38,302.54L108.5,305.13L110.74,308.12L111.86,303.42L112.98,291.12L114.09,294.94L115.21,303.63L116.33,297.04L117.45,290.83L118.57,303.65L119.69,304.64L120.81,307.47L121.92,302.56L123.04,306.03L124.16,304.95L125.28,309.04L127.52,305.78L128.64,306.79L129.75,305.09L130.87,309.08L131.99,308.3L133.11,298.62L134.23,306.64L135.35,306.89L136.47,305.86L137.58,303.33L138.7,301.67L139.82,308.58L140.94,311.43L142.06,304.1L143.18,306.76L144.3,302.6L145.41,306.99L146.53,306.14L147.65,310.18L148.77,307.87L149.89,310.7L151.01,294.4L153.24,310.19L154.36,308.41L155.48,304.57L156.6,308.95L157.72,307.91L158.84,309.33L161.07,305.98L162.19,311.22L163.31,311.15L164.43,309.66L165.55,309.53L166.67,304.88L167.79,308.26L168.9,304.65L170.02,308.84L171.14,307.79L172.26,310.81L173.38,310.52L175.62,305.92L176.73,306.02L177.85,309.66L178.97,308.87L180.09,309.8L181.21,309.57L182.33,309.61L183.45,308.28L186.8,310.91L187.92,310.88L189.04,306.37L190.16,307.99L191.28,309.54L192.39,271.21L193.51,309.31L194.63,304.6L195.75,309.46L196.87,310.48L197.99,309.73L199.11,312.18L200.22,310.44L201.34,311.63L203.58,312.63L204.7,311.99L205.82,306.94L206.94,310.48L208.05,309.91L209.17,307.15L210.29,310.69L211.41,309.68L212.53,311.88L213.65,310.47L214.77,311.08L215.88,307.36L217,309.21L218.12,309.6L219.24,309.68L220.36,311.52L221.48,312.04L222.6,310.21L223.71,311.44L224.83,309.7L225.95,310.68L227.07,299.18L228.19,311.76L229.31,254.73L230.43,310.75L231.54,311.66L232.66,311.28L233.78,308.53L234.9,312.2L236.02,311.56L237.14,308.19L238.26,311.34L239.37,311.14L240.49,313.16L241.61,301.97L242.73,310.75L243.85,308.22L244.97,311.14L246.09,310.17L247.2,291.94L249.44,312.73L250.56,311.63L251.68,308.69L252.8,311.68L253.91,312.07L255.03,310.54L256.15,305.17L257.27,308.82L258.39,311.57L259.51,308.8L261.74,312.56L262.86,312.12L263.98,312.46L265.1,304.42L266.22,310.31L267.34,311.48L268.46,310.34L269.57,311.94L270.69,311.86L271.81,310.65L272.93,312.42L274.05,311.72L275.17,289.52L276.29,311.77L277.4,310.69L278.52,311.83L280.76,311.16L281.88,304.66L283,311.36L284.12,312.61L286.35,312.4L287.47,302.06L288.59,310.18L289.71,311.66L290.83,311.78L291.95,309.78L294.18,312.11L295.3,311.89L296.42,309.91L297.54,312.07L298.66,311.74L299.78,307.75L300.89,307.83L302.01,312.98L304.25,312.64L305.37,312.46L306.49,312.16L307.61,310.44L308.72,312.32L309.84,312.09L310.96,311.97L312.08,288.54L313.2,312.55L314.32,311L315.44,312.59L316.55,311.67L321.03,312.66L322.15,309.26L323.27,312.38L324.38,312.75L325.5,309.61L326.62,309.88L327.74,311.9L328.86,312.12L331.1,313.04L332.21,310.22L333.33,312.67L334.45,312.63L335.57,312.35L336.69,310.37L337.81,312.33L338.93,312.12L340.04,311.52L341.16,312.7L345.64,312.45L346.76,249.11L348.99,306.68L350.11,301.01L351.23,310.47L352.35,313.24L353.47,312.28L354.59,312.4L355.7,310.68L356.82,312L357.94,310.79L359.06,311.75L360.18,313.28L361.3,311.74L362.42,311.48L363.53,307.02L365.77,312.68L366.89,312.94L368.01,312.82L369.13,308.27L370.25,313.1L371.36,312.85L372.48,311.87L373.6,312.52L374.72,313.01L375.84,312.28L376.96,76.22L378.08,310.42L379.19,312.44L380.31,309.96L381.43,312.52L382.55,307.87L384.79,313.04L385.91,312.64L387.02,313.14L388.14,312.24L389.26,311.45L390.38,312.68L391.5,310.98L392.62,312.26L393.74,313.1L394.85,310.24L395.97,312.94L397.09,312.53L398.21,313.34L399.33,312.26L400.45,277.12L401.57,310.36L406.04,312.67L407.16,312.74L409.4,309.65L410.51,311.06L411.63,312.75L412.75,311.19L413.87,312.45L414.99,311.14L416.11,311.59L417.23,310.56L418.34,296.63L419.46,312.13L420.58,311.39L421.7,311.73L422.82,313.3L423.94,310.42L425.06,312.85L426.17,311.64L427.29,312.81L428.41,312.64L429.53,313.27L430.65,312.89L435.12,313.5L436.24,313.03L437.36,312.87L438.48,304.93L439.6,312.01L440.72,309.08L441.83,312.16L442.95,311.16L444.07,312.35L445.19,310.8L447.43,308.69L448.55,310.79L449.66,312.52L450.78,312.26L454.14,313.27L455.26,312.55L456.38,309.84L457.49,312.86L460.85,313.16L461.97,313.3L463.09,313.18L464.21,308.45L465.32,312.71L466.44,311.03L468.68,312.11L469.8,302.88L470.92,303.1L472.04,313.23L474.27,312.72L475.39,309.29L477.63,313.05L478.75,313.1L479.87,312.65L480.98,310.62L483.22,312.83L484.34,313.1L486.58,313.28L487.7,313.13L488.81,312.85L489.93,309.68L491.05,312.91L492.17,313.2L493.29,313.44L494.41,312.9L495.53,313.32L496.64,312.61L498.88,313.1L500,295.14" style="vector-effect: non-scaling-stroke; fill: none; stroke: rgb(31, 119, 180); stroke-opacity: 1; stroke-width: 2px; opacity: 1;"/><g class="points"/></g><g class="trace scatter trace1fbed4" style="stroke-miterlimit: 2; opacity: 1;"><path class="js-line" d="M0,282.58L2.24,121.65L3.36,177.9L4.47,67.58L5.59,224.96L6.71,200.12L7.83,225.69L8.95,179.75L10.07,250.59L11.19,178.49L12.3,175.28L13.42,235.25L14.54,217.78L15.66,225.89L16.78,209.23L17.9,169.21L19.02,260.56L20.13,208.86L21.25,238.66L22.37,209.49L23.49,220.68L24.61,245.22L25.73,215.18L26.85,204.91L27.96,208.48L30.2,246.71L31.32,241.04L32.44,193.48L33.56,225.85L34.68,246.49L35.79,239.09L36.91,219.41L38.03,222.75L39.15,204.66L40.27,240.86L41.39,242.6L42.51,251.62L43.62,202.89L44.74,259.01L45.86,230.58L46.98,221.51L48.1,279.36L49.22,235.9L50.34,211.05L51.45,234.08L52.57,213.53L53.69,217.07L54.81,245.48L55.93,234.83L57.05,244.98L58.17,240.94L60.4,222.58L61.52,243.35L62.64,237.91L63.76,196.36L64.88,196.17L66,230.9L67.11,187.04L68.23,241.18L69.35,206.75L70.47,226.33L71.59,226.87L72.71,246.79L73.83,268.32L74.94,216.99L77.18,188.79L78.3,239.42L79.42,212.1L80.54,213.55L81.66,227.35L82.77,191.01L83.89,220.69L85.01,200.24L86.13,196.75L87.25,189.42L88.37,191.91L89.49,228.33L90.6,236.85L91.72,164.18L92.84,209.15L93.96,194.66L95.08,181.44L96.2,202.22L97.32,236.5L98.43,242.43L99.55,177.17L100.67,210.87L101.79,216.49L102.91,249.36L104.03,208.05L105.15,226.71L106.26,232.52L107.38,228.58L108.5,235.39L109.62,183.77L110.74,173.88L111.86,198.89L112.98,271.18L114.09,231.14L115.21,211.64L116.33,230.56L118.57,174.08L119.69,204.99L120.81,197.9L121.92,207.86L123.04,232.17L124.16,212.96L125.28,226.87L126.4,218.38L128.64,186.96L129.75,212.48L130.87,200.4L131.99,209.93L133.11,220.2L134.23,190.88L135.35,201.95L136.47,170.85L137.58,226.35L138.7,160.56L139.82,208.54L140.94,177.31L142.06,191.47L143.18,156.34L144.3,182.98L145.41,167.37L146.53,172.25L147.65,215.65L148.77,201.49L149.89,202.82L152.13,171.69L153.24,211.77L154.36,166.33L155.48,158.75L156.6,146.21L157.72,197.4L158.84,182.33L159.96,194.49L161.07,209.81L162.19,165.48L163.31,181.52L164.43,178.9L166.67,160.26L167.79,198.66L168.9,200.95L170.02,178.52L171.14,190.64L172.26,169.66L173.38,168.68L174.5,170.81L175.62,171.21L176.73,158.51L177.85,198.73L178.97,170.47L180.09,175.68L181.21,176.36L182.33,188.31L183.45,170.16L184.56,127.82L185.68,179.67L186.8,147.21L187.92,153.92L189.04,180.74L190.16,187.01L191.28,148.7L192.39,279.88L194.63,120.53L195.75,177.22L196.87,162.94L197.99,163.25L199.11,122.02L200.22,157.29L201.34,124.51L202.46,116.87L204.7,152.65L205.82,190.43L206.94,134.31L208.05,200.4L209.17,158.9L210.29,163.39L211.41,165.38L212.53,147.37L213.65,157.13L214.77,145.46L215.88,162.79L217,140.52L218.12,138.64L219.24,144.78L220.36,115.9L221.48,160.87L222.6,161.39L223.71,126.13L224.83,168.93L225.95,177.71L227.07,226.71L228.19,147.97L229.31,34.89L230.43,188.77L231.54,148.27L232.66,150.79L233.78,157.37L234.9,92.39L236.02,176.36L237.14,167.07L238.26,180.14L239.37,120.49L240.49,114.47L241.61,299.33L242.73,139.05L243.85,137.23L246.09,179.5L247.2,278.27L249.44,92.71L250.56,161.29L251.68,164.7L252.8,144.06L253.91,139.89L255.03,138.76L256.15,174.5L257.27,123.97L258.39,163.29L259.51,156.26L260.63,143.57L261.74,117.11L262.86,137.9L263.98,138L265.1,176.65L266.22,172.52L267.34,161.15L268.46,199.96L269.57,125.95L270.69,142.59L271.81,152.92L272.93,122.49L275.17,165.77L276.29,112.59L277.4,121.32L278.52,151.11L279.64,136.79L280.76,173.62L281.88,83.71L283,136.61L284.12,124.42L285.23,152.7L287.47,99.28L288.59,156.87L289.71,172.64L290.83,161.19L291.95,157.22L293.06,162.89L294.18,118.92L295.3,124.23L296.42,134.91L297.54,120.26L299.78,167.76L300.89,115.37L302.01,145.97L303.13,130.23L305.37,105.94L306.49,165.54L307.61,79.37L308.72,141.08L309.84,131.02L310.96,145.2L312.08,257.68L313.2,107.21L314.32,165.4L315.44,141.46L316.55,119.44L317.67,118.71L318.79,95.95L319.91,112.17L321.03,109.98L322.15,163.23L323.27,130.78L324.38,149.33L326.62,175.58L327.74,126.69L328.86,143.04L329.98,121.96L331.1,128.98L332.21,153.34L333.33,80.95L334.45,175.61L335.57,89.54L336.69,135.64L337.81,90.26L338.93,148.79L340.04,137.66L341.16,94.49L342.28,124.46L343.4,122.65L344.52,77.24L345.64,123.39L346.76,257.52L347.87,201.64L350.11,226.89L351.23,104.65L352.35,141.58L353.47,136.87L354.59,87.01L355.7,172.58L357.94,58.1L359.06,111.6L360.18,113.87L361.3,183.95L362.42,142.63L363.53,190.62L364.65,136.05L365.77,129.99L368.01,117.62L369.13,158.87L370.25,92.28L371.36,117.45L372.48,124.78L373.6,99.04L374.72,103.38L375.84,125.64L376.96,300L378.08,132L379.19,129.91L380.31,163.9L381.43,138.36L382.55,152.21L383.67,156.84L384.79,83.3L385.91,119.75L387.02,79.04L389.26,163.33L390.38,106.25L391.5,75.4L392.62,120.19L393.74,101.15L394.85,120.46L395.97,116.27L397.09,90.24L398.21,83.73L399.33,83.95L401.57,147.53L402.68,122.92L403.8,133.07L404.92,83.17L406.04,149.78L407.16,94.41L409.4,147.11L410.51,115.51L411.63,89.08L412.75,113.4L413.87,103.16L414.99,132.68L416.11,167.56L417.23,143.76L418.34,213.78L419.46,141.72L422.82,99.06L423.94,124.38L426.17,94.46L427.29,134.34L429.53,83.48L430.65,119.86L431.77,78.11L432.89,131.13L434,118L435.12,72.95L436.24,115.93L437.36,107.3L438.48,198.78L439.6,133.64L440.72,125.79L441.83,178.22L442.95,128.16L444.07,148.81L445.19,123.85L446.31,130.23L447.43,147.52L448.55,122.18L449.66,119.58L450.78,125.27L451.9,66.91L453.02,104.84L454.14,71.97L455.26,80.4L456.38,136.99L457.49,92.32L458.61,102.59L459.73,98.2L461.97,95.81L463.09,111.91L464.21,16.5L465.32,156.99L466.44,98.41L467.56,110.81L468.68,127.36L469.8,66.92L470.92,105.34L472.04,74.03L473.15,86.88L474.27,125.73L475.39,141.75L476.51,83.87L477.63,75.12L478.75,95.29L480.98,122.58L482.1,97.33L483.22,111.1L484.34,114.64L486.58,88.26L487.7,99.05L488.81,99.6L489.93,93.42L491.05,78.77L492.17,87.5L493.29,105.13L494.41,32.29L496.64,129.06L497.76,92.06L500,54.31" style="vector-effect: non-scaling-stroke; fill: none; stroke: rgb(255, 127, 14); stroke-opacity: 1; stroke-width: 2px; opacity: 1;"/><g class="points"/></g></g></g><g class="overplot"/><path class="xlines-above crisp" d="M0,0" style="fill: none;"/><path class="ylines-above crisp" d="M0,0" style="fill: none;"/><g class="overlines-above"/><g class="xaxislayer-above"><g class="xtick"><text text-anchor="middle" x="0" y="403" transform="translate(60,0)" style="font-family: 'Open Sans', verdana, arial, sans-serif; font-size: 12px; fill: rgb(68, 68, 68); fill-opacity: 1; white-space: pre;">0</text></g><g class="xtick"><text text-anchor="middle" x="0" y="403" transform="translate(129.04000000000002,0)" style="font-family: 'Open Sans', verdana, arial, sans-serif; font-size: 12px; fill: rgb(68, 68, 68); fill-opacity: 1; white-space: pre;">50</text></g><g class="xtick"><text text-anchor="middle" x="0" y="403" transform="translate(198.07,0)" style="font-family: 'Open Sans', verdana, arial, sans-serif; font-size: 12px; fill: rgb(68, 68, 68); fill-opacity: 1; white-space: pre;">100</text></g><g class="xtick"><text text-anchor="middle" x="0" y="403" transform="translate(267.11,0)" style="font-family: 'Open Sans', verdana, arial, sans-serif; font-size: 12px; fill: rgb(68, 68, 68); fill-opacity: 1; white-space: pre;">150</text></g><g class="xtick"><text text-anchor="middle" x="0" y="403" transform="translate(336.15,0)" style="font-family: 'Open Sans', verdana, arial, sans-serif; font-size: 12px; fill: rgb(68, 68, 68); fill-opacity: 1; white-space: pre;">200</text></g><g class="xtick"><text text-anchor="middle" x="0" y="403" transform="translate(405.18,0)" style="font-family: 'Open Sans', verdana, arial, sans-serif; font-size: 12px; fill: rgb(68, 68, 68); fill-opacity: 1; white-space: pre;">250</text></g><g class="xtick"><text text-anchor="middle" x="0" y="403" transform="translate(474.22,0)" style="font-family: 'Open Sans', verdana, arial, sans-serif; font-size: 12px; fill: rgb(68, 68, 68); fill-opacity: 1; white-space: pre;">300</text></g><g class="xtick"><text text-anchor="middle" x="0" y="403" transform="translate(543.26,0)" style="font-family: 'Open Sans', verdana, arial, sans-serif; font-size: 12px; fill: rgb(68, 68, 68); fill-opacity: 1; white-space: pre;">350</text></g></g><g class="yaxislayer-above"><g class="ytick"><text text-anchor="end" x="59" y="4.199999999999999" transform="translate(0,373.62)" style="font-family: 'Open Sans', verdana, arial, sans-serif; font-size: 12px; fill: rgb(68, 68, 68); fill-opacity: 1; white-space: pre;">0</text></g><g class="ytick"><text text-anchor="end" x="59" y="4.199999999999999" transform="translate(0,336.79)" style="font-family: 'Open Sans', verdana, arial, sans-serif; font-size: 12px; fill: rgb(68, 68, 68); fill-opacity: 1; white-space: pre;">1</text></g><g class="ytick"><text text-anchor="end" x="59" y="4.199999999999999" transform="translate(0,299.95)" style="font-family: 'Open Sans', verdana, arial, sans-serif; font-size: 12px; fill: rgb(68, 68, 68); fill-opacity: 1; white-space: pre;">2</text></g><g class="ytick"><text text-anchor="end" x="59" y="4.199999999999999" transform="translate(0,263.12)" style="font-family: 'Open Sans', verdana, arial, sans-serif; font-size: 12px; fill: rgb(68, 68, 68); fill-opacity: 1; white-space: pre;">3</text></g><g class="ytick"><text text-anchor="end" x="59" y="4.199999999999999" transform="translate(0,226.29)" style="font-family: 'Open Sans', verdana, arial, sans-serif; font-size: 12px; fill: rgb(68, 68, 68); fill-opacity: 1; white-space: pre;">4</text></g><g class="ytick"><text text-anchor="end" x="59" y="4.199999999999999" transform="translate(0,189.45)" style="font-family: 'Open Sans', verdana, arial, sans-serif; font-size: 12px; fill: rgb(68, 68, 68); fill-opacity: 1; white-space: pre;">5</text></g><g class="ytick"><text text-anchor="end" x="59" y="4.199999999999999" transform="translate(0,152.62)" style="font-family: 'Open Sans', verdana, arial, sans-serif; font-size: 12px; fill: rgb(68, 68, 68); fill-opacity: 1; white-space: pre;">6</text></g><g class="ytick"><text text-anchor="end" x="59" y="4.199999999999999" transform="translate(0,115.78999999999999)" style="font-family: 'Open Sans', verdana, arial, sans-serif; font-size: 12px; fill: rgb(68, 68, 68); fill-opacity: 1; white-space: pre;">7</text></g><g class="ytick"><text text-anchor="end" x="59" y="4.199999999999999" transform="translate(0,78.95)" style="font-family: 'Open Sans', verdana, arial, sans-serif; font-size: 12px; fill: rgb(68, 68, 68); fill-opacity: 1; white-space: pre;">8</text></g></g><g class="overaxes-above"/></g></g><g class="polarlayer"/><g class="ternarylayer"/><g class="geolayer"/><g class="pielayer"/><g class="glimages"/><defs id="topdefs-a27ec7"><g class="clips"/><clipPath id="legenda27ec7"><rect width="118" height="48" x="0" y="0"/></clipPath></defs><g class="layer-above"><g class="imagelayer"/><g class="shapelayer"/></g><g class="infolayer"><g class="legend" pointer-events="all" transform="translate(570, 60)"><rect class="bg" shape-rendering="crispEdges" width="118" height="48" x="0" y="0" style="stroke: rgb(68, 68, 68); stroke-opacity: 1; fill: rgb(255, 255, 255); fill-opacity: 1; stroke-width: 0px;"/><g class="scrollbox" transform="translate(0, 0)" clip-path="url(#legenda27ec7)"><g class="groups"><g class="traces" transform="translate(0, 14.5)" style="opacity: 1;"><g class="layers" style="opacity: 1;"><g class="legendfill"/><g class="legendlines"><path class="js-line" d="M5,0h30" style="fill: none; stroke: rgb(31, 119, 180); stroke-opacity: 1; stroke-width: 2px;"/></g><g class="legendsymbols"><g class="legendpoints"/></g></g><text class="legendtext user-select-none" text-anchor="start" x="40" y="4.680000000000001" style="font-family: 'Open Sans', verdana, arial, sans-serif; font-size: 12px; fill: rgb(68, 68, 68); fill-opacity: 1; white-space: pre;">Discriminator</text><rect class="legendtoggle" pointer-events="all" x="0" y="-9.5" width="158" height="19" style="cursor: pointer; fill: rgb(0, 0, 0); fill-opacity: 0;"/></g><g class="traces" transform="translate(0, 33.5)" style="opacity: 1;"><g class="layers" style="opacity: 1;"><g class="legendfill"/><g class="legendlines"><path class="js-line" d="M5,0h30" style="fill: none; stroke: rgb(255, 127, 14); stroke-opacity: 1; stroke-width: 2px;"/></g><g class="legendsymbols"><g class="legendpoints"/></g></g><text class="legendtext user-select-none" text-anchor="start" x="40" y="4.680000000000001" style="font-family: 'Open Sans', verdana, arial, sans-serif; font-size: 12px; fill: rgb(68, 68, 68); fill-opacity: 1; white-space: pre;">Generator</text><rect class="legendtoggle" pointer-events="all" x="0" y="-9.5" width="158" height="19" style="cursor: pointer; fill: rgb(0, 0, 0); fill-opacity: 0;"/></g></g></g><rect class="scrollbar" rx="20" ry="3" width="0" height="0" x="0" y="0" style="fill: rgb(128, 139, 164); fill-opacity: 1;"/></g><g class="g-gtitle"><text class="gtitle" x="350" y="30" text-anchor="middle" style="font-family: 'Open Sans', verdana, arial, sans-serif; font-size: 17px; fill: rgb(68, 68, 68); opacity: 1; font-weight: normal; white-space: pre;">loss over time</text></g><g class="g-xtitle"><text class="xtitle" x="310" y="442" text-anchor="middle" style="font-family: 'Open Sans', verdana, arial, sans-serif; font-size: 14px; fill: rgb(68, 68, 68); opacity: 1; font-weight: normal; white-space: pre;">epoch</text></g><g class="g-ytitle"><text class="ytitle" transform="rotate(-90,22,225)" x="22" y="225" text-anchor="middle" style="font-family: 'Open Sans', verdana, arial, sans-serif; font-size: 14px; fill: rgb(68, 68, 68); opacity: 1; font-weight: normal; white-space: pre;">loss</text></g></g></svg>