<svg class="main-svg" xmlns="http://www.w3.org/2000/svg" xmlns:xlink="http://www.w3.org/1999/xlink" width="700" height="450" style="" viewBox="0 0 700 450"><rect x="0" y="0" width="700" height="450" style="fill: rgb(255, 255, 255); fill-opacity: 1;"/><defs id="defs-0d7348"><g class="clips"><clipPath id="clip0d7348xyplot" class="plotclip"><rect width="500" height="330"/></clipPath><clipPath class="axesclip" id="clip0d7348x"><rect x="60" y="0" width="500" height="450"/></clipPath><clipPath class="axesclip" id="clip0d7348y"><rect x="0" y="60" width="700" height="330"/></clipPath><clipPath class="axesclip" id="clip0d7348xy"><rect x="60" y="60" width="500" height="330"/></clipPath></g><g class="gradients"/></defs><g class="bglayer"><rect class="bg" x="60" y="60" width="500" height="330" style="fill: rgb(255, 255, 255); fill-opacity: 1; stroke-width: 0;"/></g><g class="layer-below"><g class="imagelayer"/><g class="shapelayer"/></g><g class="cartesianlayer"><g class="subplot xy"><g class="layer-subplot"><g class="shapelayer"/><g class="imagelayer"/></g><g class="gridlayer"><g class="x"><path class="xgrid crisp" d="M0,60v330" transform="translate(160.11,0)" style="stroke: rgb(238, 238, 238); stroke-opacity: 1; stroke-width: 1px;"/><path class="xgrid crisp" d="M0,60v330" transform="translate(260.22,0)" style="stroke: rgb(238, 238, 238); stroke-opacity: 1; stroke-width: 1px;"/><path class="xgrid crisp" d="M0,60v330" transform="translate(360.33,0)" style="stroke: rgb(238, 238, 238); stroke-opacity: 1; stroke-width: 1px;"/><path class="xgrid crisp" d="M0,60v330" transform="translate(460.44,0)" style="stroke: rgb(238, 238, 238); stroke-opacity: 1; stroke-width: 1px;"/></g><g class="y"><path class="ygrid crisp" d="M60,0h500" transform="translate(0,318.73)" style="stroke: rgb(238, 238, 238); stroke-opacity: 1; stroke-width: 1px;"/><path class="ygrid crisp" d="M60,0h500" transform="translate(0,261.59000000000003)" style="stroke: rgb(238, 238, 238); stroke-opacity: 1; stroke-width: 1px;"/><path class="ygrid crisp" d="M60,0h500" transform="translate(0,204.45)" style="stroke: rgb(238, 238, 238); stroke-opacity: 1; stroke-width: 1px;"/><path class="ygrid crisp" d="M60,0h500" transform="translate(0,147.31)" style="stroke: rgb(238, 238, 238); stroke-opacity: 1; stroke-width: 1px;"/><path class="ygrid crisp" d="M60,0h500" transform="translate(0,90.17)" style="stroke: rgb(238, 238, 238); stroke-opacity: 1; stroke-width: 1px;"/></g></g><g class="zerolinelayer"><path class="xzl zl crisp" d="M0,60v330" transform="translate(60,0)" style="stroke: rgb(68, 68, 68); stroke-opacity: 1; stroke-width: 1px;"/><path class="yzl zl crisp" d="M60,0h500" transform="translate(0,375.87)" style="stroke: rgb(68, 68, 68); stroke-opacity: 1; stroke-width: 1px;"/></g><path class="xlines-below"/><path class="ylines-below"/><g class="overlines-below"/><g class="xaxislayer-below"/><g class="yaxislayer-below"/><g class="overaxes-below"/><g class="plot" transform="translate(60, 60)" clip-path="url(#clip0d7348xyplot)"><g class="scatterlayer mlayer"><g class="trace scatter trace5ff3f1" style="stroke-miterlimit: 2; opacity: 1;"><path class="js-line" d="M0,313.5L1.37,268.71L2.73,266.17L4.1,266.53L5.46,274.97L6.83,274.57L8.2,277.41L9.56,278.87L10.93,284.66L12.3,283.49L13.66,286.87L16.39,289.46L17.76,284.9L20.49,289.39L21.86,289.98L23.22,291.73L24.59,291.03L25.96,287.81L27.32,288.92L28.69,289.69L30.05,287.47L31.42,292.54L32.79,290.22L35.52,293.03L36.89,290.7L38.25,294.02L39.62,290.42L42.35,289.79L43.72,295.04L45.08,292.85L46.45,295.09L47.81,294.6L49.18,295L50.55,294.21L51.91,295.86L56.01,294.38L57.38,296.15L58.74,298.22L60.11,295.15L61.48,295.28L62.84,293.52L64.21,293.72L65.57,296.82L66.94,292.43L68.31,296.39L69.67,295.97L71.04,297.12L72.4,295.41L73.77,296.96L75.14,298.06L76.5,297.01L77.87,299.72L79.23,297.97L81.97,300L83.33,294.67L84.7,297.77L86.07,298.41L87.43,297.4L88.8,297.68L91.53,297.5L92.9,299.2L95.63,296.82L96.99,299.78L98.36,298.62L99.73,299L102.46,298.08L103.83,299.42L105.19,297.03L106.56,296.39L110.66,299.7L112.02,297.39L113.39,296.24L114.75,302.23L116.12,299.21L117.49,299.7L118.85,297.31L120.22,299.81L121.58,297.52L122.95,299.56L124.32,303.24L125.68,300.79L129.78,298.9L131.15,300.28L132.51,301.24L133.88,299.06L135.25,296.89L136.61,301.33L137.98,298.68L139.34,299.84L140.71,298.2L142.08,300.71L143.44,299.05L144.81,303.69L146.17,299.34L147.54,298.43L148.91,298.75L150.27,300.92L151.64,300.07L153.01,301.2L155.74,300.58L157.1,296.44L158.47,302.52L159.84,299.35L161.2,302L162.57,300.02L163.93,304.25L165.3,301.36L166.67,301.51L168.03,302.52L169.4,301.04L170.77,300.72L172.13,300.15L173.5,301.83L174.86,301.9L176.23,299.53L177.6,299.77L178.96,301.04L181.69,298.98L183.06,301.14L184.43,302.73L185.79,300.17L187.16,303.44L188.52,300.04L189.89,299.06L191.26,299.84L193.99,301.18L195.36,301.23L198.09,299.76L199.45,305.45L200.82,301.2L202.19,301.51L203.55,302.58L204.92,302.44L207.65,301.08L209.02,301.61L211.75,303.08L213.11,302.52L215.85,300.98L217.21,302.97L219.95,303.38L221.31,298.88L224.04,303.94L225.41,301.34L226.78,298.89L228.14,302.25L229.51,306.03L230.87,301.52L232.24,303.77L233.61,303.1L236.34,304.24L237.7,303.16L239.07,306.49L240.44,302.62L241.8,299.63L243.17,301.81L244.54,299.92L245.9,303.75L247.27,301.32L248.63,301.79L250,304.22L251.37,304.09L252.73,305.29L254.1,301.52L255.46,302.11L256.83,305.27L259.56,302.09L260.93,299.19L262.3,304.71L263.66,301.87L265.03,303.55L266.39,302.6L267.76,299.33L269.13,302.78L270.49,301.14L271.86,305.92L274.59,301.92L275.96,305.6L277.32,300.99L278.69,305.15L280.05,304.06L281.42,301.82L284.15,300.72L285.52,304.49L286.89,301.1L288.25,302.6L289.62,302.4L290.98,303.08L292.35,305.86L293.72,302.31L296.45,304.13L297.81,300.97L300.55,303.48L301.91,303.27L303.28,304.83L304.64,301.26L306.01,304.2L307.38,300.25L310.11,304.48L311.48,304.79L312.84,302.95L314.21,306.62L316.94,304.88L318.31,300.07L321.04,304.69L322.4,303.28L323.77,303.25L325.14,302.25L326.5,305.15L327.87,304.25L330.6,306L331.97,303.99L333.33,303.32L334.7,301.76L336.07,306.25L337.43,304.48L338.8,299.54L340.16,306.12L341.53,304.34L342.9,306.38L344.26,304.3L345.63,303.58L346.99,303.22L348.36,306.02L349.73,304.86L351.09,301.94L352.46,301.84L353.83,304.87L357.92,300.31L359.29,302.13L360.66,302.43L362.02,301.56L363.39,303.94L364.75,302.08L370.22,303.58L371.58,304.87L372.95,305.5L374.32,300.79L378.42,304.63L379.78,303.26L382.51,302.81L383.88,301.59L385.25,305.19L386.61,303.06L387.98,305.64L389.34,305.08L390.71,303.08L392.08,304.01L394.81,303.5L396.17,301.38L397.54,305.55L398.91,305.44L400.27,307.78L401.64,303.69L403.01,306.35L404.37,303.03L405.74,304.82L407.1,303.83L408.47,302.44L409.84,304.29L411.2,302.15L412.57,301.87L413.93,303.89L415.3,303L416.67,307.73L418.03,302.6L419.4,301.39L420.77,305.09L422.13,303.5L423.5,305.93L426.23,300.95L427.6,301.44L428.96,302.27L430.33,306.44L431.69,302.37L433.06,304.35L435.79,306.04L437.16,302.97L438.52,304.95L439.89,303.69L441.26,303.23L442.62,301.57L443.99,306.22L445.36,303.41L448.09,302.24L449.45,305.76L454.92,301.31L456.28,305.7L457.65,307.47L459.02,304.3L461.75,300.67L463.11,307.22L464.48,304.16L465.85,305.59L467.21,302.24L468.58,304.54L469.95,304.61L471.31,305.78L472.68,303.88L474.04,306.73L475.41,304.56L476.78,304.4L478.14,304.85L479.51,306.43L482.24,303.45L483.61,302.12L484.97,308.55L486.34,301.63L487.7,304.56L489.07,303.26L493.17,305.81L494.54,304.91L495.9,301.97L497.27,305.05L498.63,306.07L500,303.76" style="vector-effect: non-scaling-stroke; fill: none; stroke: rgb(31, 119, 180); stroke-opacity: 1; stroke-width: 2px; opacity: 1;"/><g class="points"/></g><g class="trace scatter trace4430a6" style="stroke-miterlimit: 2; opacity: 1;"><path class="js-line" d="M0,30.51L1.37,63.18L2.73,50.42L4.1,61.07L5.46,60.04L6.83,48.92L8.2,57.32L10.93,55.01L12.3,38.31L13.66,53.59L15.03,36.21L16.39,32L17.76,40.07L19.13,35.89L20.49,53.93L21.86,53.16L23.22,55.12L24.59,51.65L25.96,53.42L27.32,29.23L28.69,34.99L30.05,36.36L31.42,55.61L32.79,50.42L34.15,52.34L36.89,54.51L38.25,50.65L39.62,35.44L40.98,51L42.35,37.37L43.72,51.71L45.08,33.75L46.45,34.39L47.81,32.5L49.18,48.93L50.55,49.14L51.91,28.49L53.28,26.1L54.64,30.31L56.01,53.56L57.38,26.49L58.74,29.15L60.11,52.48L64.21,38.01L65.57,52.21L66.94,43.24L68.31,48.47L69.67,48.43L71.04,26.91L72.4,25.57L73.77,30.48L75.14,48.62L76.5,38.42L77.87,27.66L79.23,30.89L80.6,26.61L81.97,50.63L83.33,48.02L84.7,42.22L86.07,50.75L87.43,49.07L90.16,34.21L91.53,29.41L92.9,50.8L94.26,44.77L95.63,34.44L96.99,52.92L98.36,50.19L99.73,31.41L101.09,30.22L102.46,42.19L103.83,29.47L105.19,38.87L106.56,51.54L107.92,20.94L109.29,32.59L110.66,27.5L112.02,39.88L113.39,43.3L114.75,46.3L116.12,29.56L117.49,24.56L118.85,32.61L120.22,34.48L121.58,30.57L122.95,30.08L124.32,46.26L125.68,30.01L127.05,27.38L128.42,30.34L129.78,31.41L131.15,27.43L132.51,48.29L133.88,25.98L135.25,43.34L136.61,46.93L137.98,27.63L139.34,50.36L140.71,43.1L143.44,34.19L144.81,49.46L146.17,29.24L147.54,32.87L148.91,33.52L150.27,28.29L151.64,16.81L153.01,27L154.37,31.73L155.74,43.36L157.1,44.23L158.47,39.14L159.84,24L161.2,28.01L162.57,47.27L163.93,49.66L165.3,43.72L166.67,45.14L168.03,28.8L169.4,43.74L170.77,28.75L172.13,52.23L174.86,31.78L176.23,25.33L177.6,47.44L178.96,53.25L180.33,23.69L181.69,34.53L183.06,29.8L184.43,46.98L185.79,34.72L187.16,49.04L189.89,21.72L191.26,27.98L192.62,42.34L193.99,31.62L195.36,44.18L196.72,40.1L198.09,46.1L199.45,22.71L200.82,24.14L202.19,22.77L203.55,40.63L204.92,32.27L206.28,22.7L207.65,23.89L209.02,21.38L210.38,43.89L211.75,22.15L213.11,39.49L214.48,38.9L215.85,31.8L217.21,34.44L218.58,45.62L221.31,24.43L222.68,38.33L224.04,47.65L225.41,47.56L226.78,25.48L228.14,37.51L229.51,42.69L230.87,31.6L232.24,43.53L233.61,35.06L234.97,34.37L236.34,36.65L239.07,24.46L240.44,45.16L243.17,20.61L244.54,31.71L245.9,44.89L247.27,37.29L248.63,34.9L250,44.85L252.73,43.85L254.1,26.33L255.46,27.45L256.83,31.38L258.2,35.6L259.56,45.68L260.93,27.34L262.3,45.22L263.66,37.45L265.03,33.99L266.39,46.43L267.76,33.91L269.13,30.71L270.49,31.1L271.86,37.19L273.22,38.1L274.59,24.54L275.96,42.72L277.32,24.34L278.69,29.09L280.05,40.05L281.42,26.89L282.79,48.87L284.15,48.9L285.52,47.51L286.89,39.72L288.25,41.89L289.62,39.14L290.98,40.56L292.35,22.36L293.72,18.23L295.08,22.68L296.45,26.89L297.81,26.91L299.18,31.46L300.55,32.04L301.91,29.92L303.28,46.63L304.64,35.73L306.01,34.85L307.38,31.22L308.74,36.9L310.11,40.1L311.48,36.36L312.84,26.3L314.21,37.14L315.57,47.93L316.94,35.63L318.31,45.34L319.67,29.95L322.4,44.38L323.77,39.72L325.14,30.32L326.5,34.78L327.87,27.82L329.23,46.42L330.6,29.45L331.97,40.52L333.33,40.86L334.7,38.75L336.07,38.35L337.43,26.87L340.16,40.15L341.53,44.16L342.9,33.64L344.26,44.76L345.63,24.18L346.99,27.9L348.36,43.95L349.73,34.49L351.09,45.62L352.46,22.11L355.19,44.85L356.56,34.31L357.92,30.63L359.29,44.33L362.02,31.41L363.39,32L364.75,40.32L366.12,34.74L367.49,41.51L368.85,33.98L370.22,35.82L371.58,41.79L372.95,40.9L374.32,47.18L375.68,39.8L377.05,37.44L378.42,29.74L379.78,29.69L381.15,41.58L382.51,31.39L383.88,37.95L385.25,33.43L386.61,36.7L387.98,30.79L389.34,33.99L390.71,43.79L392.08,28.53L393.44,27.31L394.81,42.21L396.17,36.71L397.54,31.07L398.91,37.94L400.27,35.46L401.64,39.38L403.01,43.44L404.37,35.05L405.74,26.38L407.1,39.96L408.47,34.16L409.84,40.61L411.2,30.25L412.57,28.19L415.3,42.88L416.67,36.84L418.03,37.25L419.4,36.44L420.77,31.38L422.13,44.75L423.5,26.75L424.86,27.64L426.23,38.36L427.6,41.77L428.96,22.15L430.33,31.25L431.69,35.81L433.06,44.07L434.43,43.87L435.79,37L437.16,37.23L438.52,29.34L439.89,39.42L441.26,31.3L442.62,26.27L443.99,30.22L445.36,26.67L446.72,41.34L448.09,27.98L449.45,31.03L450.82,16.5L452.19,32.91L453.55,32.92L454.92,46.82L456.28,32.75L457.65,42.24L459.02,26.43L460.38,49.9L461.75,33.61L463.11,35.55L464.48,31.67L465.85,31.7L467.21,36.9L468.58,38.37L469.95,23.61L471.31,41.36L472.68,44.02L474.04,39.65L475.41,28.93L476.78,35.99L478.14,35.17L479.51,27.08L480.87,29.25L482.24,44.2L483.61,26.87L484.97,45.1L486.34,30.31L487.7,37.6L489.07,36.27L490.44,28.17L491.8,32.71L493.17,25.14L494.54,27.04L495.9,32.36L497.27,24.27L498.63,42.47L500,31.11" style="vector-effect: non-scaling-stroke; fill: none; stroke: rgb(255, 127, 14); stroke-opacity: 1; stroke-width: 2px; opacity: 1;"/><g class="points"/></g></g></g><g class="overplot"/><path class="xlines-above crisp" d="M0,0" style="fill: none;"/><path class="ylines-above crisp" d="M0,0" style="fill: none;"/><g class="overlines-above"/><g class="xaxislayer-above"><g class="xtick"><text text-anchor="middle" x="0" y="403" transform="translate(60,0)" style="font-family: 'Open Sans', verdana, arial, sans-serif; font-size: 12px; fill: rgb(68, 68, 68); fill-opacity: 1; white-space: pre;">0</text></g><g class="xtick"><text text-anchor="middle" x="0" y="403" transform="translate(160.11,0)" style="font-family: 'Open Sans', verdana, arial, sans-serif; font-size: 12px; fill: rgb(68, 68, 68); fill-opacity: 1; white-space: pre;">20</text></g><g class="xtick"><text text-anchor="middle" x="0" y="403" transform="translate(260.22,0)" style="font-family: 'Open Sans', verdana, arial, sans-serif; font-size: 12px; fill: rgb(68, 68, 68); fill-opacity: 1; white-space: pre;">40</text></g><g class="xtick"><text text-anchor="middle" x="0" y="403" transform="translate(360.33,0)" style="font-family: 'Open Sans', verdana, arial, sans-serif; font-size: 12px; fill: rgb(68, 68, 68); fill-opacity: 1; white-space: pre;">60</text></g><g class="xtick"><text text-anchor="middle" x="0" y="403" transform="translate(460.44,0)" style="font-family: 'Open Sans', verdana, arial, sans-serif; font-size: 12px; fill: rgb(68, 68, 68); fill-opacity: 1; white-space: pre;">80</text></g></g><g class="yaxislayer-above"><g class="ytick"><text text-anchor="end" x="59" y="4.199999999999999" transform="translate(0,375.87)" style="font-family: 'Open Sans', verdana, arial, sans-serif; font-size: 12px; fill: rgb(68, 68, 68); fill-opacity: 1; white-space: pre;">0</text></g><g class="ytick"><text text-anchor="end" x="59" y="4.199999999999999" transform="translate(0,318.73)" style="font-family: 'Open Sans', verdana, arial, sans-serif; font-size: 12px; fill: rgb(68, 68, 68); fill-opacity: 1; white-space: pre;">0.1</text></g><g class="ytick"><text text-anchor="end" x="59" y="4.199999999999999" transform="translate(0,261.59000000000003)" style="font-family: 'Open Sans', verdana, arial, sans-serif; font-size: 12px; fill: rgb(68, 68, 68); fill-opacity: 1; white-space: pre;">0.2</text></g><g class="ytick"><text text-anchor="end" x="59" y="4.199999999999999" transform="translate(0,204.45)" style="font-family: 'Open Sans', verdana, arial, sans-serif; font-size: 12px; fill: rgb(68, 68, 68); fill-opacity: 1; white-space: pre;">0.3</text></g><g class="ytick"><text text-anchor="end" x="59" y="4.199999999999999" transform="translate(0,147.31)" style="font-family: 'Open Sans', verdana, arial, sans-serif; font-size: 12px; fill: rgb(68, 68, 68); fill-opacity: 1; white-space: pre;">0.4</text></g><g class="ytick"><text text-anchor="end" x="59" y="4.199999999999999" transform="translate(0,90.17)" style="font-family: 'Open Sans', verdana, arial, sans-serif; font-size: 12px; fill: rgb(68, 68, 68); fill-opacity: 1; white-space: pre;">0.5</text></g></g><g class="overaxes-above"/></g></g><g class="polarlayer"/><g class="ternarylayer"/><g class="geolayer"/><g class="pielayer"/><g class="glimages"/><defs id="topdefs-0d7348"><g class="clips"/><clipPath id="legend0d7348"><rect width="118" height="48" x="0" y="0"/></clipPath></defs><g class="layer-above"><g class="imagelayer"/><g class="shapelayer"/></g><g class="infolayer"><g class="legend" pointer-events="all" transform="translate(570, 60)"><rect class="bg" shape-rendering="crispEdges" width="118" height="48" x="0" y="0" style="stroke: rgb(68, 68, 68); stroke-opacity: 1; fill: rgb(255, 255, 255); fill-opacity: 1; stroke-width: 0px;"/><g class="scrollbox" transform="translate(0, 0)" clip-path="url(#legend0d7348)"><g class="groups"><g class="traces" transform="translate(0, 14.5)" style="opacity: 1;"><g class="layers" style="opacity: 1;"><g class="legendfill"/><g class="legendlines"><path class="js-line" d="M5,0h30" style="fill: none; stroke: rgb(31, 119, 180); stroke-opacity: 1; stroke-width: 2px;"/></g><g class="legendsymbols"><g class="legendpoints"/></g></g><text class="legendtext user-select-none" text-anchor="start" x="40" y="4.680000000000001" style="font-family: 'Open Sans', verdana, arial, sans-serif; font-size: 12px; fill: rgb(68, 68, 68); fill-opacity: 1; white-space: pre;">Discriminator</text><rect class="legendtoggle" pointer-events="all" x="0" y="-9.5" width="158" height="19" style="cursor: pointer; fill: rgb(0, 0, 0); fill-opacity: 0;"/></g><g class="traces" transform="translate(0, 33.5)" style="opacity: 1;"><g class="layers" style="opacity: 1;"><g class="legendfill"/><g class="legendlines"><path class="js-line" d="M5,0h30" style="fill: none; stroke: rgb(255, 127, 14); stroke-opacity: 1; stroke-width: 2px;"/></g><g class="legendsymbols"><g class="legendpoints"/></g></g><text class="legendtext user-select-none" text-anchor="start" x="40" y="4.680000000000001" style="font-family: 'Open Sans', verdana, arial, sans-serif; font-size: 12px; fill: rgb(68, 68, 68); fill-opacity: 1; white-space: pre;">Generator</text><rect class="legendtoggle" pointer-events="all" x="0" y="-9.5" width="158" height="19" style="cursor: pointer; fill: rgb(0, 0, 0); fill-opacity: 0;"/></g></g></g><rect class="scrollbar" rx="20" ry="3" width="0" height="0" x="0" y="0" style="fill: rgb(128, 139, 164); fill-opacity: 1;"/></g><g class="g-gtitle"><text class="gtitle" x="350" y="30" text-anchor="middle" style="font-family: 'Open Sans', verdana, arial, sans-serif; font-size: 17px; fill: rgb(68, 68, 68); opacity: 1; font-weight: normal; white-space: pre;">loss over time</text></g><g class="g-xtitle"><text class="xtitle" x="310" y="442" text-anchor="middle" style="font-family: 'Open Sans', verdana, arial, sans-serif; font-size: 14px; fill: rgb(68, 68, 68); opacity: 1; font-weight: normal; white-space: pre;">epoch</text></g><g class="g-ytitle"><text class="ytitle" transform="rotate(-90,22,225)" x="22" y="225" text-anchor="middle" style="font-family: 'Open Sans', verdana, arial, sans-serif; font-size: 14px; fill: rgb(68, 68, 68); opacity: 1; font-weight: normal; white-space: pre;">loss</text></g></g></svg>