<svg class="main-svg" xmlns="http://www.w3.org/2000/svg" xmlns:xlink="http://www.w3.org/1999/xlink" width="700" height="450" style="" viewBox="0 0 700 450"><rect x="0" y="0" width="700" height="450" style="fill: rgb(255, 255, 255); fill-opacity: 1;"/><defs id="defs-bae5d4"><g class="clips"><clipPath id="clipbae5d4xyplot" class="plotclip"><rect width="501" height="330"/></clipPath><clipPath class="axesclip" id="clipbae5d4x"><rect x="60" y="0" width="501" height="450"/></clipPath><clipPath class="axesclip" id="clipbae5d4y"><rect x="0" y="60" width="700" height="330"/></clipPath><clipPath class="axesclip" id="clipbae5d4xy"><rect x="60" y="60" width="501" height="330"/></clipPath></g><g class="gradients"/></defs><g class="bglayer"><rect class="bg" x="60" y="60" width="501" height="330" style="fill: rgb(255, 255, 255); fill-opacity: 1; stroke-width: 0;"/></g><g class="layer-below"><g class="imagelayer"/><g class="shapelayer"/></g><g class="cartesianlayer"><g class="subplot xy"><g class="layer-subplot"><g class="shapelayer"/><g class="imagelayer"/></g><g class="gridlayer"><g class="x"><path class="xgrid crisp" d="M0,60v330" transform="translate(193.43,0)" style="stroke: rgb(238, 238, 238); stroke-opacity: 1; stroke-width: 1px;"/><path class="xgrid crisp" d="M0,60v330" transform="translate(326.87,0)" style="stroke: rgb(238, 238, 238); stroke-opacity: 1; stroke-width: 1px;"/><path class="xgrid crisp" d="M0,60v330" transform="translate(460.3,0)" style="stroke: rgb(238, 238, 238); stroke-opacity: 1; stroke-width: 1px;"/></g><g class="y"><path class="ygrid crisp" d="M60,0h501" transform="translate(0,385.89)" style="stroke: rgb(238, 238, 238); stroke-opacity: 1; stroke-width: 1px;"/><path class="ygrid crisp" d="M60,0h501" transform="translate(0,311.63)" style="stroke: rgb(238, 238, 238); stroke-opacity: 1; stroke-width: 1px;"/><path class="ygrid crisp" d="M60,0h501" transform="translate(0,237.37)" style="stroke: rgb(238, 238, 238); stroke-opacity: 1; stroke-width: 1px;"/><path class="ygrid crisp" d="M60,0h501" transform="translate(0,163.11)" style="stroke: rgb(238, 238, 238); stroke-opacity: 1; stroke-width: 1px;"/><path class="ygrid crisp" d="M60,0h501" transform="translate(0,88.85)" style="stroke: rgb(238, 238, 238); stroke-opacity: 1; stroke-width: 1px;"/></g></g><g class="zerolinelayer"><path class="xzl zl crisp" d="M0,60v330" transform="translate(60,0)" style="stroke: rgb(68, 68, 68); stroke-opacity: 1; stroke-width: 1px;"/></g><path class="xlines-below"/><path class="ylines-below"/><g class="overlines-below"/><g class="xaxislayer-below"/><g class="yaxislayer-below"/><g class="overaxes-below"/><g class="plot" transform="translate(60, 60)" clip-path="url(#clipbae5d4xyplot)"><g class="scatterlayer mlayer"><g class="trace scatter trace7f7bef" style="stroke-miterlimit: 2; opacity: 1;"><path class="js-line" d="M0,194.13L5.69,192.99L11.39,198.15L17.08,188.35L22.77,209.88L28.47,221.11L34.16,211.7L39.85,220.3L45.55,202.82L51.24,209.68L56.93,206.17L62.63,205.73L68.32,231.07L74.01,207.54L79.7,226.54L85.4,246.9L91.09,239.88L96.78,207.06L102.48,244.06L108.17,248.01L113.86,249.63L119.56,231.72L125.25,245.42L130.94,259.27L136.64,247.28L142.33,235.14L148.02,246.44L153.72,246.88L159.41,257.73L165.1,267.48L170.8,252.88L176.49,238.98L182.18,248.89L187.88,257.61L193.57,218.12L199.26,260.87L204.95,222.04L210.65,245.15L216.34,286.33L227.73,244.37L233.42,223.47L239.11,259.13L244.81,267.39L250.5,265.26L256.19,253.92L261.89,269.27L267.58,242.37L273.27,266.21L278.97,260.73L284.66,285.04L290.35,289.5L296.05,261.44L301.74,276.44L307.43,269.77L313.13,281.57L318.82,258.13L324.51,258.24L330.2,253.88L335.9,264.44L341.59,260.29L347.28,265.36L352.98,273.9L358.67,273.38L364.36,285.63L370.06,264.6L381.44,276.48L387.14,271.21L392.83,263L398.52,248.39L409.91,283.55L415.6,267.84L426.99,237.22L432.68,262.14L438.38,287.24L444.07,271.55L449.76,275.92L455.45,270.88L461.15,282.43L466.84,271L472.53,269.97L478.23,249.22L483.92,275.18L489.61,257.97L495.31,273.1L501,272.93" style="vector-effect: non-scaling-stroke; fill: none; stroke: rgb(31, 119, 180); stroke-opacity: 1; stroke-width: 2px; opacity: 1;"/><g class="points"/></g><g class="trace scatter trace9c779a" style="stroke-miterlimit: 2; opacity: 1;"><path class="js-line" d="M0,301.27L5.69,296.95L11.39,301.12L17.08,265.25L22.77,240.83L28.47,283.01L34.16,267.54L39.85,268.64L45.55,205.78L51.24,313.5L56.93,156.28L62.63,248.93L68.32,276.55L74.01,219.8L79.7,188.4L85.4,243.15L91.09,281.59L96.78,161.47L102.48,221.48L108.17,204.59L113.86,176.5L119.56,280.97L125.25,269.62L130.94,246.52L136.64,230.32L142.33,217.12L148.02,266.9L153.72,127.69L159.41,180.07L165.1,145.2L170.8,223.8L176.49,281.99L182.18,225.41L187.88,251.96L193.57,66.4L199.26,192.31L204.95,293.86L210.65,163.43L216.34,150.13L222.03,147.43L227.73,165.52L233.42,16.5L239.11,189.73L244.81,144.64L250.5,111.75L256.19,151.46L261.89,141.97L267.58,218.65L273.27,180.27L278.97,90.29L284.66,110.5L296.05,179.51L301.74,127.08L307.43,168.75L313.13,110.91L318.82,166.15L324.51,137.73L330.2,225.38L335.9,172.22L341.59,129.44L347.28,151.1L352.98,148.46L358.67,180.4L364.36,183.84L370.06,162.92L375.75,135.35L381.44,171.04L387.14,154.6L392.83,220.33L404.22,197.63L409.91,134.33L415.6,167.72L421.3,168.07L426.99,209.78L432.68,184.39L438.38,101.89L444.07,190.17L449.76,126.26L455.45,149.98L461.15,147.18L466.84,135.46L472.53,165.4L478.23,178.84L483.92,121.76L489.61,122.53L495.31,139.39L501,167.75" style="vector-effect: non-scaling-stroke; fill: none; stroke: rgb(255, 127, 14); stroke-opacity: 1; stroke-width: 2px; opacity: 1;"/><g class="points"/></g></g></g><g class="overplot"/><path class="xlines-above crisp" d="M0,0" style="fill: none;"/><path class="ylines-above crisp" d="M0,0" style="fill: none;"/><g class="overlines-above"/><g class="xaxislayer-above"><g class="xtick"><text text-anchor="middle" x="0" y="403" transform="translate(60,0)" style="font-family: 'Open Sans', verdana, arial, sans-serif; font-size: 12px; fill: rgb(68, 68, 68); fill-opacity: 1; white-space: pre;">0</text></g><g class="xtick"><text text-anchor="middle" x="0" y="403" transform="translate(193.43,0)" style="font-family: 'Open Sans', verdana, arial, sans-serif; font-size: 12px; fill: rgb(68, 68, 68); fill-opacity: 1; white-space: pre;">20</text></g><g class="xtick"><text text-anchor="middle" x="0" y="403" transform="translate(326.87,0)" style="font-family: 'Open Sans', verdana, arial, sans-serif; font-size: 12px; fill: rgb(68, 68, 68); fill-opacity: 1; white-space: pre;">40</text></g><g class="xtick"><text text-anchor="middle" x="0" y="403" transform="translate(460.3,0)" style="font-family: 'Open Sans', verdana, arial, sans-serif; font-size: 12px; fill: rgb(68, 68, 68); fill-opacity: 1; white-space: pre;">60</text></g></g><g class="yaxislayer-above"><g class="ytick"><text text-anchor="end" x="59" y="4.199999999999999" transform="translate(0,385.89)" style="font-family: 'Open Sans', verdana, arial, sans-serif; font-size: 12px; fill: rgb(68, 68, 68); fill-opacity: 1; white-space: pre;">0.5</text></g><g class="ytick"><text text-anchor="end" x="59" y="4.199999999999999" transform="translate(0,311.63)" style="font-family: 'Open Sans', verdana, arial, sans-serif; font-size: 12px; fill: rgb(68, 68, 68); fill-opacity: 1; white-space: pre;">1</text></g><g class="ytick"><text text-anchor="end" x="59" y="4.199999999999999" transform="translate(0,237.37)" style="font-family: 'Open Sans', verdana, arial, sans-serif; font-size: 12px; fill: rgb(68, 68, 68); fill-opacity: 1; white-space: pre;">1.5</text></g><g class="ytick"><text text-anchor="end" x="59" y="4.199999999999999" transform="translate(0,163.11)" style="font-family: 'Open Sans', verdana, arial, sans-serif; font-size: 12px; fill: rgb(68, 68, 68); fill-opacity: 1; white-space: pre;">2</text></g><g class="ytick"><text text-anchor="end" x="59" y="4.199999999999999" transform="translate(0,88.85)" style="font-family: 'Open Sans', verdana, arial, sans-serif; font-size: 12px; fill: rgb(68, 68, 68); fill-opacity: 1; white-space: pre;">2.5</text></g></g><g class="overaxes-above"/></g></g><g class="polarlayer"/><g class="ternarylayer"/><g class="geolayer"/><g class="pielayer"/><g class="glimages"/><defs id="topdefs-bae5d4"><g class="clips"/><clipPath id="legendbae5d4"><rect width="117" height="48" x="0" y="0"/></clipPath></defs><g class="layer-above"><g class="imagelayer"/><g class="shapelayer"/></g><g class="infolayer"><g class="legend" pointer-events="all" transform="translate(571.02, 60)"><rect class="bg" shape-rendering="crispEdges" width="117" height="48" x="0" y="0" style="stroke: rgb(68, 68, 68); stroke-opacity: 1; fill: rgb(255, 255, 255); fill-opacity: 1; stroke-width: 0px;"/><g class="scrollbox" transform="translate(0, 0)" clip-path="url(#legendbae5d4)"><g class="groups"><g class="traces" transform="translate(0, 14.5)" style="opacity: 1;"><g class="layers" style="opacity: 1;"><g class="legendfill"/><g class="legendlines"><path class="js-line" d="M5,0h30" style="fill: none; stroke: rgb(31, 119, 180); stroke-opacity: 1; stroke-width: 2px;"/></g><g class="legendsymbols"><g class="legendpoints"/></g></g><text class="legendtext user-select-none" text-anchor="start" x="40" y="4.680000000000001" style="font-family: 'Open Sans', verdana, arial, sans-serif; font-size: 12px; fill: rgb(68, 68, 68); fill-opacity: 1; white-space: pre;">Discriminator</text><rect class="legendtoggle" pointer-events="all" x="0" y="-9.5" width="157" height="19" style="cursor: pointer; fill: rgb(0, 0, 0); fill-opacity: 0;"/></g><g class="traces" transform="translate(0, 33.5)" style="opacity: 1;"><g class="layers" style="opacity: 1;"><g class="legendfill"/><g class="legendlines"><path class="js-line" d="M5,0h30" style="fill: none; stroke: rgb(255, 127, 14); stroke-opacity: 1; stroke-width: 2px;"/></g><g class="legendsymbols"><g class="legendpoints"/></g></g><text class="legendtext user-select-none" text-anchor="start" x="40" y="4.680000000000001" style="font-family: 'Open Sans', verdana, arial, sans-serif; font-size: 12px; fill: rgb(68, 68, 68); fill-opacity: 1; white-space: pre;">Generator</text><rect class="legendtoggle" pointer-events="all" x="0" y="-9.5" width="157" height="19" style="cursor: pointer; fill: rgb(0, 0, 0); fill-opacity: 0;"/></g></g></g><rect class="scrollbar" rx="20" ry="3" width="0" height="0" x="0" y="0" style="fill: rgb(128, 139, 164); fill-opacity: 1;"/></g><g class="g-gtitle"><text class="gtitle" x="350" y="30" text-anchor="middle" style="font-family: 'Open Sans', verdana, arial, sans-serif; font-size: 17px; fill: rgb(68, 68, 68); opacity: 1; font-weight: normal; white-space: pre;">loss over time</text></g><g class="g-xtitle"><text class="xtitle" x="310.5" y="442" text-anchor="middle" style="font-family: 'Open Sans', verdana, arial, sans-serif; font-size: 14px; fill: rgb(68, 68, 68); opacity: 1; font-weight: normal; white-space: pre;">epoch</text></g><g class="g-ytitle"><text class="ytitle" transform="rotate(-90,22,225)" x="22" y="225" text-anchor="middle" style="font-family: 'Open Sans', verdana, arial, sans-serif; font-size: 14px; fill: rgb(68, 68, 68); opacity: 1; font-weight: normal; white-space: pre;">loss</text></g></g></svg>