<svg class="main-svg" xmlns="http://www.w3.org/2000/svg" xmlns:xlink="http://www.w3.org/1999/xlink" width="700" height="450" style="" viewBox="0 0 700 450"><rect x="0" y="0" width="700" height="450" style="fill: rgb(255, 255, 255); fill-opacity: 1;"/><defs id="defs-5c7843"><g class="clips"><clipPath id="clip5c7843xyplot" class="plotclip"><rect width="500" height="330"/></clipPath><clipPath class="axesclip" id="clip5c7843x"><rect x="60" y="0" width="500" height="450"/></clipPath><clipPath class="axesclip" id="clip5c7843y"><rect x="0" y="60" width="700" height="330"/></clipPath><clipPath class="axesclip" id="clip5c7843xy"><rect x="60" y="60" width="500" height="330"/></clipPath></g><g class="gradients"/></defs><g class="bglayer"><rect class="bg" x="60" y="60" width="500" height="330" style="fill: rgb(255, 255, 255); fill-opacity: 1; stroke-width: 0;"/></g><g class="layer-below"><g class="imagelayer"/><g class="shapelayer"/></g><g class="cartesianlayer"><g class="subplot xy"><g class="layer-subplot"><g class="shapelayer"/><g class="imagelayer"/></g><g class="gridlayer"><g class="x"><path class="xgrid crisp" d="M0,60v330" transform="translate(139.07,0)" style="stroke: rgb(238, 238, 238); stroke-opacity: 1; stroke-width: 1px;"/><path class="xgrid crisp" d="M0,60v330" transform="translate(218.15,0)" style="stroke: rgb(238, 238, 238); stroke-opacity: 1; stroke-width: 1px;"/><path class="xgrid crisp" d="M0,60v330" transform="translate(297.22,0)" style="stroke: rgb(238, 238, 238); stroke-opacity: 1; stroke-width: 1px;"/><path class="xgrid crisp" d="M0,60v330" transform="translate(376.3,0)" style="stroke: rgb(238, 238, 238); stroke-opacity: 1; stroke-width: 1px;"/><path class="xgrid crisp" d="M0,60v330" transform="translate(455.37,0)" style="stroke: rgb(238, 238, 238); stroke-opacity: 1; stroke-width: 1px;"/><path class="xgrid crisp" d="M0,60v330" transform="translate(534.44,0)" style="stroke: rgb(238, 238, 238); stroke-opacity: 1; stroke-width: 1px;"/></g><g class="y"><path class="ygrid crisp" d="M60,0h500" transform="translate(0,312.03999999999996)" style="stroke: rgb(238, 238, 238); stroke-opacity: 1; stroke-width: 1px;"/><path class="ygrid crisp" d="M60,0h500" transform="translate(0,250.58)" style="stroke: rgb(238, 238, 238); stroke-opacity: 1; stroke-width: 1px;"/><path class="ygrid crisp" d="M60,0h500" transform="translate(0,189.13)" style="stroke: rgb(238, 238, 238); stroke-opacity: 1; stroke-width: 1px;"/><path class="ygrid crisp" d="M60,0h500" transform="translate(0,127.67)" style="stroke: rgb(238, 238, 238); stroke-opacity: 1; stroke-width: 1px;"/><path class="ygrid crisp" d="M60,0h500" transform="translate(0,66.21)" style="stroke: rgb(238, 238, 238); stroke-opacity: 1; stroke-width: 1px;"/></g></g><g class="zerolinelayer"><path class="xzl zl crisp" d="M0,60v330" transform="translate(60,0)" style="stroke: rgb(68, 68, 68); stroke-opacity: 1; stroke-width: 1px;"/><path class="yzl zl crisp" d="M60,0h500" transform="translate(0,373.5)" style="stroke: rgb(68, 68, 68); stroke-opacity: 1; stroke-width: 1px;"/></g><path class="xlines-below"/><path class="ylines-below"/><g class="overlines-below"/><g class="xaxislayer-below"/><g class="yaxislayer-below"/><g class="overaxes-below"/><g class="plot" transform="translate(60, 60)" clip-path="url(#clip5c7843xyplot)"><g class="scatterlayer mlayer"><g class="trace scatter trace927b3a" style="stroke-miterlimit: 2; opacity: 1;"><path class="js-line" d="M0,312.08L1.01,273.03L2.02,310.31L3.04,306.25L4.05,305.5L5.06,308.51L6.07,308.65L7.09,312L8.1,311.58L10.12,312.58L11.13,313.05L12.15,313.15L13.16,309.9L14.17,312.03L15.18,305.17L16.19,311.63L17.21,310.31L19.23,313.07L20.24,312.94L21.26,311.31L22.27,313.3L24.29,312.89L25.3,311.87L27.33,313.2L28.34,313.02L31.38,313.34L32.39,313.46L117.41,313.48L118.42,312.53L120.45,313.5L121.46,313.45L139.68,313.45L140.69,312.71L142.71,313.43L143.72,313.38L156.88,313.4L157.89,312.46L159.92,313.25L160.93,313.37L162.96,313.41L163.97,313.38L178.14,313.44L179.15,313.33L191.3,313.44L192.31,313.43L193.32,313.43L194.33,312.59L196.36,313.46L197.37,313.47L201.42,313.46L202.43,313.47L261.13,313.46L262.15,313.47L286.44,313.48L287.45,313.47L363.36,313.49L364.37,313.48L439.27,313.49L440.28,313.47L500,313.49" style="vector-effect: non-scaling-stroke; fill: none; stroke: rgb(31, 119, 180); stroke-opacity: 1; stroke-width: 2px; opacity: 1;"/><g class="points"/></g><g class="trace scatter traceed77f0" style="stroke-miterlimit: 2; opacity: 1;"><path class="js-line" d="M0,307.56L1.01,16.5L2.02,304.29L3.04,279.97L4.05,304.21L5.06,312.55L6.07,253.76L7.09,312.34L8.1,312.92L10.12,310.99L11.13,306.92L12.15,312.18L13.16,298.12L14.17,296.13L15.18,284.09L16.19,294.63L17.21,288.95L18.22,310.03L19.23,311.54L20.24,308.19L21.26,295.73L22.27,310.52L23.28,313.11L25.3,299.29L26.32,312.85L28.34,308.74L29.35,310.91L33.4,311.44L34.41,311.22L35.43,310.87L36.44,312.58L37.45,310.45L38.46,310.91L39.47,309.1L40.49,312.76L41.5,310.84L42.51,310.62L44.53,310.34L45.55,311.26L46.56,310.54L47.57,310.9L48.58,310.85L49.6,310.04L50.61,309.81L51.62,310.81L56.68,311.42L57.69,310.73L60.73,311.33L61.74,310.97L62.75,311.89L63.77,309.6L64.78,310.8L65.79,309.77L68.83,311.21L69.84,311.27L70.85,310.69L71.86,311.17L72.87,311.55L73.89,310.9L75.91,312.03L76.92,310.21L78.95,311.67L79.96,310.52L80.97,311.51L81.98,311.1L84.01,310.57L85.02,311.31L88.06,310.81L89.07,310.42L91.09,310.84L92.11,310.23L94.13,311.58L95.14,310.36L97.17,311.59L98.18,311.06L100.2,310.75L101.21,311.5L104.25,310.46L105.26,311.07L108.3,310.92L109.31,310.91L113.36,311.18L114.37,310.9L116.4,311.09L117.41,311.71L118.42,297.8L119.43,311.09L121.46,310.51L122.47,311.27L124.49,310.84L125.51,311.21L126.52,311.19L127.53,311.94L128.54,311.05L129.55,311.52L132.59,310.11L133.6,310.82L135.63,311.34L136.64,310.48L138.66,312.09L139.68,310.89L140.69,310.24L141.7,311.94L143.72,310.26L144.74,310.7L145.75,311.19L146.76,310.62L147.77,311.71L148.79,310.83L149.8,311.02L150.81,309.96L152.83,310.59L153.85,310.8L155.87,310.5L156.88,312.23L157.89,310.91L158.91,311.15L159.92,310.49L160.93,311.28L163.97,311.12L164.98,310.14L165.99,309.71L167,311.11L169.03,310.8L170.04,311.26L174.09,311.69L175.1,311.79L176.11,310.43L177.13,311.54L179.15,309.44L180.16,310.23L181.17,311.67L182.19,309.81L184.21,311.33L185.22,311.12L186.23,312.26L187.25,310.74L188.26,312.55L189.27,312.01L192.31,311.2L193.32,311.42L194.33,311.57L195.34,309.16L196.36,311.09L197.37,310.63L199.39,310.69L200.4,309.92L201.42,311.35L202.43,310.49L204.45,311.22L205.47,311.5L206.48,309.55L207.49,310.26L209.51,311.51L210.53,312.25L211.54,310.34L212.55,310.39L213.56,310.54L214.57,311.53L216.6,311.68L217.61,312.39L218.62,310.9L219.64,311.02L221.66,310.51L222.67,310.96L227.73,311.33L228.74,310.96L229.76,311.85L230.77,310.67L233.81,310.53L234.82,309.43L236.84,311.34L237.85,311.29L238.87,310.39L239.88,311.66L240.89,310.7L241.9,310.83L244.94,311.47L245.95,310.83L248.99,311.05L250,310.11L251.01,311.44L252.02,311.12L254.05,310.73L255.06,311.57L261.13,310.9L262.15,311.25L263.16,309.43L264.17,310.86L265.18,310.72L266.19,311.46L267.21,309.54L268.22,310.44L269.23,311.46L270.24,311.23L273.28,311.59L274.29,310.23L275.3,310.89L276.32,310.64L278.34,310.51L279.35,310.16L281.38,310.85L282.39,310.67L283.4,311.79L284.41,310.84L285.43,310.34L286.44,311.11L293.52,311.11L294.53,311.21L295.55,310.56L296.56,311.34L297.57,310.92L298.58,311.34L300.61,310.75L301.62,310.04L304.66,311.17L305.67,311.15L306.68,310.6L307.69,311.44L308.7,310.43L309.72,311.64L311.74,310.61L312.75,311.89L314.78,311.37L315.79,311.32L316.8,310.9L317.81,311.4L322.87,311.38L323.89,310.95L324.9,311L325.91,310.28L328.95,311.17L329.96,310.55L330.97,310.47L331.98,312.06L337.04,310.37L338.06,310.26L339.07,311.08L340.08,310.89L344.13,310.6L345.14,311.48L346.15,310.47L347.17,310.93L348.18,310.58L349.19,311.36L352.23,310.63L353.24,311.34L354.25,309.73L355.26,310.51L357.29,311.43L358.3,310.8L360.32,310.77L361.34,311.73L366.4,310.49L367.41,310.91L368.42,311.39L369.43,310.77L371.46,310.83L372.47,310.71L378.54,311.55L379.55,310.59L380.57,311.37L381.58,310.69L384.62,311.62L385.63,311.39L387.65,311.03L388.66,311.03L390.69,311.34L391.7,310.46L393.72,311.32L394.74,310.4L397.77,311.58L398.79,310.71L399.8,310.93L400.81,310.29L401.82,311.06L402.83,310.54L403.85,311.24L404.86,310.71L410.93,310.86L411.94,310.83L415.99,310.98L417,311.83L418.02,310.88L419.03,311.32L422.06,310.83L423.08,311.35L436.23,310.92L437.25,311.31L439.27,311.21L440.28,311.21L442.31,311.08L443.32,311.57L445.34,311.04L446.36,311.18L452.43,310.93L453.44,311.73L454.45,310.84L455.47,311.09L459.51,310.95L460.53,311L464.57,311.11L465.59,311.07L468.62,312.15L469.64,311.4L471.66,311.61L472.67,310.71L474.7,310.96L475.71,311.54L487.85,310.6L488.87,311.4L492.91,310.74L493.93,311.2L500,311.01" style="vector-effect: non-scaling-stroke; fill: none; stroke: rgb(255, 127, 14); stroke-opacity: 1; stroke-width: 2px; opacity: 1;"/><g class="points"/></g></g></g><g class="overplot"/><path class="xlines-above crisp" d="M0,0" style="fill: none;"/><path class="ylines-above crisp" d="M0,0" style="fill: none;"/><g class="overlines-above"/><g class="xaxislayer-above"><g class="xtick"><text text-anchor="middle" x="0" y="403" transform="translate(60,0)" style="font-family: 'Open Sans', verdana, arial, sans-serif; font-size: 12px; fill: rgb(68, 68, 68); fill-opacity: 1; white-space: pre;">0</text></g><g class="xtick"><text text-anchor="middle" x="0" y="403" transform="translate(139.07,0)" style="font-family: 'Open Sans', verdana, arial, sans-serif; font-size: 12px; fill: rgb(68, 68, 68); fill-opacity: 1; white-space: pre;">5k</text></g><g class="xtick"><text text-anchor="middle" x="0" y="403" transform="translate(218.15,0)" style="font-family: 'Open Sans', verdana, arial, sans-serif; font-size: 12px; fill: rgb(68, 68, 68); fill-opacity: 1; white-space: pre;">10k</text></g><g class="xtick"><text text-anchor="middle" x="0" y="403" transform="translate(297.22,0)" style="font-family: 'Open Sans', verdana, arial, sans-serif; font-size: 12px; fill: rgb(68, 68, 68); fill-opacity: 1; white-space: pre;">15k</text></g><g class="xtick"><text text-anchor="middle" x="0" y="403" transform="translate(376.3,0)" style="font-family: 'Open Sans', verdana, arial, sans-serif; font-size: 12px; fill: rgb(68, 68, 68); fill-opacity: 1; white-space: pre;">20k</text></g><g class="xtick"><text text-anchor="middle" x="0" y="403" transform="translate(455.37,0)" style="font-family: 'Open Sans', verdana, arial, sans-serif; font-size: 12px; fill: rgb(68, 68, 68); fill-opacity: 1; white-space: pre;">25k</text></g><g class="xtick"><text text-anchor="middle" x="0" y="403" transform="translate(534.44,0)" style="font-family: 'Open Sans', verdana, arial, sans-serif; font-size: 12px; fill: rgb(68, 68, 68); fill-opacity: 1; white-space: pre;">30k</text></g></g><g class="yaxislayer-above"><g class="ytick"><text text-anchor="end" x="59" y="4.199999999999999" transform="translate(0,373.5)" style="font-family: 'Open Sans', verdana, arial, sans-serif; font-size: 12px; fill: rgb(68, 68, 68); fill-opacity: 1; white-space: pre;">0</text></g><g class="ytick"><text text-anchor="end" x="59" y="4.199999999999999" transform="translate(0,312.03999999999996)" style="font-family: 'Open Sans', verdana, arial, sans-serif; font-size: 12px; fill: rgb(68, 68, 68); fill-opacity: 1; white-space: pre;">200</text></g><g class="ytick"><text text-anchor="end" x="59" y="4.199999999999999" transform="translate(0,250.58)" style="font-family: 'Open Sans', verdana, arial, sans-serif; font-size: 12px; fill: rgb(68, 68, 68); fill-opacity: 1; white-space: pre;">400</text></g><g class="ytick"><text text-anchor="end" x="59" y="4.199999999999999" transform="translate(0,189.13)" style="font-family: 'Open Sans', verdana, arial, sans-serif; font-size: 12px; fill: rgb(68, 68, 68); fill-opacity: 1; white-space: pre;">600</text></g><g class="ytick"><text text-anchor="end" x="59" y="4.199999999999999" transform="translate(0,127.67)" style="font-family: 'Open Sans', verdana, arial, sans-serif; font-size: 12px; fill: rgb(68, 68, 68); fill-opacity: 1; white-space: pre;">800</text></g><g class="ytick"><text text-anchor="end" x="59" y="4.199999999999999" transform="translate(0,66.21)" style="font-family: 'Open Sans', verdana, arial, sans-serif; font-size: 12px; fill: rgb(68, 68, 68); fill-opacity: 1; white-space: pre;">1000</text></g></g><g class="overaxes-above"/></g></g><g class="polarlayer"/><g class="ternarylayer"/><g class="geolayer"/><g class="pielayer"/><g class="glimages"/><defs id="topdefs-5c7843"><g class="clips"/><clipPath id="legend5c7843"><rect width="118" height="48" x="0" y="0"/></clipPath></defs><g class="layer-above"><g class="imagelayer"/><g class="shapelayer"/></g><g class="infolayer"><g class="legend" pointer-events="all" transform="translate(570, 60)"><rect class="bg" shape-rendering="crispEdges" width="118" height="48" x="0" y="0" style="stroke: rgb(68, 68, 68); stroke-opacity: 1; fill: rgb(255, 255, 255); fill-opacity: 1; stroke-width: 0px;"/><g class="scrollbox" transform="translate(0, 0)" clip-path="url(#legend5c7843)"><g class="groups"><g class="traces" transform="translate(0, 14.5)" style="opacity: 1;"><g class="layers" style="opacity: 1;"><g class="legendfill"/><g class="legendlines"><path class="js-line" d="M5,0h30" style="fill: none; stroke: rgb(31, 119, 180); stroke-opacity: 1; stroke-width: 2px;"/></g><g class="legendsymbols"><g class="legendpoints"/></g></g><text class="legendtext user-select-none" text-anchor="start" x="40" y="4.680000000000001" style="font-family: 'Open Sans', verdana, arial, sans-serif; font-size: 12px; fill: rgb(68, 68, 68); fill-opacity: 1; white-space: pre;">Discriminator</text><rect class="legendtoggle" pointer-events="all" x="0" y="-9.5" width="158" height="19" style="cursor: pointer; fill: rgb(0, 0, 0); fill-opacity: 0;"/></g><g class="traces" transform="translate(0, 33.5)" style="opacity: 1;"><g class="layers" style="opacity: 1;"><g class="legendfill"/><g class="legendlines"><path class="js-line" d="M5,0h30" style="fill: none; stroke: rgb(255, 127, 14); stroke-opacity: 1; stroke-width: 2px;"/></g><g class="legendsymbols"><g class="legendpoints"/></g></g><text class="legendtext user-select-none" text-anchor="start" x="40" y="4.680000000000001" style="font-family: 'Open Sans', verdana, arial, sans-serif; font-size: 12px; fill: rgb(68, 68, 68); fill-opacity: 1; white-space: pre;">Generator</text><rect class="legendtoggle" pointer-events="all" x="0" y="-9.5" width="158" height="19" style="cursor: pointer; fill: rgb(0, 0, 0); fill-opacity: 0;"/></g></g></g><rect class="scrollbar" rx="20" ry="3" width="0" height="0" x="0" y="0" style="fill: rgb(128, 139, 164); fill-opacity: 1;"/></g><g class="g-gtitle"><text class="gtitle" x="350" y="30" text-anchor="middle" style="font-family: 'Open Sans', verdana, arial, sans-serif; font-size: 17px; fill: rgb(68, 68, 68); opacity: 1; font-weight: normal; white-space: pre;">loss over time</text></g><g class="g-xtitle"><text class="xtitle" x="310" y="442" text-anchor="middle" style="font-family: 'Open Sans', verdana, arial, sans-serif; font-size: 14px; fill: rgb(68, 68, 68); opacity: 1; font-weight: normal; white-space: pre;">iteration</text></g><g class="g-ytitle"><text class="ytitle" transform="rotate(-90,22,225)" x="22" y="225" text-anchor="middle" style="font-family: 'Open Sans', verdana, arial, sans-serif; font-size: 14px; fill: rgb(68, 68, 68); opacity: 1; font-weight: normal; white-space: pre;">loss</text></g></g></svg>