<svg class="main-svg" xmlns="http://www.w3.org/2000/svg" xmlns:xlink="http://www.w3.org/1999/xlink" width="700" height="450" style="" viewBox="0 0 700 450"><rect x="0" y="0" width="700" height="450" style="fill: rgb(255, 255, 255); fill-opacity: 1;"/><defs id="defs-716c82"><g class="clips"><clipPath id="clip716c82xyplot" class="plotclip"><rect width="502" height="330"/></clipPath><clipPath class="axesclip" id="clip716c82x"><rect x="60" y="0" width="502" height="450"/></clipPath><clipPath class="axesclip" id="clip716c82y"><rect x="0" y="60" width="700" height="330"/></clipPath><clipPath class="axesclip" id="clip716c82xy"><rect x="60" y="60" width="502" height="330"/></clipPath></g><g class="gradients"/></defs><g class="bglayer"><rect class="bg" x="60" y="60" width="502" height="330" style="fill: rgb(255, 255, 255); fill-opacity: 1; stroke-width: 0;"/></g><g class="layer-below"><g class="imagelayer"/><g class="shapelayer"/></g><g class="cartesianlayer"><g class="subplot xy"><g class="layer-subplot"><g class="shapelayer"/><g class="imagelayer"/></g><g class="gridlayer"><g class="x"><path class="xgrid crisp" d="M0,60v330" transform="translate(147.59,0)" style="stroke: rgb(238, 238, 238); stroke-opacity: 1; stroke-width: 1px;"/><path class="xgrid crisp" d="M0,60v330" transform="translate(235.18,0)" style="stroke: rgb(238, 238, 238); stroke-opacity: 1; stroke-width: 1px;"/><path class="xgrid crisp" d="M0,60v330" transform="translate(322.77,0)" style="stroke: rgb(238, 238, 238); stroke-opacity: 1; stroke-width: 1px;"/><path class="xgrid crisp" d="M0,60v330" transform="translate(410.35,0)" style="stroke: rgb(238, 238, 238); stroke-opacity: 1; stroke-width: 1px;"/><path class="xgrid crisp" d="M0,60v330" transform="translate(497.94,0)" style="stroke: rgb(238, 238, 238); stroke-opacity: 1; stroke-width: 1px;"/></g><g class="y"><path class="ygrid crisp" d="M60,0h502" transform="translate(0,319.97)" style="stroke: rgb(238, 238, 238); stroke-opacity: 1; stroke-width: 1px;"/><path class="ygrid crisp" d="M60,0h502" transform="translate(0,254.14)" style="stroke: rgb(238, 238, 238); stroke-opacity: 1; stroke-width: 1px;"/><path class="ygrid crisp" d="M60,0h502" transform="translate(0,188.3)" style="stroke: rgb(238, 238, 238); stroke-opacity: 1; stroke-width: 1px;"/><path class="ygrid crisp" d="M60,0h502" transform="translate(0,122.46000000000001)" style="stroke: rgb(238, 238, 238); stroke-opacity: 1; stroke-width: 1px;"/></g></g><g class="zerolinelayer"><path class="xzl zl crisp" d="M0,60v330" transform="translate(60,0)" style="stroke: rgb(68, 68, 68); stroke-opacity: 1; stroke-width: 1px;"/><path class="yzl zl crisp" d="M60,0h502" transform="translate(0,385.81)" style="stroke: rgb(68, 68, 68); stroke-opacity: 1; stroke-width: 1px;"/></g><path class="xlines-below"/><path class="ylines-below"/><g class="overlines-below"/><g class="xaxislayer-below"/><g class="yaxislayer-below"/><g class="overaxes-below"/><g class="plot" transform="translate(60, 60)" clip-path="url(#clip716c82xyplot)"><g class="scatterlayer mlayer"><g class="trace scatter traceb9c82e" style="stroke-miterlimit: 2; opacity: 1;"><path class="js-line" d="M0,17.81L2.99,170.08L5.98,187.01L11.95,229.27L14.94,245.29L17.93,239.64L20.92,272.45L23.9,280.41L26.89,274.35L29.88,284.8L32.87,279.83L35.86,302.58L38.85,295.97L41.83,308.9L44.82,289.97L47.81,308.87L50.8,305.84L53.79,279.94L56.77,313.5L59.76,292.19L62.75,311.22L65.74,312.06L68.73,303.67L74.7,286.4L77.69,272.2L80.68,236.25L83.67,278.97L86.65,257.22L89.64,268.31L92.63,244.06L95.62,256.76L98.61,269.79L101.6,258.5L104.58,244.21L107.57,236.05L110.56,232.14L113.55,251.85L116.54,254.11L119.52,231.2L122.51,240.26L125.5,244.48L128.49,228.7L131.48,248.93L134.46,229.13L137.45,182.54L140.44,267.36L143.43,259.79L146.42,239.85L149.4,231.17L152.39,239.57L155.38,239.32L158.37,227.87L161.36,242.07L164.35,245.3L167.33,270.83L170.32,261.22L173.31,228.27L176.3,253.52L179.29,258.81L182.27,260.93L185.26,253.71L188.25,249.36L191.24,249.92L194.23,258.91L197.21,226.5L203.19,254.78L206.18,228.03L209.17,263.9L212.15,187.01L218.13,252.12L221.12,273.92L224.11,235.16L227.1,249.46L230.08,262.34L233.07,236.23L239.05,258.25L242.04,240.84L245.02,248.69L248.01,262.08L251,234.49L253.99,256.34L256.98,236.67L259.96,246.31L262.95,241.6L265.94,252.2L268.93,249.8L271.92,242.57L274.9,240.87L277.89,261.81L280.88,239.16L283.87,229.35L286.86,248.71L289.85,261.29L292.83,253.48L295.82,235.63L298.81,233.76L301.8,250.61L304.79,242.45L307.77,250.16L310.76,234.09L313.75,203.56L316.74,224.21L319.73,230.96L322.71,235.04L325.7,249.09L328.69,248.32L331.68,241.48L334.67,240.58L337.65,235.88L340.64,244.2L343.63,221.3L346.62,255.83L349.61,207.5L352.6,205.6L355.58,211.9L358.57,241.52L361.56,219.16L364.55,216.94L367.54,220.29L370.52,242.41L373.51,227.23L379.49,238.51L382.48,254.57L385.46,250.59L388.45,231.67L391.44,235.95L394.43,246.92L397.42,253.2L400.4,222.17L403.39,246.74L406.38,252.24L412.36,244.92L415.35,235.58L418.33,240.04L421.32,239.77L424.31,226.6L427.3,261.2L430.29,255.8L433.27,235.15L436.26,216.56L439.25,242.39L442.24,248.57L445.23,224.98L448.21,230.38L451.2,251.88L454.19,248.85L457.18,228.39L460.17,263.23L463.15,237.93L466.14,259.03L469.13,243.75L472.12,266.3L475.11,270.93L478.1,220.9L481.08,243.22L484.07,233.64L487.06,253.53L490.05,223.33L493.04,239.18L496.02,267.13L499.01,258.18L502,237.23" style="vector-effect: non-scaling-stroke; fill: none; stroke: rgb(31, 119, 180); stroke-opacity: 1; stroke-width: 2px; opacity: 1;"/><g class="points"/></g><g class="trace scatter traceef091e" style="stroke-miterlimit: 2; opacity: 1;"><path class="js-line" d="M0,116.79L2.99,210.61L5.98,197.73L8.96,181.96L11.95,157.9L14.94,150.84L17.93,129.45L20.92,122.74L23.9,113.82L26.89,87.99L29.88,89.74L32.87,81.04L35.86,62.73L38.85,67.31L41.83,67.67L44.82,65.39L47.81,50.42L50.8,39.26L53.79,47.93L56.77,22.21L59.76,50.81L62.75,16.5L65.74,20.65L71.71,47.3L74.7,105.56L77.69,141.67L80.68,122.8L83.67,143.02L86.65,112.57L89.64,113.03L92.63,110.87L98.61,145.48L101.6,136.23L104.58,137.17L107.57,145.26L110.56,134.33L113.55,163.54L116.54,122.58L119.52,118.73L125.5,164.14L128.49,176.13L131.48,154.89L134.46,151.58L137.45,116.83L140.44,143.04L143.43,159.85L146.42,136.49L149.4,112.84L152.39,153.3L158.37,93.92L161.36,149.04L164.35,150.45L167.33,117.88L170.32,93.74L173.31,111.49L176.3,120.94L179.29,136.76L182.27,154.12L185.26,136.75L188.25,178.8L191.24,95.97L197.21,134.11L200.2,117.23L203.19,116.26L206.18,141.35L209.17,104.21L212.15,141.64L215.14,164.76L218.13,116.23L221.12,154.04L224.11,134.74L227.1,161.15L230.08,122.52L233.07,145.87L236.06,148.02L239.05,130.28L242.04,165.19L245.02,147.79L248.01,125.09L251,139.91L253.99,166.74L256.98,113.01L259.96,159.43L262.95,144.49L265.94,95.44L268.93,121.1L271.92,129.84L274.9,114.1L277.89,85.39L280.88,103.2L283.87,163.71L286.86,113.58L289.85,104.67L292.83,109.33L295.82,128.51L298.81,171.6L301.8,161.04L304.79,161.99L307.77,170.21L310.76,140.56L313.75,135.25L316.74,139.57L319.73,84.58L322.71,141.79L325.7,136.06L328.69,97.84L331.68,147.84L334.67,136.87L337.65,134.02L340.64,78.46L343.63,81.06L346.62,122.48L349.61,151.58L352.6,112.39L355.58,114.66L358.57,155.35L361.56,125.18L364.55,110.28L367.54,139.62L370.52,89.12L373.51,110.82L376.5,94.05L379.49,145.99L382.48,147.8L385.46,164.57L388.45,129.72L391.44,128.28L394.43,88.42L397.42,147.9L400.4,126.47L403.39,164.73L406.38,133.6L409.37,135.54L412.36,165.65L415.35,139.44L418.33,137.37L421.32,141.31L424.31,129.68L427.3,162.23L430.29,117.28L433.27,122.31L436.26,118.67L439.25,131.12L442.24,125.6L445.23,166.17L448.21,120.69L451.2,125.65L454.19,110.73L457.18,125.47L460.17,135.67L463.15,87.23L466.14,121.64L469.13,141L472.12,139.8L475.11,123.86L478.1,149.1L481.08,181.13L484.07,120.27L487.06,133.31L490.05,142.78L493.04,145.01L496.02,137.97L499.01,153.85L502,122.58" style="vector-effect: non-scaling-stroke; fill: none; stroke: rgb(255, 127, 14); stroke-opacity: 1; stroke-width: 2px; opacity: 1;"/><g class="points"/></g></g></g><g class="overplot"/><path class="xlines-above crisp" d="M0,0" style="fill: none;"/><path class="ylines-above crisp" d="M0,0" style="fill: none;"/><g class="overlines-above"/><g class="xaxislayer-above"><g class="xtick"><text text-anchor="middle" x="0" y="403" transform="translate(60,0)" style="font-family: 'Open Sans', verdana, arial, sans-serif; font-size: 12px; fill: rgb(68, 68, 68); fill-opacity: 1; white-space: pre;">0</text></g><g class="xtick"><text text-anchor="middle" x="0" y="403" transform="translate(147.59,0)" style="font-family: 'Open Sans', verdana, arial, sans-serif; font-size: 12px; fill: rgb(68, 68, 68); fill-opacity: 1; white-space: pre;">2</text></g><g class="xtick"><text text-anchor="middle" x="0" y="403" transform="translate(235.18,0)" style="font-family: 'Open Sans', verdana, arial, sans-serif; font-size: 12px; fill: rgb(68, 68, 68); fill-opacity: 1; white-space: pre;">4</text></g><g class="xtick"><text text-anchor="middle" x="0" y="403" transform="translate(322.77,0)" style="font-family: 'Open Sans', verdana, arial, sans-serif; font-size: 12px; fill: rgb(68, 68, 68); fill-opacity: 1; white-space: pre;">6</text></g><g class="xtick"><text text-anchor="middle" x="0" y="403" transform="translate(410.35,0)" style="font-family: 'Open Sans', verdana, arial, sans-serif; font-size: 12px; fill: rgb(68, 68, 68); fill-opacity: 1; white-space: pre;">8</text></g><g class="xtick"><text text-anchor="middle" x="0" y="403" transform="translate(497.94,0)" style="font-family: 'Open Sans', verdana, arial, sans-serif; font-size: 12px; fill: rgb(68, 68, 68); fill-opacity: 1; white-space: pre;">10</text></g></g><g class="yaxislayer-above"><g class="ytick"><text text-anchor="end" x="59" y="4.199999999999999" transform="translate(0,385.81)" style="font-family: 'Open Sans', verdana, arial, sans-serif; font-size: 12px; fill: rgb(68, 68, 68); fill-opacity: 1; white-space: pre;">0</text></g><g class="ytick"><text text-anchor="end" x="59" y="4.199999999999999" transform="translate(0,319.97)" style="font-family: 'Open Sans', verdana, arial, sans-serif; font-size: 12px; fill: rgb(68, 68, 68); fill-opacity: 1; white-space: pre;">0.1</text></g><g class="ytick"><text text-anchor="end" x="59" y="4.199999999999999" transform="translate(0,254.14)" style="font-family: 'Open Sans', verdana, arial, sans-serif; font-size: 12px; fill: rgb(68, 68, 68); fill-opacity: 1; white-space: pre;">0.2</text></g><g class="ytick"><text text-anchor="end" x="59" y="4.199999999999999" transform="translate(0,188.3)" style="font-family: 'Open Sans', verdana, arial, sans-serif; font-size: 12px; fill: rgb(68, 68, 68); fill-opacity: 1; white-space: pre;">0.3</text></g><g class="ytick"><text text-anchor="end" x="59" y="4.199999999999999" transform="translate(0,122.46000000000001)" style="font-family: 'Open Sans', verdana, arial, sans-serif; font-size: 12px; fill: rgb(68, 68, 68); fill-opacity: 1; white-space: pre;">0.4</text></g></g><g class="overaxes-above"/></g></g><g class="polarlayer"/><g class="ternarylayer"/><g class="geolayer"/><g class="pielayer"/><g class="glimages"/><defs id="topdefs-716c82"><g class="clips"/><clipPath id="legend716c82"><rect width="116" height="48" x="0" y="0"/></clipPath></defs><g class="layer-above"><g class="imagelayer"/><g class="shapelayer"/></g><g class="infolayer"><g class="legend" pointer-events="all" transform="translate(572.04, 60)"><rect class="bg" shape-rendering="crispEdges" width="116" height="48" x="0" y="0" style="stroke: rgb(68, 68, 68); stroke-opacity: 1; fill: rgb(255, 255, 255); fill-opacity: 1; stroke-width: 0px;"/><g class="scrollbox" transform="translate(0, 0)" clip-path="url(#legend716c82)"><g class="groups"><g class="traces" transform="translate(0, 14.5)" style="opacity: 1;"><g class="layers" style="opacity: 1;"><g class="legendfill"/><g class="legendlines"><path class="js-line" d="M5,0h30" style="fill: none; stroke: rgb(31, 119, 180); stroke-opacity: 1; stroke-width: 2px;"/></g><g class="legendsymbols"><g class="legendpoints"/></g></g><text class="legendtext user-select-none" text-anchor="start" x="40" y="4.680000000000001" style="font-family: 'Open Sans', verdana, arial, sans-serif; font-size: 12px; fill: rgb(68, 68, 68); fill-opacity: 1; white-space: pre;">Discriminator</text><rect class="legendtoggle" pointer-events="all" x="0" y="-9.5" width="156" height="19" style="cursor: pointer; fill: rgb(0, 0, 0); fill-opacity: 0;"/></g><g class="traces" transform="translate(0, 33.5)" style="opacity: 1;"><g class="layers" style="opacity: 1;"><g class="legendfill"/><g class="legendlines"><path class="js-line" d="M5,0h30" style="fill: none; stroke: rgb(255, 127, 14); stroke-opacity: 1; stroke-width: 2px;"/></g><g class="legendsymbols"><g class="legendpoints"/></g></g><text class="legendtext user-select-none" text-anchor="start" x="40" y="4.680000000000001" style="font-family: 'Open Sans', verdana, arial, sans-serif; font-size: 12px; fill: rgb(68, 68, 68); fill-opacity: 1; white-space: pre;">Generator</text><rect class="legendtoggle" pointer-events="all" x="0" y="-9.5" width="156" height="19" style="cursor: pointer; fill: rgb(0, 0, 0); fill-opacity: 0;"/></g></g></g><rect class="scrollbar" rx="20" ry="3" width="0" height="0" x="0" y="0" style="fill: rgb(128, 139, 164); fill-opacity: 1;"/></g><g class="g-gtitle"><text class="gtitle" x="350" y="30" text-anchor="middle" style="font-family: 'Open Sans', verdana, arial, sans-serif; font-size: 17px; fill: rgb(68, 68, 68); opacity: 1; font-weight: normal; white-space: pre;">loss over time</text></g><g class="g-xtitle"><text class="xtitle" x="311" y="442" text-anchor="middle" style="font-family: 'Open Sans', verdana, arial, sans-serif; font-size: 14px; fill: rgb(68, 68, 68); opacity: 1; font-weight: normal; white-space: pre;">epoch</text></g><g class="g-ytitle"><text class="ytitle" transform="rotate(-90,22,225)" x="22" y="225" text-anchor="middle" style="font-family: 'Open Sans', verdana, arial, sans-serif; font-size: 14px; fill: rgb(68, 68, 68); opacity: 1; font-weight: normal; white-space: pre;">loss</text></g></g></svg>