<svg class="main-svg" xmlns="http://www.w3.org/2000/svg" xmlns:xlink="http://www.w3.org/1999/xlink" width="700" height="450" style="" viewBox="0 0 700 450"><rect x="0" y="0" width="700" height="450" style="fill: rgb(255, 255, 255); fill-opacity: 1;"/><defs id="defs-057a7b"><g class="clips"><clipPath id="clip057a7bxyplot" class="plotclip"><rect width="501" height="330"/></clipPath><clipPath class="axesclip" id="clip057a7bx"><rect x="60" y="0" width="501" height="450"/></clipPath><clipPath class="axesclip" id="clip057a7by"><rect x="0" y="60" width="700" height="330"/></clipPath><clipPath class="axesclip" id="clip057a7bxy"><rect x="60" y="60" width="501" height="330"/></clipPath></g><g class="gradients"/></defs><g class="bglayer"><rect class="bg" x="60" y="60" width="501" height="330" style="fill: rgb(255, 255, 255); fill-opacity: 1; stroke-width: 0;"/></g><g class="layer-below"><g class="imagelayer"/><g class="shapelayer"/></g><g class="cartesianlayer"><g class="subplot xy"><g class="layer-subplot"><g class="shapelayer"/><g class="imagelayer"/></g><g class="gridlayer"><g class="x"><path class="xgrid crisp" d="M0,60v330" transform="translate(130.94,0)" style="stroke: rgb(238, 238, 238); stroke-opacity: 1; stroke-width: 1px;"/><path class="xgrid crisp" d="M0,60v330" transform="translate(201.89,0)" style="stroke: rgb(238, 238, 238); stroke-opacity: 1; stroke-width: 1px;"/><path class="xgrid crisp" d="M0,60v330" transform="translate(272.83000000000004,0)" style="stroke: rgb(238, 238, 238); stroke-opacity: 1; stroke-width: 1px;"/><path class="xgrid crisp" d="M0,60v330" transform="translate(343.78,0)" style="stroke: rgb(238, 238, 238); stroke-opacity: 1; stroke-width: 1px;"/><path class="xgrid crisp" d="M0,60v330" transform="translate(414.72,0)" style="stroke: rgb(238, 238, 238); stroke-opacity: 1; stroke-width: 1px;"/><path class="xgrid crisp" d="M0,60v330" transform="translate(485.67,0)" style="stroke: rgb(238, 238, 238); stroke-opacity: 1; stroke-width: 1px;"/><path class="xgrid crisp" d="M0,60v330" transform="translate(556.61,0)" style="stroke: rgb(238, 238, 238); stroke-opacity: 1; stroke-width: 1px;"/></g><g class="y"><path class="ygrid crisp" d="M60,0h501" transform="translate(0,334.44)" style="stroke: rgb(238, 238, 238); stroke-opacity: 1; stroke-width: 1px;"/><path class="ygrid crisp" d="M60,0h501" transform="translate(0,261.94)" style="stroke: rgb(238, 238, 238); stroke-opacity: 1; stroke-width: 1px;"/><path class="ygrid crisp" d="M60,0h501" transform="translate(0,189.44)" style="stroke: rgb(238, 238, 238); stroke-opacity: 1; stroke-width: 1px;"/><path class="ygrid crisp" d="M60,0h501" transform="translate(0,116.95)" style="stroke: rgb(238, 238, 238); stroke-opacity: 1; stroke-width: 1px;"/></g></g><g class="zerolinelayer"><path class="xzl zl crisp" d="M0,60v330" transform="translate(60,0)" style="stroke: rgb(68, 68, 68); stroke-opacity: 1; stroke-width: 1px;"/></g><path class="xlines-below"/><path class="ylines-below"/><g class="overlines-below"/><g class="xaxislayer-below"/><g class="yaxislayer-below"/><g class="overaxes-below"/><g class="plot" transform="translate(60, 60)" clip-path="url(#clip057a7bxyplot)"><g class="scatterlayer mlayer"><g class="trace scatter traceb33d58" style="stroke-miterlimit: 2; opacity: 1;"><path class="js-line" d="M0,244.51L2.42,265.96L4.84,278.46L7.26,278.91L9.68,290.03L12.1,282.48L14.52,267.55L16.94,268.72L19.36,265.58L21.78,264.58L24.2,258.63L29.04,259.04L31.46,260.74L33.88,251.82L36.3,257.2L38.72,254.39L41.14,256.6L43.57,255.21L45.99,250.2L48.41,252.09L50.83,251.03L53.25,256.11L55.67,256.54L58.09,259.98L60.51,256.49L62.93,253.27L65.35,253.47L67.77,252.78L70.19,255.47L72.61,255.71L75.03,255.18L77.45,258.54L79.87,251.07L82.29,254.44L84.71,256.1L87.13,251.68L89.55,254.53L91.97,256.76L94.39,253.8L96.81,247.86L99.23,254.73L101.65,253.7L104.07,257.73L106.49,255.85L108.91,256.4L111.33,256.67L113.75,249.56L116.17,261.17L118.59,257.81L121.01,251.53L123.43,250.87L125.86,254.75L128.28,250.72L130.7,253.53L133.12,263.48L135.54,256.19L137.96,255.01L140.38,259.31L142.8,259.41L147.64,257.58L150.06,254.74L152.48,255.12L154.9,257.12L157.32,260.2L159.74,256.17L162.16,257.78L164.58,250.63L167,257.16L169.42,252.29L171.84,263.69L174.26,261.94L176.68,259.56L179.1,263.57L181.52,259.71L183.94,261.81L186.36,255.08L188.78,253.65L191.2,259.56L193.62,258.12L196.04,258.33L198.46,254.76L200.88,256.63L203.3,266.18L205.72,257.11L208.14,268.67L210.57,262.79L212.99,262.01L215.41,264.22L217.83,260.94L220.25,268.11L222.67,260.98L225.09,260.99L227.51,267.15L229.93,271.61L232.35,269.75L234.77,263.41L237.19,264.28L239.61,273.17L242.03,266.94L244.45,273.31L246.87,270.12L249.29,265.17L251.71,263.46L256.55,271.74L258.97,261.78L261.39,274.16L263.81,267.43L266.23,262.77L268.65,255.2L271.07,266.91L273.49,273.15L275.91,267.35L278.33,272.03L280.75,271.18L283.17,261.14L285.59,279.67L288.01,279.81L290.43,274.63L292.86,273.61L295.28,272.3L297.7,273.58L300.12,275.63L302.54,274.15L304.96,281.78L307.38,274.92L309.8,268.34L312.22,272.03L314.64,268.67L317.06,282.54L319.48,282.03L321.9,274.87L324.32,275.71L326.74,285.81L329.16,273.31L331.58,280.47L334,293.47L336.42,278.56L341.26,276.49L343.68,278.52L348.52,263.56L350.94,281.2L353.36,277.38L355.78,295.06L358.2,279.89L360.62,285.05L363.04,289.55L365.46,289.27L367.88,290.65L370.3,283.78L372.72,289.78L375.14,275.04L377.57,281.94L379.99,273.19L382.41,287.33L384.83,283.43L387.25,287.9L389.67,277.97L392.09,292.77L394.51,284.62L396.93,279.64L399.35,285.93L404.19,280.96L406.61,288.4L409.03,295.81L411.45,297.09L413.87,304.48L416.29,280.61L418.71,298.49L421.13,309.31L423.55,290.88L425.97,300.9L428.39,291.95L430.81,299.37L433.23,281.8L435.65,299.62L438.07,281.09L440.49,283.92L442.91,292.42L445.33,295.56L447.75,290.97L450.17,291.48L452.59,291.46L455.01,295.9L457.43,291.12L459.86,296.18L462.28,302.1L464.7,290.64L467.12,293.97L469.54,300.98L471.96,295.95L474.38,298.94L476.8,283.11L479.22,302.26L481.64,289.94L484.06,292.52L486.48,296.04L488.9,297.38L491.32,296.34L493.74,307.4L496.16,297.52L498.58,296.87L501,296.95" style="vector-effect: non-scaling-stroke; fill: none; stroke: rgb(31, 119, 180); stroke-opacity: 1; stroke-width: 2px; opacity: 1;"/><g class="points"/></g><g class="trace scatter trace9578c0" style="stroke-miterlimit: 2; opacity: 1;"><path class="js-line" d="M0,249.43L2.42,313.5L4.84,228.54L7.26,175.01L9.68,179.08L12.1,208.21L14.52,213.27L16.94,228.81L19.36,229.99L24.2,241.99L26.62,240.14L29.04,242.92L31.46,235.35L33.88,241.08L36.3,244.04L38.72,240.08L41.14,243.74L43.57,245.93L45.99,252.66L48.41,243.35L50.83,242.35L53.25,251.23L55.67,243.02L58.09,250.47L60.51,253.21L62.93,246.12L65.35,250.85L67.77,257.14L70.19,247.22L72.61,245.93L75.03,246.71L77.45,249.1L79.87,250.08L82.29,243.85L84.71,247.68L87.13,248.8L89.55,251.58L91.97,251.52L94.39,244.25L99.23,253.88L101.65,238.97L104.07,253.97L106.49,250.81L108.91,243.5L111.33,251.21L113.75,243.12L116.17,248.15L118.59,246.03L121.01,251.05L123.43,241.23L125.86,241.61L128.28,235.36L130.7,247.9L133.12,233.85L135.54,246.44L137.96,252.61L140.38,250.98L142.8,234.06L145.22,233.69L147.64,230.93L150.06,241.56L152.48,244.65L154.9,231.4L157.32,241.46L159.74,241.81L162.16,247.94L164.58,224.45L167,227.83L169.42,226.64L171.84,230.82L174.26,242.7L176.68,236.35L179.1,233.47L181.52,240.96L183.94,230.44L186.36,210.92L188.78,238.23L191.2,231.78L193.62,251.94L196.04,245.33L198.46,219.16L200.88,239.03L203.3,218.83L205.72,231.09L208.14,229.49L210.57,220.84L212.99,233.87L215.41,225.31L217.83,263.5L220.25,229.2L222.67,222.7L225.09,235.74L227.51,232.14L229.93,218.8L232.35,237.11L234.77,228.73L237.19,236.03L239.61,209.32L242.03,221.74L244.45,235.9L246.87,216.16L249.29,188.78L251.71,218.88L254.13,240.75L256.55,209L258.97,227.02L261.39,224.5L263.81,221.93L266.23,239.79L271.07,203.69L273.49,217.89L275.91,231.67L278.33,216.22L280.75,205.74L283.17,203.43L285.59,209.71L288.01,189.64L290.43,187.3L292.86,229.79L295.28,207.15L297.7,201.69L300.12,172.16L302.54,174.57L304.96,200.88L307.38,218.48L309.8,175.05L312.22,156.76L314.64,159.19L317.06,202.73L319.48,178.84L321.9,206.52L324.32,221.77L326.74,154.23L329.16,190.56L331.58,183.57L334,147.97L336.42,181.1L338.84,172.52L341.26,192.81L343.68,175.36L346.1,190.77L348.52,176.53L350.94,210.79L353.36,175.43L355.78,162.7L358.2,219.04L360.62,203.26L363.04,204.62L365.46,165.66L367.88,141.84L370.3,183.06L372.72,170.22L375.14,251.39L377.57,149.64L379.99,176.64L382.41,146.95L384.83,127.18L387.25,169.98L389.67,195.58L392.09,163.31L394.51,151.81L396.93,52.01L399.35,128.98L401.77,105.43L404.19,127.97L406.61,157.48L409.03,131.27L411.45,169.16L413.87,228.99L416.29,157.81L418.71,208.28L421.13,162.97L423.55,174.19L425.97,77.68L428.39,101.56L430.81,77.64L433.23,224.95L435.65,130.9L438.07,206.82L440.49,108.33L442.91,211.46L445.33,84.79L447.75,180.5L450.17,128.05L452.59,175.47L455.01,186.11L457.43,138.68L459.86,55.35L462.28,74.91L464.7,55.28L467.12,133.36L469.54,62.1L471.96,17.24L474.38,185.76L476.8,16.5L479.22,76.41L481.64,111.13L484.06,83.96L486.48,199.97L488.9,147.3L491.32,166.25L493.74,127.57L496.16,72.06L498.58,119.82L501,98.69" style="vector-effect: non-scaling-stroke; fill: none; stroke: rgb(255, 127, 14); stroke-opacity: 1; stroke-width: 2px; opacity: 1;"/><g class="points"/></g></g></g><g class="overplot"/><path class="xlines-above crisp" d="M0,0" style="fill: none;"/><path class="ylines-above crisp" d="M0,0" style="fill: none;"/><g class="overlines-above"/><g class="xaxislayer-above"><g class="xtick"><text text-anchor="middle" x="0" y="403" transform="translate(60,0)" style="font-family: 'Open Sans', verdana, arial, sans-serif; font-size: 12px; fill: rgb(68, 68, 68); fill-opacity: 1; white-space: pre;">0</text></g><g class="xtick"><text text-anchor="middle" x="0" y="403" transform="translate(130.94,0)" style="font-family: 'Open Sans', verdana, arial, sans-serif; font-size: 12px; fill: rgb(68, 68, 68); fill-opacity: 1; white-space: pre;">2</text></g><g class="xtick"><text text-anchor="middle" x="0" y="403" transform="translate(201.89,0)" style="font-family: 'Open Sans', verdana, arial, sans-serif; font-size: 12px; fill: rgb(68, 68, 68); fill-opacity: 1; white-space: pre;">4</text></g><g class="xtick"><text text-anchor="middle" x="0" y="403" transform="translate(272.83000000000004,0)" style="font-family: 'Open Sans', verdana, arial, sans-serif; font-size: 12px; fill: rgb(68, 68, 68); fill-opacity: 1; white-space: pre;">6</text></g><g class="xtick"><text text-anchor="middle" x="0" y="403" transform="translate(343.78,0)" style="font-family: 'Open Sans', verdana, arial, sans-serif; font-size: 12px; fill: rgb(68, 68, 68); fill-opacity: 1; white-space: pre;">8</text></g><g class="xtick"><text text-anchor="middle" x="0" y="403" transform="translate(414.72,0)" style="font-family: 'Open Sans', verdana, arial, sans-serif; font-size: 12px; fill: rgb(68, 68, 68); fill-opacity: 1; white-space: pre;">10</text></g><g class="xtick"><text text-anchor="middle" x="0" y="403" transform="translate(485.67,0)" style="font-family: 'Open Sans', verdana, arial, sans-serif; font-size: 12px; fill: rgb(68, 68, 68); fill-opacity: 1; white-space: pre;">12</text></g><g class="xtick"><text text-anchor="middle" x="0" y="403" transform="translate(556.61,0)" style="font-family: 'Open Sans', verdana, arial, sans-serif; font-size: 12px; fill: rgb(68, 68, 68); fill-opacity: 1; white-space: pre;">14</text></g></g><g class="yaxislayer-above"><g class="ytick"><text text-anchor="end" x="59" y="4.199999999999999" transform="translate(0,334.44)" style="font-family: 'Open Sans', verdana, arial, sans-serif; font-size: 12px; fill: rgb(68, 68, 68); fill-opacity: 1; white-space: pre;">0.5</text></g><g class="ytick"><text text-anchor="end" x="59" y="4.199999999999999" transform="translate(0,261.94)" style="font-family: 'Open Sans', verdana, arial, sans-serif; font-size: 12px; fill: rgb(68, 68, 68); fill-opacity: 1; white-space: pre;">1</text></g><g class="ytick"><text text-anchor="end" x="59" y="4.199999999999999" transform="translate(0,189.44)" style="font-family: 'Open Sans', verdana, arial, sans-serif; font-size: 12px; fill: rgb(68, 68, 68); fill-opacity: 1; white-space: pre;">1.5</text></g><g class="ytick"><text text-anchor="end" x="59" y="4.199999999999999" transform="translate(0,116.95)" style="font-family: 'Open Sans', verdana, arial, sans-serif; font-size: 12px; fill: rgb(68, 68, 68); fill-opacity: 1; white-space: pre;">2</text></g></g><g class="overaxes-above"/></g></g><g class="polarlayer"/><g class="ternarylayer"/><g class="geolayer"/><g class="pielayer"/><g class="glimages"/><defs id="topdefs-057a7b"><g class="clips"/><clipPath id="legend057a7b"><rect width="117" height="48" x="0" y="0"/></clipPath></defs><g class="layer-above"><g class="imagelayer"/><g class="shapelayer"/></g><g class="infolayer"><g class="legend" pointer-events="all" transform="translate(571.02, 60)"><rect class="bg" shape-rendering="crispEdges" width="117" height="48" x="0" y="0" style="stroke: rgb(68, 68, 68); stroke-opacity: 1; fill: rgb(255, 255, 255); fill-opacity: 1; stroke-width: 0px;"/><g class="scrollbox" transform="translate(0, 0)" clip-path="url(#legend057a7b)"><g class="groups"><g class="traces" transform="translate(0, 14.5)" style="opacity: 1;"><g class="layers" style="opacity: 1;"><g class="legendfill"/><g class="legendlines"><path class="js-line" d="M5,0h30" style="fill: none; stroke: rgb(31, 119, 180); stroke-opacity: 1; stroke-width: 2px;"/></g><g class="legendsymbols"><g class="legendpoints"/></g></g><text class="legendtext user-select-none" text-anchor="start" x="40" y="4.680000000000001" style="font-family: 'Open Sans', verdana, arial, sans-serif; font-size: 12px; fill: rgb(68, 68, 68); fill-opacity: 1; white-space: pre;">Discriminator</text><rect class="legendtoggle" pointer-events="all" x="0" y="-9.5" width="157" height="19" style="cursor: pointer; fill: rgb(0, 0, 0); fill-opacity: 0;"/></g><g class="traces" transform="translate(0, 33.5)" style="opacity: 1;"><g class="layers" style="opacity: 1;"><g class="legendfill"/><g class="legendlines"><path class="js-line" d="M5,0h30" style="fill: none; stroke: rgb(255, 127, 14); stroke-opacity: 1; stroke-width: 2px;"/></g><g class="legendsymbols"><g class="legendpoints"/></g></g><text class="legendtext user-select-none" text-anchor="start" x="40" y="4.680000000000001" style="font-family: 'Open Sans', verdana, arial, sans-serif; font-size: 12px; fill: rgb(68, 68, 68); fill-opacity: 1; white-space: pre;">Generator</text><rect class="legendtoggle" pointer-events="all" x="0" y="-9.5" width="157" height="19" style="cursor: pointer; fill: rgb(0, 0, 0); fill-opacity: 0;"/></g></g></g><rect class="scrollbar" rx="20" ry="3" width="0" height="0" x="0" y="0" style="fill: rgb(128, 139, 164); fill-opacity: 1;"/></g><g class="g-gtitle"><text class="gtitle" x="350" y="30" text-anchor="middle" style="font-family: 'Open Sans', verdana, arial, sans-serif; font-size: 17px; fill: rgb(68, 68, 68); opacity: 1; font-weight: normal; white-space: pre;">loss over time</text></g><g class="g-xtitle"><text class="xtitle" x="310.5" y="442" text-anchor="middle" style="font-family: 'Open Sans', verdana, arial, sans-serif; font-size: 14px; fill: rgb(68, 68, 68); opacity: 1; font-weight: normal; white-space: pre;">epoch</text></g><g class="g-ytitle"><text class="ytitle" transform="rotate(-90,22,225)" x="22" y="225" text-anchor="middle" style="font-family: 'Open Sans', verdana, arial, sans-serif; font-size: 14px; fill: rgb(68, 68, 68); opacity: 1; font-weight: normal; white-space: pre;">loss</text></g></g></svg>