<svg class="main-svg" xmlns="http://www.w3.org/2000/svg" xmlns:xlink="http://www.w3.org/1999/xlink" width="700" height="450" style="" viewBox="0 0 700 450"><rect x="0" y="0" width="700" height="450" style="fill: rgb(255, 255, 255); fill-opacity: 1;"/><defs id="defs-e8e40d"><g class="clips"><clipPath id="clipe8e40dxyplot" class="plotclip"><rect width="501" height="330"/></clipPath><clipPath class="axesclip" id="clipe8e40dx"><rect x="60" y="0" width="501" height="450"/></clipPath><clipPath class="axesclip" id="clipe8e40dy"><rect x="0" y="60" width="700" height="330"/></clipPath><clipPath class="axesclip" id="clipe8e40dxy"><rect x="60" y="60" width="501" height="330"/></clipPath></g><g class="gradients"/></defs><g class="bglayer"><rect class="bg" x="60" y="60" width="501" height="330" style="fill: rgb(255, 255, 255); fill-opacity: 1; stroke-width: 0;"/></g><g class="layer-below"><g class="imagelayer"/><g class="shapelayer"/></g><g class="cartesianlayer"><g class="subplot xy"><g class="layer-subplot"><g class="shapelayer"/><g class="imagelayer"/></g><g class="gridlayer"><g class="x"><path class="xgrid crisp" d="M0,60v330" transform="translate(164.9,0)" style="stroke: rgb(238, 238, 238); stroke-opacity: 1; stroke-width: 1px;"/><path class="xgrid crisp" d="M0,60v330" transform="translate(269.78999999999996,0)" style="stroke: rgb(238, 238, 238); stroke-opacity: 1; stroke-width: 1px;"/><path class="xgrid crisp" d="M0,60v330" transform="translate(374.69,0)" style="stroke: rgb(238, 238, 238); stroke-opacity: 1; stroke-width: 1px;"/><path class="xgrid crisp" d="M0,60v330" transform="translate(479.59,0)" style="stroke: rgb(238, 238, 238); stroke-opacity: 1; stroke-width: 1px;"/></g><g class="y"><path class="ygrid crisp" d="M60,0h501" transform="translate(0,334.94)" style="stroke: rgb(238, 238, 238); stroke-opacity: 1; stroke-width: 1px;"/><path class="ygrid crisp" d="M60,0h501" transform="translate(0,266.87)" style="stroke: rgb(238, 238, 238); stroke-opacity: 1; stroke-width: 1px;"/><path class="ygrid crisp" d="M60,0h501" transform="translate(0,198.8)" style="stroke: rgb(238, 238, 238); stroke-opacity: 1; stroke-width: 1px;"/><path class="ygrid crisp" d="M60,0h501" transform="translate(0,130.73000000000002)" style="stroke: rgb(238, 238, 238); stroke-opacity: 1; stroke-width: 1px;"/><path class="ygrid crisp" d="M60,0h501" transform="translate(0,62.66)" style="stroke: rgb(238, 238, 238); stroke-opacity: 1; stroke-width: 1px;"/></g></g><g class="zerolinelayer"><path class="xzl zl crisp" d="M0,60v330" transform="translate(60,0)" style="stroke: rgb(68, 68, 68); stroke-opacity: 1; stroke-width: 1px;"/></g><path class="xlines-below"/><path class="ylines-below"/><g class="overlines-below"/><g class="xaxislayer-below"/><g class="yaxislayer-below"/><g class="overaxes-below"/><g class="plot" transform="translate(60, 60)" clip-path="url(#clipe8e40dxyplot)"><g class="scatterlayer mlayer"><g class="trace scatter trace00a17b" style="stroke-miterlimit: 2; opacity: 1;"><path class="js-line" d="M0,248.43L2.86,289.66L5.73,262.35L8.59,295.23L11.45,303.44L14.31,288.96L17.18,299.67L20.04,272.98L22.9,307.05L25.77,277.62L28.63,297.2L31.49,313.5L34.35,302.71L37.22,287.27L40.08,283.94L42.94,282.65L45.81,292.57L48.67,289.23L51.53,273.59L54.39,289.75L57.26,296.26L60.12,283.8L62.98,264.39L65.85,279.01L68.71,252.63L71.57,285.53L74.43,285.37L77.3,282.97L80.16,285.98L83.02,283.01L85.89,277.26L88.75,268.17L91.61,272.6L94.47,277.6L97.34,274.87L100.2,272.68L103.06,258.9L105.93,286.11L108.79,272.52L111.65,279.55L114.51,274.48L117.38,279.15L120.24,269.85L123.1,269.21L125.97,279.48L128.83,283.82L131.69,279.05L134.55,270.06L137.42,266.89L140.28,278.25L143.14,278.21L146.01,270.08L148.87,282.13L151.73,278.07L154.59,264.95L157.46,274.83L160.32,268.45L163.18,256.94L166.05,273.57L168.91,272.02L171.77,273.32L174.63,268.11L177.5,270.22L180.36,270.45L183.22,268.68L186.09,264.47L188.95,274.2L191.81,279.54L194.67,280.85L197.54,267.3L200.4,277.3L203.26,266.61L206.13,272.8L208.99,268.88L211.85,261.91L214.71,275.66L217.58,268.78L220.44,283.54L223.3,278.62L226.17,285.08L229.03,265.23L231.89,273.63L234.75,275.15L237.62,287.07L240.48,283.54L243.34,281.58L246.21,281.23L249.07,280.98L251.93,272.76L254.79,273.27L257.66,272.33L260.52,271.56L263.38,273.72L266.25,268.79L269.11,278.84L271.97,274.22L274.83,267.78L277.7,272.23L280.56,281.06L283.42,268.52L286.29,274.77L289.15,271.83L292.01,279.47L294.87,272.67L297.74,271.44L300.6,265.28L303.46,274.28L306.33,287.5L309.19,278.82L312.05,283.87L314.91,270.3L317.78,265.42L320.64,268.56L323.5,263.91L326.37,267.08L329.23,267.44L332.09,276.5L334.95,286.15L337.82,278.98L340.68,270.51L343.54,270.57L346.41,279.86L349.27,268.41L352.13,275.92L354.99,285.7L357.86,258.96L360.72,280.01L363.58,271.3L366.45,279.18L369.31,277.87L372.17,263.08L375.03,269.09L377.9,277.93L380.76,261.06L383.62,291.26L386.49,285.12L389.35,276.5L392.21,263.64L395.07,275.91L397.94,273.42L400.8,277.6L403.66,281.43L406.53,275.83L409.39,276.14L412.25,285.1L415.11,288.97L417.98,286.42L420.84,280.31L423.7,267.89L426.57,277.57L429.43,283.6L432.29,292.6L435.15,264.28L438.02,279.63L440.88,286.99L443.74,292.52L446.61,289.02L449.47,280.44L452.33,286.16L455.19,276.22L458.06,284.19L460.92,282.4L463.78,277.89L466.65,281.87L469.51,267.31L472.37,283.4L475.23,280.15L478.1,285.73L480.96,296.03L486.69,267.46L489.55,289.86L492.41,277.31L495.27,268.25L498.14,289.91L501,265.19" style="vector-effect: non-scaling-stroke; fill: none; stroke: rgb(31, 119, 180); stroke-opacity: 1; stroke-width: 2px; opacity: 1;"/><g class="points"/></g><g class="trace scatter trace402504" style="stroke-miterlimit: 2; opacity: 1;"><path class="js-line" d="M0,294.72L5.73,189.88L8.59,220.9L11.45,171.26L14.31,172.83L17.18,224.6L20.04,16.5L22.9,108.72L25.77,126.78L28.63,221.71L31.49,186.58L34.35,220.4L37.22,269.06L40.08,240.65L42.94,276.66L45.81,251.49L48.67,263.52L51.53,300.71L54.39,243.78L57.26,215.73L60.12,226.12L62.98,304.53L65.85,278.38L68.71,227.41L71.57,255.86L74.43,249.38L77.3,248.28L83.02,274.36L85.89,275.95L88.75,269.34L91.61,283.26L94.47,274.92L97.34,294.58L100.2,231.4L103.06,210.78L105.93,225.45L108.79,291.84L111.65,210.5L114.51,244.24L117.38,278.14L120.24,280.94L123.1,287.84L125.97,242.49L128.83,217.87L131.69,239.83L134.55,229.79L137.42,276.6L140.28,279.32L143.14,230.41L146.01,275.63L148.87,241.66L154.59,289.27L157.46,225.7L160.32,303.89L163.18,196.58L166.05,265.4L168.91,297.24L171.77,269.46L174.63,261.19L177.5,271.75L180.36,260.79L183.22,300.74L186.09,285.41L188.95,249.67L191.81,273.79L194.67,272.54L197.54,231.93L200.4,272.82L203.26,233.1L206.13,232.12L208.99,264.87L211.85,294.64L214.71,272.43L217.58,263.68L220.44,249.6L223.3,245.34L226.17,264.01L229.03,217.83L231.89,264.68L234.75,242.4L237.62,269.95L240.48,243.95L243.34,241.07L246.21,239.89L249.07,239.98L251.93,250.51L254.79,256.68L257.66,218.49L260.52,260.72L263.38,273.15L266.25,252.33L269.11,265.47L271.97,268.68L274.83,268.43L277.7,280.8L280.56,259.87L283.42,279.16L286.29,246.2L289.15,291.46L292.01,234.29L294.87,266.65L297.74,241.15L300.6,204.82L303.46,273.49L306.33,265.08L309.19,231.16L312.05,264.71L314.91,262.2L317.78,282.32L320.64,233.04L323.5,253.37L326.37,249.99L329.23,252.45L332.09,234.29L334.95,254.12L337.82,268.81L340.68,220.9L346.41,277.16L349.27,265.26L352.13,281.04L354.99,251.85L357.86,267.38L360.72,241.26L363.58,296.86L366.45,246.67L369.31,246.98L372.17,270.79L375.03,249.75L377.9,249.14L380.76,282.85L383.62,228.74L386.49,254.83L389.35,237.51L392.21,238.68L395.07,228.44L400.8,275.37L403.66,256.76L406.53,289.86L409.39,283.83L412.25,247.1L415.11,269.71L417.98,231.13L420.84,263.71L423.7,284.56L426.57,257.32L429.43,246.67L432.29,244.78L435.15,272.97L438.02,246.35L440.88,232.67L443.74,244.79L446.61,243.4L449.47,201.05L452.33,231.1L455.19,245.92L458.06,227.01L460.92,256.98L463.78,236.46L466.65,257.91L469.51,286.6L472.37,262.62L475.23,261.3L478.1,215.76L480.96,231.89L483.82,237.4L486.69,271.72L489.55,231.87L492.41,231.38L495.27,245.48L498.14,247.68L501,203.92" style="vector-effect: non-scaling-stroke; fill: none; stroke: rgb(255, 127, 14); stroke-opacity: 1; stroke-width: 2px; opacity: 1;"/><g class="points"/></g></g></g><g class="overplot"/><path class="xlines-above crisp" d="M0,0" style="fill: none;"/><path class="ylines-above crisp" d="M0,0" style="fill: none;"/><g class="overlines-above"/><g class="xaxislayer-above"><g class="xtick"><text text-anchor="middle" x="0" y="403" transform="translate(60,0)" style="font-family: 'Open Sans', verdana, arial, sans-serif; font-size: 12px; fill: rgb(68, 68, 68); fill-opacity: 1; white-space: pre;">0</text></g><g class="xtick"><text text-anchor="middle" x="0" y="403" transform="translate(164.9,0)" style="font-family: 'Open Sans', verdana, arial, sans-serif; font-size: 12px; fill: rgb(68, 68, 68); fill-opacity: 1; white-space: pre;">20</text></g><g class="xtick"><text text-anchor="middle" x="0" y="403" transform="translate(269.78999999999996,0)" style="font-family: 'Open Sans', verdana, arial, sans-serif; font-size: 12px; fill: rgb(68, 68, 68); fill-opacity: 1; white-space: pre;">40</text></g><g class="xtick"><text text-anchor="middle" x="0" y="403" transform="translate(374.69,0)" style="font-family: 'Open Sans', verdana, arial, sans-serif; font-size: 12px; fill: rgb(68, 68, 68); fill-opacity: 1; white-space: pre;">60</text></g><g class="xtick"><text text-anchor="middle" x="0" y="403" transform="translate(479.59,0)" style="font-family: 'Open Sans', verdana, arial, sans-serif; font-size: 12px; fill: rgb(68, 68, 68); fill-opacity: 1; white-space: pre;">80</text></g></g><g class="yaxislayer-above"><g class="ytick"><text text-anchor="end" x="59" y="4.199999999999999" transform="translate(0,334.94)" style="font-family: 'Open Sans', verdana, arial, sans-serif; font-size: 12px; fill: rgb(68, 68, 68); fill-opacity: 1; white-space: pre;">1</text></g><g class="ytick"><text text-anchor="end" x="59" y="4.199999999999999" transform="translate(0,266.87)" style="font-family: 'Open Sans', verdana, arial, sans-serif; font-size: 12px; fill: rgb(68, 68, 68); fill-opacity: 1; white-space: pre;">2</text></g><g class="ytick"><text text-anchor="end" x="59" y="4.199999999999999" transform="translate(0,198.8)" style="font-family: 'Open Sans', verdana, arial, sans-serif; font-size: 12px; fill: rgb(68, 68, 68); fill-opacity: 1; white-space: pre;">3</text></g><g class="ytick"><text text-anchor="end" x="59" y="4.199999999999999" transform="translate(0,130.73000000000002)" style="font-family: 'Open Sans', verdana, arial, sans-serif; font-size: 12px; fill: rgb(68, 68, 68); fill-opacity: 1; white-space: pre;">4</text></g><g class="ytick"><text text-anchor="end" x="59" y="4.199999999999999" transform="translate(0,62.66)" style="font-family: 'Open Sans', verdana, arial, sans-serif; font-size: 12px; fill: rgb(68, 68, 68); fill-opacity: 1; white-space: pre;">5</text></g></g><g class="overaxes-above"/></g></g><g class="polarlayer"/><g class="ternarylayer"/><g class="geolayer"/><g class="pielayer"/><g class="glimages"/><defs id="topdefs-e8e40d"><g class="clips"/><clipPath id="legende8e40d"><rect width="117" height="48" x="0" y="0"/></clipPath></defs><g class="layer-above"><g class="imagelayer"/><g class="shapelayer"/></g><g class="infolayer"><g class="legend" pointer-events="all" transform="translate(571.02, 60)"><rect class="bg" shape-rendering="crispEdges" width="117" height="48" x="0" y="0" style="stroke: rgb(68, 68, 68); stroke-opacity: 1; fill: rgb(255, 255, 255); fill-opacity: 1; stroke-width: 0px;"/><g class="scrollbox" transform="translate(0, 0)" clip-path="url(#legende8e40d)"><g class="groups"><g class="traces" transform="translate(0, 14.5)" style="opacity: 1;"><g class="layers" style="opacity: 1;"><g class="legendfill"/><g class="legendlines"><path class="js-line" d="M5,0h30" style="fill: none; stroke: rgb(31, 119, 180); stroke-opacity: 1; stroke-width: 2px;"/></g><g class="legendsymbols"><g class="legendpoints"/></g></g><text class="legendtext user-select-none" text-anchor="start" x="40" y="4.680000000000001" style="font-family: 'Open Sans', verdana, arial, sans-serif; font-size: 12px; fill: rgb(68, 68, 68); fill-opacity: 1; white-space: pre;">Discriminator</text><rect class="legendtoggle" pointer-events="all" x="0" y="-9.5" width="157" height="19" style="cursor: pointer; fill: rgb(0, 0, 0); fill-opacity: 0;"/></g><g class="traces" transform="translate(0, 33.5)" style="opacity: 1;"><g class="layers" style="opacity: 1;"><g class="legendfill"/><g class="legendlines"><path class="js-line" d="M5,0h30" style="fill: none; stroke: rgb(255, 127, 14); stroke-opacity: 1; stroke-width: 2px;"/></g><g class="legendsymbols"><g class="legendpoints"/></g></g><text class="legendtext user-select-none" text-anchor="start" x="40" y="4.680000000000001" style="font-family: 'Open Sans', verdana, arial, sans-serif; font-size: 12px; fill: rgb(68, 68, 68); fill-opacity: 1; white-space: pre;">Generator</text><rect class="legendtoggle" pointer-events="all" x="0" y="-9.5" width="157" height="19" style="cursor: pointer; fill: rgb(0, 0, 0); fill-opacity: 0;"/></g></g></g><rect class="scrollbar" rx="20" ry="3" width="0" height="0" x="0" y="0" style="fill: rgb(128, 139, 164); fill-opacity: 1;"/></g><g class="g-gtitle"><text class="gtitle" x="350" y="30" text-anchor="middle" style="font-family: 'Open Sans', verdana, arial, sans-serif; font-size: 17px; fill: rgb(68, 68, 68); opacity: 1; font-weight: normal; white-space: pre;">loss over time</text></g><g class="g-xtitle"><text class="xtitle" x="310.5" y="442" text-anchor="middle" style="font-family: 'Open Sans', verdana, arial, sans-serif; font-size: 14px; fill: rgb(68, 68, 68); opacity: 1; font-weight: normal; white-space: pre;">epoch</text></g><g class="g-ytitle"><text class="ytitle" transform="rotate(-90,22,225)" x="22" y="225" text-anchor="middle" style="font-family: 'Open Sans', verdana, arial, sans-serif; font-size: 14px; fill: rgb(68, 68, 68); opacity: 1; font-weight: normal; white-space: pre;">loss</text></g></g></svg>