<svg class="main-svg" xmlns="http://www.w3.org/2000/svg" xmlns:xlink="http://www.w3.org/1999/xlink" width="700" height="450" style="" viewBox="0 0 700 450"><rect x="0" y="0" width="700" height="450" style="fill: rgb(255, 255, 255); fill-opacity: 1;"/><defs id="defs-e6632a"><g class="clips"><clipPath id="clipe6632axyplot" class="plotclip"><rect width="500" height="330"/></clipPath><clipPath class="axesclip" id="clipe6632ax"><rect x="60" y="0" width="500" height="450"/></clipPath><clipPath class="axesclip" id="clipe6632ay"><rect x="0" y="60" width="700" height="330"/></clipPath><clipPath class="axesclip" id="clipe6632axy"><rect x="60" y="60" width="500" height="330"/></clipPath></g><g class="gradients"/></defs><g class="bglayer"><rect class="bg" x="60" y="60" width="500" height="330" style="fill: rgb(255, 255, 255); fill-opacity: 1; stroke-width: 0;"/></g><g class="layer-below"><g class="imagelayer"/><g class="shapelayer"/></g><g class="cartesianlayer"><g class="subplot xy"><g class="layer-subplot"><g class="shapelayer"/><g class="imagelayer"/></g><g class="gridlayer"><g class="x"><path class="xgrid crisp" d="M0,60v330" transform="translate(154.57,0)" style="stroke: rgb(238, 238, 238); stroke-opacity: 1; stroke-width: 1px;"/><path class="xgrid crisp" d="M0,60v330" transform="translate(249.14,0)" style="stroke: rgb(238, 238, 238); stroke-opacity: 1; stroke-width: 1px;"/><path class="xgrid crisp" d="M0,60v330" transform="translate(343.72,0)" style="stroke: rgb(238, 238, 238); stroke-opacity: 1; stroke-width: 1px;"/><path class="xgrid crisp" d="M0,60v330" transform="translate(438.29,0)" style="stroke: rgb(238, 238, 238); stroke-opacity: 1; stroke-width: 1px;"/><path class="xgrid crisp" d="M0,60v330" transform="translate(532.86,0)" style="stroke: rgb(238, 238, 238); stroke-opacity: 1; stroke-width: 1px;"/></g><g class="y"><path class="ygrid crisp" d="M60,0h500" transform="translate(0,382.37)" style="stroke: rgb(238, 238, 238); stroke-opacity: 1; stroke-width: 1px;"/><path class="ygrid crisp" d="M60,0h500" transform="translate(0,346.42)" style="stroke: rgb(238, 238, 238); stroke-opacity: 1; stroke-width: 1px;"/><path class="ygrid crisp" d="M60,0h500" transform="translate(0,310.47)" style="stroke: rgb(238, 238, 238); stroke-opacity: 1; stroke-width: 1px;"/><path class="ygrid crisp" d="M60,0h500" transform="translate(0,274.52)" style="stroke: rgb(238, 238, 238); stroke-opacity: 1; stroke-width: 1px;"/><path class="ygrid crisp" d="M60,0h500" transform="translate(0,238.57)" style="stroke: rgb(238, 238, 238); stroke-opacity: 1; stroke-width: 1px;"/><path class="ygrid crisp" d="M60,0h500" transform="translate(0,202.62)" style="stroke: rgb(238, 238, 238); stroke-opacity: 1; stroke-width: 1px;"/><path class="ygrid crisp" d="M60,0h500" transform="translate(0,130.72)" style="stroke: rgb(238, 238, 238); stroke-opacity: 1; stroke-width: 1px;"/><path class="ygrid crisp" d="M60,0h500" transform="translate(0,94.77000000000001)" style="stroke: rgb(238, 238, 238); stroke-opacity: 1; stroke-width: 1px;"/></g></g><g class="zerolinelayer"><path class="xzl zl crisp" d="M0,60v330" transform="translate(60,0)" style="stroke: rgb(68, 68, 68); stroke-opacity: 1; stroke-width: 1px;"/><path class="yzl zl crisp" d="M60,0h500" transform="translate(0,166.67000000000002)" style="stroke: rgb(68, 68, 68); stroke-opacity: 1; stroke-width: 1px;"/></g><path class="xlines-below"/><path class="ylines-below"/><g class="overlines-below"/><g class="xaxislayer-below"/><g class="yaxislayer-below"/><g class="overaxes-below"/><g class="plot" transform="translate(60, 60)" clip-path="url(#clipe6632axyplot)"><g class="scatterlayer mlayer"><g class="trace scatter tracee25ac2" style="stroke-miterlimit: 2; opacity: 1;"><path class="js-line" d="M0,102.94L1.55,107.71L3.1,109.36L4.64,108L6.19,108.01L7.74,110.56L9.29,108.63L10.84,108.22L12.38,109.25L13.93,108.28L15.48,109.2L18.58,106.71L20.12,109.61L21.67,107.54L23.22,108.51L24.77,108.63L26.32,107.67L27.86,106.38L29.41,107.54L32.51,108.36L34.06,106.28L35.6,107.47L37.15,107.01L38.7,108.3L40.25,107.79L41.8,107.11L43.34,107.7L44.89,107.71L46.44,106.45L47.99,107.46L49.54,106.27L51.08,107.74L52.63,107.02L54.18,107.9L55.73,106.88L58.82,107.32L60.37,107.77L63.47,107.15L65.02,108.06L66.56,107.35L68.11,105.65L69.66,107.56L71.21,107.19L72.76,108.06L74.3,107.19L78.95,107.27L80.5,109.1L82.04,106.17L83.59,107.14L85.14,108.1L86.69,106.16L88.24,109.99L89.78,107.82L91.33,107.01L92.88,107.46L97.52,106.38L99.07,107.47L100.62,108.29L102.17,106.66L103.72,107.25L105.26,105.18L108.36,108.51L109.91,107.14L111.46,107.02L113,105.35L114.55,107.92L116.1,106.96L117.65,107.11L119.2,108.11L120.74,107.24L122.29,108.19L123.84,108.89L125.39,107.27L126.93,107.48L128.48,106.52L130.03,107.14L131.58,106.42L134.67,107.37L136.22,106.61L139.32,108.46L140.87,106.63L142.41,107.92L143.96,106.64L145.51,107.49L147.06,107.48L154.8,107.24L156.35,107.97L157.89,106.89L159.44,109.21L162.54,106.45L164.09,109.07L165.63,107.29L167.18,107.46L173.37,107.03L174.92,108.76L178.02,106.54L179.57,106.15L181.11,107.28L182.66,106.33L184.21,106.39L185.76,107.22L187.31,108.06L188.85,107.25L190.4,106.78L191.95,107.74L193.5,106.99L195.05,108.57L198.14,104.82L199.69,105.76L201.24,107.67L202.79,106.67L204.33,107.51L205.88,107.34L208.98,106.58L210.53,107.28L212.07,107.44L213.62,105.75L216.72,106.86L218.27,107.72L219.81,107.53L221.36,109L222.91,108.14L224.46,105.94L226.01,107.53L227.55,108.01L235.29,106.17L236.84,106.78L241.49,107.8L243.03,107.1L244.58,108.6L246.13,108.12L247.68,107.13L249.23,107.93L253.87,107.4L255.42,108.55L256.97,105.84L258.51,106.8L263.16,107.31L264.71,108.41L267.8,107.21L269.35,108.44L270.9,109.43L272.45,106.26L275.54,107.73L277.09,106.86L278.64,109.24L280.19,108.01L284.83,106.63L286.38,108.26L287.93,106.67L289.47,107.51L294.12,106.97L295.67,107.14L297.21,106.88L298.76,107.6L300.31,106.78L301.86,107.86L304.95,106.65L306.5,106.13L308.05,106.94L309.6,106.39L312.69,108.6L314.24,107.23L315.79,107.68L317.34,106.6L321.98,107.36L323.53,110.16L325.08,107.78L326.63,107.07L329.72,108.46L331.27,107.46L332.82,107.01L334.37,107.73L335.91,108.07L337.46,107.02L346.75,107.65L348.3,108.03L349.85,107.57L351.39,105.55L352.94,107.59L354.49,106.73L359.13,107.01L360.68,105.77L362.23,108.2L363.78,108.02L366.87,107.78L368.42,106.5L371.52,107.5L373.07,106.5L374.61,107.01L376.16,106.29L379.26,108.89L380.8,108.08L382.35,106.18L383.9,106.85L387,111L388.54,107.04L390.09,107.06L391.64,108.19L396.28,106.98L397.83,108.2L399.38,107.32L400.93,107.73L402.48,107.43L404.02,107.94L407.12,105.97L408.67,107.26L410.22,107.87L411.76,106.91L413.31,106.67L414.86,107.32L416.41,108L417.96,106.52L419.5,105.91L421.05,107.49L422.6,106.62L424.15,107.83L425.7,105.98L427.24,107.3L430.34,106.26L431.89,107.29L433.44,106.59L434.98,107.51L436.53,107.35L438.08,105.95L439.63,107.74L441.18,106.97L442.72,105.18L444.27,107.22L447.37,105.35L448.92,106.28L452.01,107.64L453.56,109.58L455.11,106.45L456.66,109.64L459.75,107.14L461.3,107.89L469.04,106.85L470.59,108.23L472.14,106.72L473.68,108.2L476.78,106.33L478.33,107.06L482.97,107.33L484.52,106.54L490.71,108.93L492.26,106.87L498.45,107.51L500,106.84" style="vector-effect: non-scaling-stroke; fill: none; stroke: rgb(31, 119, 180); stroke-opacity: 1; stroke-width: 2px; opacity: 1;"/><g class="points"/></g><g class="trace scatter trace1281bd" style="stroke-miterlimit: 2; opacity: 1;"><path class="js-line" d="M0,105.45L1.55,96.79L3.1,93.01L4.64,95.47L6.19,100.75L7.74,102.48L9.29,83.84L10.84,121.82L12.38,128.85L13.93,124.24L15.48,123.94L17.03,109.72L18.58,123.24L20.12,156.89L21.67,148.85L23.22,125.05L24.77,151.58L26.32,162.33L27.86,166.14L29.41,181.91L30.96,160.85L32.51,196.32L34.06,208L35.6,208.15L37.15,201.89L38.7,192.86L40.25,203.41L41.8,211.12L43.34,224.17L46.44,185.64L47.99,198.96L49.54,200.67L51.08,225.35L52.63,224.25L54.18,177.69L55.73,183.18L57.28,165.79L58.82,184.69L60.37,227.71L61.92,226.51L63.47,231.6L65.02,226.89L66.56,226.25L69.66,185.74L71.21,201.83L72.76,219.04L74.3,198.99L75.85,197.66L77.4,222.6L78.95,201.5L80.5,207.11L82.04,190.98L83.59,195.74L85.14,195.64L86.69,187.9L88.24,180.89L89.78,178.27L91.33,171.24L92.88,189.49L94.43,199.84L95.98,203.49L97.52,227.5L99.07,230.09L100.62,183.66L102.17,219.07L103.72,207.31L105.26,185.46L106.81,152.92L108.36,169.33L109.91,168.99L111.46,181.96L113,187.09L114.55,136.62L116.1,203.76L117.65,182.72L119.2,182.74L120.74,191.78L122.29,193.7L123.84,221.06L125.39,197L126.93,196.29L128.48,201.83L130.03,177.49L131.58,158.06L133.13,199.57L134.67,187.21L136.22,209.29L137.77,237.98L139.32,205.28L140.87,203.33L142.41,189.75L143.96,208.46L145.51,170.61L147.06,170.66L148.61,189.64L150.15,158.18L151.7,151.42L153.25,205.77L154.8,209.89L156.35,173.07L157.89,184.05L159.44,183.87L160.99,194.2L162.54,138L164.09,186.86L165.63,170.53L167.18,123.25L168.73,174.25L170.28,193.47L171.83,195.49L173.37,215.57L176.47,179.24L178.02,182.98L179.57,151.22L181.11,198.61L182.66,155.26L184.21,179.45L185.76,145.34L187.31,90.61L188.85,160.66L190.4,178.52L191.95,147.86L193.5,171.27L195.05,123.24L196.59,156.77L199.69,190.78L201.24,175.97L202.79,179.52L204.33,152.29L205.88,142.21L207.43,143.98L208.98,167.65L210.53,172.63L212.07,196.31L213.62,177.05L215.17,194.39L216.72,128.02L218.27,150.1L219.81,145.01L222.91,217.38L224.46,128.87L227.55,161.33L229.1,152.49L230.65,180.32L232.2,188.31L233.75,190.33L235.29,147.62L236.84,189.13L238.39,179.24L239.94,130.58L241.49,112.26L243.03,188.37L244.58,186.72L246.13,167.53L247.68,169.8L250.77,111.07L252.32,162.65L253.87,132.8L255.42,147.96L256.97,152.93L258.51,169.42L260.06,109.75L261.61,169.53L263.16,186.58L264.71,188.54L266.25,162.36L267.8,179.44L269.35,126.37L270.9,201.61L272.45,159.26L273.99,75.05L275.54,114L277.09,191.49L278.64,197.89L280.19,186.42L281.73,128.36L283.28,163.23L284.83,217.09L286.38,161.6L287.93,155.46L289.47,176.71L291.02,119.46L292.57,223.68L294.12,100.92L295.67,95.11L298.76,160.05L300.31,166.33L301.86,128.95L303.41,113.08L304.95,156.32L306.5,114.5L308.05,115.14L309.6,134.23L311.15,132.07L312.69,75.49L314.24,201.4L315.79,188.74L317.34,172.38L318.89,102.77L321.98,150.49L323.53,104.14L325.08,190.18L326.63,136.64L328.17,142.03L329.72,196.52L331.27,113.02L332.82,169.96L334.37,142.08L335.91,154.38L337.46,138.15L339.01,130.57L342.11,244.5L343.65,137.42L345.2,188.24L346.75,206.27L348.3,194.36L349.85,189.08L351.39,158.12L352.94,179.81L354.49,183.24L356.04,136.34L357.59,105.86L359.13,129.33L360.68,138.8L362.23,161.9L363.78,248.71L365.33,221.93L366.87,214.42L368.42,130.49L369.97,171.35L371.52,256.95L373.07,266.07L374.61,196.54L376.16,160.55L377.71,149.1L379.26,245.76L380.8,268.25L382.35,250.9L383.9,177.6L385.45,93.02L387,96.48L388.54,190.96L390.09,206.57L391.64,104.12L393.19,178.11L394.74,160.84L396.28,219.46L397.83,112.54L399.38,190.79L402.48,264.49L404.02,131.33L405.57,255.07L407.12,242.3L408.67,260.64L410.22,168L411.76,195.41L413.31,133.94L414.86,132.17L416.41,249.96L417.96,248.4L419.5,198.8L421.05,193.32L422.6,16.5L425.7,253.39L427.24,168.06L428.79,138.82L430.34,200.15L433.44,178.4L434.98,174.25L436.53,207.72L438.08,175.54L439.63,174.13L441.18,62.99L442.72,121.96L444.27,144.31L445.82,241.03L447.37,227.54L448.92,114.63L450.46,176.23L452.01,313.5L453.56,172.49L455.11,247.14L456.66,229.16L458.2,241.07L459.75,241.18L461.3,197.49L462.85,303.27L464.4,207.83L465.94,192.84L467.49,204.7L469.04,237.55L470.59,174.97L472.14,257.34L473.68,115.49L475.23,231.49L476.78,186.79L478.33,101.01L479.88,210.01L481.42,164.09L484.52,227.06L486.07,188.87L487.62,270.28L489.16,206.19L490.71,256.28L492.26,162.03L493.81,301.55L495.36,285.45L496.9,148.64L498.45,173.66L500,175.05" style="vector-effect: non-scaling-stroke; fill: none; stroke: rgb(255, 127, 14); stroke-opacity: 1; stroke-width: 2px; opacity: 1;"/><g class="points"/></g></g></g><g class="overplot"/><path class="xlines-above crisp" d="M0,0" style="fill: none;"/><path class="ylines-above crisp" d="M0,0" style="fill: none;"/><g class="overlines-above"/><g class="xaxislayer-above"><g class="xtick"><text text-anchor="middle" x="0" y="403" transform="translate(60,0)" style="font-family: 'Open Sans', verdana, arial, sans-serif; font-size: 12px; fill: rgb(68, 68, 68); fill-opacity: 1; white-space: pre;">0</text></g><g class="xtick"><text text-anchor="middle" x="0" y="403" transform="translate(154.57,0)" style="font-family: 'Open Sans', verdana, arial, sans-serif; font-size: 12px; fill: rgb(68, 68, 68); fill-opacity: 1; white-space: pre;">20</text></g><g class="xtick"><text text-anchor="middle" x="0" y="403" transform="translate(249.14,0)" style="font-family: 'Open Sans', verdana, arial, sans-serif; font-size: 12px; fill: rgb(68, 68, 68); fill-opacity: 1; white-space: pre;">40</text></g><g class="xtick"><text text-anchor="middle" x="0" y="403" transform="translate(343.72,0)" style="font-family: 'Open Sans', verdana, arial, sans-serif; font-size: 12px; fill: rgb(68, 68, 68); fill-opacity: 1; white-space: pre;">60</text></g><g class="xtick"><text text-anchor="middle" x="0" y="403" transform="translate(438.29,0)" style="font-family: 'Open Sans', verdana, arial, sans-serif; font-size: 12px; fill: rgb(68, 68, 68); fill-opacity: 1; white-space: pre;">80</text></g><g class="xtick"><text text-anchor="middle" x="0" y="403" transform="translate(532.86,0)" style="font-family: 'Open Sans', verdana, arial, sans-serif; font-size: 12px; fill: rgb(68, 68, 68); fill-opacity: 1; white-space: pre;">100</text></g></g><g class="yaxislayer-above"><g class="ytick"><text text-anchor="end" x="59" y="4.199999999999999" transform="translate(0,382.37)" style="font-family: 'Open Sans', verdana, arial, sans-serif; font-size: 12px; fill: rgb(68, 68, 68); fill-opacity: 1; white-space: pre;">−300</text></g><g class="ytick"><text text-anchor="end" x="59" y="4.199999999999999" transform="translate(0,346.42)" style="font-family: 'Open Sans', verdana, arial, sans-serif; font-size: 12px; fill: rgb(68, 68, 68); fill-opacity: 1; white-space: pre;">−250</text></g><g class="ytick"><text text-anchor="end" x="59" y="4.199999999999999" transform="translate(0,310.47)" style="font-family: 'Open Sans', verdana, arial, sans-serif; font-size: 12px; fill: rgb(68, 68, 68); fill-opacity: 1; white-space: pre;">−200</text></g><g class="ytick"><text text-anchor="end" x="59" y="4.199999999999999" transform="translate(0,274.52)" style="font-family: 'Open Sans', verdana, arial, sans-serif; font-size: 12px; fill: rgb(68, 68, 68); fill-opacity: 1; white-space: pre;">−150</text></g><g class="ytick"><text text-anchor="end" x="59" y="4.199999999999999" transform="translate(0,238.57)" style="font-family: 'Open Sans', verdana, arial, sans-serif; font-size: 12px; fill: rgb(68, 68, 68); fill-opacity: 1; white-space: pre;">−100</text></g><g class="ytick"><text text-anchor="end" x="59" y="4.199999999999999" transform="translate(0,202.62)" style="font-family: 'Open Sans', verdana, arial, sans-serif; font-size: 12px; fill: rgb(68, 68, 68); fill-opacity: 1; white-space: pre;">−50</text></g><g class="ytick"><text text-anchor="end" x="59" y="4.199999999999999" transform="translate(0,166.67000000000002)" style="font-family: 'Open Sans', verdana, arial, sans-serif; font-size: 12px; fill: rgb(68, 68, 68); fill-opacity: 1; white-space: pre;">0</text></g><g class="ytick"><text text-anchor="end" x="59" y="4.199999999999999" transform="translate(0,130.72)" style="font-family: 'Open Sans', verdana, arial, sans-serif; font-size: 12px; fill: rgb(68, 68, 68); fill-opacity: 1; white-space: pre;">50</text></g><g class="ytick"><text text-anchor="end" x="59" y="4.199999999999999" transform="translate(0,94.77000000000001)" style="font-family: 'Open Sans', verdana, arial, sans-serif; font-size: 12px; fill: rgb(68, 68, 68); fill-opacity: 1; white-space: pre;">100</text></g></g><g class="overaxes-above"/></g></g><g class="polarlayer"/><g class="ternarylayer"/><g class="geolayer"/><g class="pielayer"/><g class="glimages"/><defs id="topdefs-e6632a"><g class="clips"/><clipPath id="legende6632a"><rect width="118" height="48" x="0" y="0"/></clipPath></defs><g class="layer-above"><g class="imagelayer"/><g class="shapelayer"/></g><g class="infolayer"><g class="legend" pointer-events="all" transform="translate(570, 60)"><rect class="bg" shape-rendering="crispEdges" width="118" height="48" x="0" y="0" style="stroke: rgb(68, 68, 68); stroke-opacity: 1; fill: rgb(255, 255, 255); fill-opacity: 1; stroke-width: 0px;"/><g class="scrollbox" transform="translate(0, 0)" clip-path="url(#legende6632a)"><g class="groups"><g class="traces" transform="translate(0, 14.5)" style="opacity: 1;"><g class="layers" style="opacity: 1;"><g class="legendfill"/><g class="legendlines"><path class="js-line" d="M5,0h30" style="fill: none; stroke: rgb(31, 119, 180); stroke-opacity: 1; stroke-width: 2px;"/></g><g class="legendsymbols"><g class="legendpoints"/></g></g><text class="legendtext user-select-none" text-anchor="start" x="40" y="4.680000000000001" style="font-family: 'Open Sans', verdana, arial, sans-serif; font-size: 12px; fill: rgb(68, 68, 68); fill-opacity: 1; white-space: pre;">Discriminator</text><rect class="legendtoggle" pointer-events="all" x="0" y="-9.5" width="158" height="19" style="cursor: pointer; fill: rgb(0, 0, 0); fill-opacity: 0;"/></g><g class="traces" transform="translate(0, 33.5)" style="opacity: 1;"><g class="layers" style="opacity: 1;"><g class="legendfill"/><g class="legendlines"><path class="js-line" d="M5,0h30" style="fill: none; stroke: rgb(255, 127, 14); stroke-opacity: 1; stroke-width: 2px;"/></g><g class="legendsymbols"><g class="legendpoints"/></g></g><text class="legendtext user-select-none" text-anchor="start" x="40" y="4.680000000000001" style="font-family: 'Open Sans', verdana, arial, sans-serif; font-size: 12px; fill: rgb(68, 68, 68); fill-opacity: 1; white-space: pre;">Generator</text><rect class="legendtoggle" pointer-events="all" x="0" y="-9.5" width="158" height="19" style="cursor: pointer; fill: rgb(0, 0, 0); fill-opacity: 0;"/></g></g></g><rect class="scrollbar" rx="20" ry="3" width="0" height="0" x="0" y="0" style="fill: rgb(128, 139, 164); fill-opacity: 1;"/></g><g class="g-gtitle"><text class="gtitle" x="350" y="30" text-anchor="middle" style="font-family: 'Open Sans', verdana, arial, sans-serif; font-size: 17px; fill: rgb(68, 68, 68); opacity: 1; font-weight: normal; white-space: pre;">loss over time</text></g><g class="g-xtitle"><text class="xtitle" x="310" y="442" text-anchor="middle" style="font-family: 'Open Sans', verdana, arial, sans-serif; font-size: 14px; fill: rgb(68, 68, 68); opacity: 1; font-weight: normal; white-space: pre;">epoch</text></g><g class="g-ytitle"><text class="ytitle" transform="rotate(-90,22,225)" x="22" y="225" text-anchor="middle" style="font-family: 'Open Sans', verdana, arial, sans-serif; font-size: 14px; fill: rgb(68, 68, 68); opacity: 1; font-weight: normal; white-space: pre;">loss</text></g></g></svg>