<svg class="main-svg" xmlns="http://www.w3.org/2000/svg" xmlns:xlink="http://www.w3.org/1999/xlink" width="700" height="450" style="" viewBox="0 0 700 450"><rect x="0" y="0" width="700" height="450" style="fill: rgb(255, 255, 255); fill-opacity: 1;"/><defs id="defs-2ceedf"><g class="clips"><clipPath id="clip2ceedfxyplot" class="plotclip"><rect width="501" height="330"/></clipPath><clipPath class="axesclip" id="clip2ceedfx"><rect x="60" y="0" width="501" height="450"/></clipPath><clipPath class="axesclip" id="clip2ceedfy"><rect x="0" y="60" width="700" height="330"/></clipPath><clipPath class="axesclip" id="clip2ceedfxy"><rect x="60" y="60" width="501" height="330"/></clipPath></g><g class="gradients"/></defs><g class="bglayer"><rect class="bg" x="60" y="60" width="501" height="330" style="fill: rgb(255, 255, 255); fill-opacity: 1; stroke-width: 0;"/></g><g class="layer-below"><g class="imagelayer"/><g class="shapelayer"/></g><g class="cartesianlayer"><g class="subplot xy"><g class="layer-subplot"><g class="shapelayer"/><g class="imagelayer"/></g><g class="gridlayer"><g class="x"><path class="xgrid crisp" d="M0,60v330" transform="translate(156.25,0)" style="stroke: rgb(238, 238, 238); stroke-opacity: 1; stroke-width: 1px;"/><path class="xgrid crisp" d="M0,60v330" transform="translate(252.5,0)" style="stroke: rgb(238, 238, 238); stroke-opacity: 1; stroke-width: 1px;"/><path class="xgrid crisp" d="M0,60v330" transform="translate(348.75,0)" style="stroke: rgb(238, 238, 238); stroke-opacity: 1; stroke-width: 1px;"/><path class="xgrid crisp" d="M0,60v330" transform="translate(445.01,0)" style="stroke: rgb(238, 238, 238); stroke-opacity: 1; stroke-width: 1px;"/><path class="xgrid crisp" d="M0,60v330" transform="translate(541.26,0)" style="stroke: rgb(238, 238, 238); stroke-opacity: 1; stroke-width: 1px;"/></g><g class="y"><path class="ygrid crisp" d="M60,0h501" transform="translate(0,328.3)" style="stroke: rgb(238, 238, 238); stroke-opacity: 1; stroke-width: 1px;"/><path class="ygrid crisp" d="M60,0h501" transform="translate(0,259.03)" style="stroke: rgb(238, 238, 238); stroke-opacity: 1; stroke-width: 1px;"/><path class="ygrid crisp" d="M60,0h501" transform="translate(0,189.76)" style="stroke: rgb(238, 238, 238); stroke-opacity: 1; stroke-width: 1px;"/></g></g><g class="zerolinelayer"><path class="xzl zl crisp" d="M0,60v330" transform="translate(60,0)" style="stroke: rgb(68, 68, 68); stroke-opacity: 1; stroke-width: 1px;"/><path class="yzl zl crisp" d="M60,0h501" transform="translate(0,120.49000000000001)" style="stroke: rgb(68, 68, 68); stroke-opacity: 1; stroke-width: 1px;"/></g><path class="xlines-below"/><path class="ylines-below"/><g class="overlines-below"/><g class="xaxislayer-below"/><g class="yaxislayer-below"/><g class="overaxes-below"/><g class="plot" transform="translate(60, 60)" clip-path="url(#clip2ceedfxyplot)"><g class="scatterlayer mlayer"><g class="trace scatter trace0fddae" style="stroke-miterlimit: 2; opacity: 1;"><path class="js-line" d="M0,53.31L3.15,62.51L6.3,65.68L9.45,63.06L12.6,63.08L15.75,67.99L18.91,64.28L22.06,63.48L25.21,65.47L28.36,63.6L31.51,65.38L34.66,62.16L37.81,60.58L40.96,66.17L44.11,62.18L47.26,64.04L50.42,64.27L56.72,59.93L59.87,62.18L66.17,63.76L69.32,59.74L72.47,62.03L75.62,61.16L78.77,63.64L81.92,62.65L85.08,61.34L88.23,62.48L91.38,62.51L94.53,60.08L97.68,62.02L100.83,59.72L103.98,62.57L107.13,61.17L110.28,62.86L113.43,60.91L116.58,60.75L119.74,61.74L122.89,62.61L126.04,61.27L129.19,61.43L132.34,63.17L135.49,61.8L138.64,58.52L141.79,62.22L144.94,61.5L148.09,63.17L151.25,61.5L157.55,61.34L160.7,61.66L163.85,65.18L167,59.53L173.3,63.24L176.45,59.52L179.6,66.9L182.75,62.71L185.91,61.14L189.06,62.03L192.21,61.69L195.36,60.57L198.51,59.94L201.66,62.03L204.81,63.62L207.96,60.47L211.11,61.61L214.26,57.62L217.42,61.5L220.57,64.05L223.72,61.4L226.87,61.17L230.02,57.96L233.17,62.9L236.32,61.06L239.47,61.35L242.62,63.28L245.77,61.59L252.08,64.77L255.23,61.65L258.38,62.07L261.53,60.21L264.68,61.4L267.83,60.01L274.13,61.84L277.28,60.38L280.43,62.74L283.58,63.95L286.74,60.42L289.89,62.91L293.04,60.44L296.19,62.08L308.79,62.07L311.94,60.86L318.25,63L321.4,60.92L324.55,65.4L327.7,62.8L330.85,60.08L334,65.12L337.15,61.68L340.3,62.02L346.6,62.39L349.75,61.05L352.91,61.19L356.06,64.52L362.36,60.25L365.51,59.5L368.66,61.68L371.81,59.84L374.96,59.95L378.11,61.56L381.26,63.18L384.42,61.61L387.57,60.71L390.72,62.56L393.87,61.11L397.02,64.16L403.32,56.93L406.47,58.75L409.62,62.43L412.77,60.51L415.92,62.11L419.08,61.79L422.23,60.45L425.38,60.33L428.53,61.67L431.68,61.99L434.83,58.72L437.98,60.55L441.13,60.86L444.28,62.52L447.43,62.15L450.58,64.99L453.74,63.33L456.89,59.09L460.04,62.15L463.19,63.08L469.49,61.52L472.64,62.13L475.79,60.33L478.94,59.53L488.4,62.76L491.55,62.67L494.7,61.33L497.85,64.22L501,63.29" style="vector-effect: non-scaling-stroke; fill: none; stroke: rgb(31, 119, 180); stroke-opacity: 1; stroke-width: 2px; opacity: 1;"/><g class="points"/></g><g class="trace scatter trace875070" style="stroke-miterlimit: 2; opacity: 1;"><path class="js-line" d="M0,58.14L3.15,41.46L6.3,34.19L9.45,38.92L12.6,49.09L15.75,52.43L18.91,16.5L22.06,89.69L25.21,103.23L28.36,94.36L31.51,93.78L34.66,66.37L37.81,92.41L40.96,157.25L44.11,141.76L47.26,95.91L50.42,147.03L53.57,167.73L56.72,175.09L59.87,205.47L63.02,164.9L66.17,233.24L69.32,255.74L72.47,256.02L75.62,243.96L78.77,226.56L81.92,246.9L85.08,261.75L88.23,286.89L94.53,212.65L97.68,238.33L100.83,241.62L103.98,289.18L107.13,287.04L110.28,197.33L113.43,207.91L116.58,174.4L119.74,210.82L122.89,293.72L126.04,291.41L129.19,301.22L132.34,292.13L135.49,290.9L138.64,242.68L141.79,212.84L148.09,277L151.25,238.37L154.4,235.81L157.55,283.88L160.7,243.22L163.85,254.03L167,222.94L170.15,232.12L173.3,231.92L176.45,217.02L179.6,203.5L182.75,198.45L185.91,184.9L189.06,220.07L192.21,240.02L195.36,247.05L198.51,293.31L201.66,298.3L204.81,208.84L207.96,277.06L211.11,254.41L214.26,212.31L217.42,149.61L220.57,181.22L223.72,180.58L226.87,205.56L230.02,215.45L233.17,118.2L236.32,247.57L239.47,207.03L242.62,207.07L245.77,224.48L248.92,228.19L252.08,280.9L255.23,234.55L258.38,233.17L261.53,243.85L264.68,196.95L267.83,159.52L270.98,239.5L274.13,215.69L277.28,258.22L280.43,313.5L283.58,250.49L286.74,246.74L289.89,220.58L293.04,256.62L296.19,183.69L299.34,183.79L302.49,220.36L305.64,159.75L308.79,146.72L311.94,251.44L315.09,259.37L318.25,188.43L321.4,209.58L324.55,209.24L327.7,229.14L330.85,120.86L334,215L337.15,183.54L340.3,92.43L343.45,190.71L346.6,227.74L349.75,231.64L352.91,270.32L359.21,200.32L362.36,207.54L365.51,146.34L368.66,237.64L371.81,154.12L374.96,200.72L378.11,135.01L381.26,29.55L384.42,164.52L387.57,198.94L390.72,139.85L393.87,184.96L397.02,92.42L400.17,157.02L406.47,222.57L409.62,194.02L412.77,200.87L415.92,148.4L419.08,128.98L422.23,132.38L425.38,177.99L428.53,187.6L431.68,233.22L434.83,196.1L437.98,229.51L441.13,101.64L444.28,144.17L447.43,134.38L453.74,273.81L456.89,103.27L460.04,130.51L463.19,165.82L466.34,148.78L469.49,202.4L472.64,217.79L475.79,221.69L478.94,139.4L482.09,219.38L485.25,200.32L488.4,106.56L491.55,71.27L494.7,217.92L497.85,214.73L501,177.75" style="vector-effect: non-scaling-stroke; fill: none; stroke: rgb(255, 127, 14); stroke-opacity: 1; stroke-width: 2px; opacity: 1;"/><g class="points"/></g></g></g><g class="overplot"/><path class="xlines-above crisp" d="M0,0" style="fill: none;"/><path class="ylines-above crisp" d="M0,0" style="fill: none;"/><g class="overlines-above"/><g class="xaxislayer-above"><g class="xtick"><text text-anchor="middle" x="0" y="403" transform="translate(60,0)" style="font-family: 'Open Sans', verdana, arial, sans-serif; font-size: 12px; fill: rgb(68, 68, 68); fill-opacity: 1; white-space: pre;">0</text></g><g class="xtick"><text text-anchor="middle" x="0" y="403" transform="translate(156.25,0)" style="font-family: 'Open Sans', verdana, arial, sans-serif; font-size: 12px; fill: rgb(68, 68, 68); fill-opacity: 1; white-space: pre;">10</text></g><g class="xtick"><text text-anchor="middle" x="0" y="403" transform="translate(252.5,0)" style="font-family: 'Open Sans', verdana, arial, sans-serif; font-size: 12px; fill: rgb(68, 68, 68); fill-opacity: 1; white-space: pre;">20</text></g><g class="xtick"><text text-anchor="middle" x="0" y="403" transform="translate(348.75,0)" style="font-family: 'Open Sans', verdana, arial, sans-serif; font-size: 12px; fill: rgb(68, 68, 68); fill-opacity: 1; white-space: pre;">30</text></g><g class="xtick"><text text-anchor="middle" x="0" y="403" transform="translate(445.01,0)" style="font-family: 'Open Sans', verdana, arial, sans-serif; font-size: 12px; fill: rgb(68, 68, 68); fill-opacity: 1; white-space: pre;">40</text></g><g class="xtick"><text text-anchor="middle" x="0" y="403" transform="translate(541.26,0)" style="font-family: 'Open Sans', verdana, arial, sans-serif; font-size: 12px; fill: rgb(68, 68, 68); fill-opacity: 1; white-space: pre;">50</text></g></g><g class="yaxislayer-above"><g class="ytick"><text text-anchor="end" x="59" y="4.199999999999999" transform="translate(0,328.3)" style="font-family: 'Open Sans', verdana, arial, sans-serif; font-size: 12px; fill: rgb(68, 68, 68); fill-opacity: 1; white-space: pre;">−150</text></g><g class="ytick"><text text-anchor="end" x="59" y="4.199999999999999" transform="translate(0,259.03)" style="font-family: 'Open Sans', verdana, arial, sans-serif; font-size: 12px; fill: rgb(68, 68, 68); fill-opacity: 1; white-space: pre;">−100</text></g><g class="ytick"><text text-anchor="end" x="59" y="4.199999999999999" transform="translate(0,189.76)" style="font-family: 'Open Sans', verdana, arial, sans-serif; font-size: 12px; fill: rgb(68, 68, 68); fill-opacity: 1; white-space: pre;">−50</text></g><g class="ytick"><text text-anchor="end" x="59" y="4.199999999999999" transform="translate(0,120.49000000000001)" style="font-family: 'Open Sans', verdana, arial, sans-serif; font-size: 12px; fill: rgb(68, 68, 68); fill-opacity: 1; white-space: pre;">0</text></g></g><g class="overaxes-above"/></g></g><g class="polarlayer"/><g class="ternarylayer"/><g class="geolayer"/><g class="pielayer"/><g class="glimages"/><defs id="topdefs-2ceedf"><g class="clips"/><clipPath id="legend2ceedf"><rect width="117" height="48" x="0" y="0"/></clipPath></defs><g class="layer-above"><g class="imagelayer"/><g class="shapelayer"/></g><g class="infolayer"><g class="legend" pointer-events="all" transform="translate(571.02, 60)"><rect class="bg" shape-rendering="crispEdges" width="117" height="48" x="0" y="0" style="stroke: rgb(68, 68, 68); stroke-opacity: 1; fill: rgb(255, 255, 255); fill-opacity: 1; stroke-width: 0px;"/><g class="scrollbox" transform="translate(0, 0)" clip-path="url(#legend2ceedf)"><g class="groups"><g class="traces" transform="translate(0, 14.5)" style="opacity: 1;"><g class="layers" style="opacity: 1;"><g class="legendfill"/><g class="legendlines"><path class="js-line" d="M5,0h30" style="fill: none; stroke: rgb(31, 119, 180); stroke-opacity: 1; stroke-width: 2px;"/></g><g class="legendsymbols"><g class="legendpoints"/></g></g><text class="legendtext user-select-none" text-anchor="start" x="40" y="4.680000000000001" style="font-family: 'Open Sans', verdana, arial, sans-serif; font-size: 12px; fill: rgb(68, 68, 68); fill-opacity: 1; white-space: pre;">Discriminator</text><rect class="legendtoggle" pointer-events="all" x="0" y="-9.5" width="157" height="19" style="cursor: pointer; fill: rgb(0, 0, 0); fill-opacity: 0;"/></g><g class="traces" transform="translate(0, 33.5)" style="opacity: 1;"><g class="layers" style="opacity: 1;"><g class="legendfill"/><g class="legendlines"><path class="js-line" d="M5,0h30" style="fill: none; stroke: rgb(255, 127, 14); stroke-opacity: 1; stroke-width: 2px;"/></g><g class="legendsymbols"><g class="legendpoints"/></g></g><text class="legendtext user-select-none" text-anchor="start" x="40" y="4.680000000000001" style="font-family: 'Open Sans', verdana, arial, sans-serif; font-size: 12px; fill: rgb(68, 68, 68); fill-opacity: 1; white-space: pre;">Generator</text><rect class="legendtoggle" pointer-events="all" x="0" y="-9.5" width="157" height="19" style="cursor: pointer; fill: rgb(0, 0, 0); fill-opacity: 0;"/></g></g></g><rect class="scrollbar" rx="20" ry="3" width="0" height="0" x="0" y="0" style="fill: rgb(128, 139, 164); fill-opacity: 1;"/></g><g class="g-gtitle"><text class="gtitle" x="350" y="30" text-anchor="middle" style="font-family: 'Open Sans', verdana, arial, sans-serif; font-size: 17px; fill: rgb(68, 68, 68); opacity: 1; font-weight: normal; white-space: pre;">loss over time</text></g><g class="g-xtitle"><text class="xtitle" x="310.5" y="442" text-anchor="middle" style="font-family: 'Open Sans', verdana, arial, sans-serif; font-size: 14px; fill: rgb(68, 68, 68); opacity: 1; font-weight: normal; white-space: pre;">epoch</text></g><g class="g-ytitle"><text class="ytitle" transform="rotate(-90,22,225)" x="22" y="225" text-anchor="middle" style="font-family: 'Open Sans', verdana, arial, sans-serif; font-size: 14px; fill: rgb(68, 68, 68); opacity: 1; font-weight: normal; white-space: pre;">loss</text></g></g></svg>