<svg class="main-svg" xmlns="http://www.w3.org/2000/svg" xmlns:xlink="http://www.w3.org/1999/xlink" width="700" height="450" style="" viewBox="0 0 700 450"><rect x="0" y="0" width="700" height="450" style="fill: rgb(255, 255, 255); fill-opacity: 1;"/><defs id="defs-5dfe62"><g class="clips"><clipPath id="clip5dfe62xyplot" class="plotclip"><rect width="502" height="330"/></clipPath><clipPath class="axesclip" id="clip5dfe62x"><rect x="60" y="0" width="502" height="450"/></clipPath><clipPath class="axesclip" id="clip5dfe62y"><rect x="0" y="60" width="700" height="330"/></clipPath><clipPath class="axesclip" id="clip5dfe62xy"><rect x="60" y="60" width="502" height="330"/></clipPath></g><g class="gradients"/></defs><g class="bglayer"><rect class="bg" x="60" y="60" width="502" height="330" style="fill: rgb(255, 255, 255); fill-opacity: 1; stroke-width: 0;"/></g><g class="layer-below"><g class="imagelayer"/><g class="shapelayer"/></g><g class="cartesianlayer"><g class="subplot xy"><g class="layer-subplot"><g class="shapelayer"/><g class="imagelayer"/></g><g class="gridlayer"><g class="x"><path class="xgrid crisp" d="M0,60v330" transform="translate(133.01999999999998,0)" style="stroke: rgb(238, 238, 238); stroke-opacity: 1; stroke-width: 1px;"/><path class="xgrid crisp" d="M0,60v330" transform="translate(206.04,0)" style="stroke: rgb(238, 238, 238); stroke-opacity: 1; stroke-width: 1px;"/><path class="xgrid crisp" d="M0,60v330" transform="translate(279.06,0)" style="stroke: rgb(238, 238, 238); stroke-opacity: 1; stroke-width: 1px;"/><path class="xgrid crisp" d="M0,60v330" transform="translate(352.09,0)" style="stroke: rgb(238, 238, 238); stroke-opacity: 1; stroke-width: 1px;"/><path class="xgrid crisp" d="M0,60v330" transform="translate(425.11,0)" style="stroke: rgb(238, 238, 238); stroke-opacity: 1; stroke-width: 1px;"/><path class="xgrid crisp" d="M0,60v330" transform="translate(498.13,0)" style="stroke: rgb(238, 238, 238); stroke-opacity: 1; stroke-width: 1px;"/></g><g class="y"><path class="ygrid crisp" d="M60,0h502" transform="translate(0,375.56)" style="stroke: rgb(238, 238, 238); stroke-opacity: 1; stroke-width: 1px;"/><path class="ygrid crisp" d="M60,0h502" transform="translate(0,336.63)" style="stroke: rgb(238, 238, 238); stroke-opacity: 1; stroke-width: 1px;"/><path class="ygrid crisp" d="M60,0h502" transform="translate(0,297.7)" style="stroke: rgb(238, 238, 238); stroke-opacity: 1; stroke-width: 1px;"/><path class="ygrid crisp" d="M60,0h502" transform="translate(0,219.85)" style="stroke: rgb(238, 238, 238); stroke-opacity: 1; stroke-width: 1px;"/><path class="ygrid crisp" d="M60,0h502" transform="translate(0,180.92000000000002)" style="stroke: rgb(238, 238, 238); stroke-opacity: 1; stroke-width: 1px;"/><path class="ygrid crisp" d="M60,0h502" transform="translate(0,142)" style="stroke: rgb(238, 238, 238); stroke-opacity: 1; stroke-width: 1px;"/><path class="ygrid crisp" d="M60,0h502" transform="translate(0,103.07)" style="stroke: rgb(238, 238, 238); stroke-opacity: 1; stroke-width: 1px;"/><path class="ygrid crisp" d="M60,0h502" transform="translate(0,64.14)" style="stroke: rgb(238, 238, 238); stroke-opacity: 1; stroke-width: 1px;"/></g></g><g class="zerolinelayer"><path class="xzl zl crisp" d="M0,60v330" transform="translate(60,0)" style="stroke: rgb(68, 68, 68); stroke-opacity: 1; stroke-width: 1px;"/><path class="yzl zl crisp" d="M60,0h502" transform="translate(0,258.78)" style="stroke: rgb(68, 68, 68); stroke-opacity: 1; stroke-width: 1px;"/></g><path class="xlines-below"/><path class="ylines-below"/><g class="overlines-below"/><g class="xaxislayer-below"/><g class="yaxislayer-below"/><g class="overaxes-below"/><g class="plot" transform="translate(60, 60)" clip-path="url(#clip5dfe62xyplot)"><g class="scatterlayer mlayer"><g class="trace scatter trace22186a" style="stroke-miterlimit: 2; opacity: 1;"><path class="js-line" d="M0,197.59L4.78,206.9L9.56,204.22L14.34,202.53L19.12,203.86L33.47,201.44L38.25,201.9L47.81,201.86L52.59,200.14L57.37,202.48L62.15,202.72L66.93,200.76L71.71,201.47L76.5,202.13L81.28,199.61L86.06,200.03L90.84,204.43L95.62,199.39L100.4,202.97L105.18,202.94L109.96,201.61L119.52,200.5L124.3,201.45L133.87,200.39L138.65,203.24L148.21,200.85L152.99,201.43L157.77,202.46L162.55,200.39L172.11,200.93L176.9,202.02L186.46,201.75L191.24,201.09L196.02,202.02L200.8,200.62L205.58,202.03L210.36,201.3L219.92,202.87L224.7,199.29L229.49,202.31L234.27,199.98L239.05,201.26L243.83,201.19L258.17,200.32L262.95,201.66L272.51,202.09L277.3,200.24L282.08,200.94L286.86,200.38L291.64,201.04L296.42,200.89L301.2,199.9L305.98,200.21L315.54,199.59L320.32,203.64L325.1,199.87L329.89,199.22L334.67,201.25L339.45,200.27L358.57,200.62L363.35,202.16L368.13,199.79L372.91,199.93L387.26,201.14L392.04,200.51L396.82,199.26L401.6,200.03L411.16,200.25L415.94,200.66L420.72,200.84L425.5,202.4L435.07,203.48L439.85,199.6L444.63,200.56L449.41,200.08L454.19,200.58L458.97,199.77L463.75,199.44L468.53,199.92L473.31,200.59L478.1,200.22L482.88,199.96L487.66,200.73L492.44,201.57L497.22,199.93L502,199.42" style="vector-effect: non-scaling-stroke; fill: none; stroke: rgb(31, 119, 180); stroke-opacity: 1; stroke-width: 2px; opacity: 1;"/><g class="points"/></g><g class="trace scatter trace759ca7" style="stroke-miterlimit: 2; opacity: 1;"><path class="js-line" d="M0,196.1L4.78,154.63L9.56,144.68L14.34,143.79L19.12,138.59L23.9,118.13L28.69,124.32L33.47,117.07L38.25,143.22L43.03,121.84L47.81,110.35L52.59,124.6L57.37,100.32L62.15,120.79L66.93,109.9L71.71,106.48L76.5,106.77L81.28,111.98L86.06,134.57L90.84,92.38L95.62,105.93L100.4,108.44L105.18,103.89L109.96,97.86L114.74,102.27L119.52,114.72L124.3,112.86L129.09,126.33L133.87,97.9L143.43,121.94L148.21,112.42L152.99,72.13L157.77,91.65L162.55,92.33L167.33,97.44L172.11,149.08L176.9,212L181.68,93.14L186.46,77.26L191.24,104.03L196.02,125.63L200.8,102.31L205.58,146.24L210.36,92.57L215.14,143.77L219.92,84.4L224.7,51.64L229.49,57.15L234.27,147.35L239.05,90.74L243.83,48.34L248.61,131.19L253.39,96.09L258.17,84.29L262.95,134.43L267.73,230.51L272.51,146.57L277.3,157.53L282.08,245.69L286.86,151.87L291.64,166.26L296.42,107.82L301.2,70.62L305.98,102.73L310.76,72.69L315.54,232.43L320.32,78.03L325.1,217.43L329.89,115.63L334.67,138.5L339.45,220.64L344.23,201.76L349.01,123.6L353.79,125.44L358.57,118.79L363.35,232.64L368.13,248.99L372.91,183.86L377.7,175.53L382.48,94.08L387.26,169.95L392.04,111.81L396.82,119.6L401.6,231.99L406.38,84.77L411.16,209.95L415.94,80.73L420.72,129.59L425.5,16.5L430.29,204.82L435.07,152.02L439.85,159.73L444.63,210.07L449.41,137.94L454.19,313.5L458.97,121.64L463.75,169.98L468.53,98.7L473.31,216.8L478.1,121.27L482.88,94.2L487.66,125.65L492.44,174.62L497.22,238.88L502,123.5" style="vector-effect: non-scaling-stroke; fill: none; stroke: rgb(255, 127, 14); stroke-opacity: 1; stroke-width: 2px; opacity: 1;"/><g class="points"/></g></g></g><g class="overplot"/><path class="xlines-above crisp" d="M0,0" style="fill: none;"/><path class="ylines-above crisp" d="M0,0" style="fill: none;"/><g class="overlines-above"/><g class="xaxislayer-above"><g class="xtick"><text text-anchor="middle" x="0" y="403" transform="translate(60,0)" style="font-family: 'Open Sans', verdana, arial, sans-serif; font-size: 12px; fill: rgb(68, 68, 68); fill-opacity: 1; white-space: pre;">0</text></g><g class="xtick"><text text-anchor="middle" x="0" y="403" transform="translate(133.01999999999998,0)" style="font-family: 'Open Sans', verdana, arial, sans-serif; font-size: 12px; fill: rgb(68, 68, 68); fill-opacity: 1; white-space: pre;">5</text></g><g class="xtick"><text text-anchor="middle" x="0" y="403" transform="translate(206.04,0)" style="font-family: 'Open Sans', verdana, arial, sans-serif; font-size: 12px; fill: rgb(68, 68, 68); fill-opacity: 1; white-space: pre;">10</text></g><g class="xtick"><text text-anchor="middle" x="0" y="403" transform="translate(279.06,0)" style="font-family: 'Open Sans', verdana, arial, sans-serif; font-size: 12px; fill: rgb(68, 68, 68); fill-opacity: 1; white-space: pre;">15</text></g><g class="xtick"><text text-anchor="middle" x="0" y="403" transform="translate(352.09,0)" style="font-family: 'Open Sans', verdana, arial, sans-serif; font-size: 12px; fill: rgb(68, 68, 68); fill-opacity: 1; white-space: pre;">20</text></g><g class="xtick"><text text-anchor="middle" x="0" y="403" transform="translate(425.11,0)" style="font-family: 'Open Sans', verdana, arial, sans-serif; font-size: 12px; fill: rgb(68, 68, 68); fill-opacity: 1; white-space: pre;">25</text></g><g class="xtick"><text text-anchor="middle" x="0" y="403" transform="translate(498.13,0)" style="font-family: 'Open Sans', verdana, arial, sans-serif; font-size: 12px; fill: rgb(68, 68, 68); fill-opacity: 1; white-space: pre;">30</text></g></g><g class="yaxislayer-above"><g class="ytick"><text text-anchor="end" x="59" y="4.199999999999999" transform="translate(0,375.56)" style="font-family: 'Open Sans', verdana, arial, sans-serif; font-size: 12px; fill: rgb(68, 68, 68); fill-opacity: 1; white-space: pre;">−150</text></g><g class="ytick"><text text-anchor="end" x="59" y="4.199999999999999" transform="translate(0,336.63)" style="font-family: 'Open Sans', verdana, arial, sans-serif; font-size: 12px; fill: rgb(68, 68, 68); fill-opacity: 1; white-space: pre;">−100</text></g><g class="ytick"><text text-anchor="end" x="59" y="4.199999999999999" transform="translate(0,297.7)" style="font-family: 'Open Sans', verdana, arial, sans-serif; font-size: 12px; fill: rgb(68, 68, 68); fill-opacity: 1; white-space: pre;">−50</text></g><g class="ytick"><text text-anchor="end" x="59" y="4.199999999999999" transform="translate(0,258.78)" style="font-family: 'Open Sans', verdana, arial, sans-serif; font-size: 12px; fill: rgb(68, 68, 68); fill-opacity: 1; white-space: pre;">0</text></g><g class="ytick"><text text-anchor="end" x="59" y="4.199999999999999" transform="translate(0,219.85)" style="font-family: 'Open Sans', verdana, arial, sans-serif; font-size: 12px; fill: rgb(68, 68, 68); fill-opacity: 1; white-space: pre;">50</text></g><g class="ytick"><text text-anchor="end" x="59" y="4.199999999999999" transform="translate(0,180.92000000000002)" style="font-family: 'Open Sans', verdana, arial, sans-serif; font-size: 12px; fill: rgb(68, 68, 68); fill-opacity: 1; white-space: pre;">100</text></g><g class="ytick"><text text-anchor="end" x="59" y="4.199999999999999" transform="translate(0,142)" style="font-family: 'Open Sans', verdana, arial, sans-serif; font-size: 12px; fill: rgb(68, 68, 68); fill-opacity: 1; white-space: pre;">150</text></g><g class="ytick"><text text-anchor="end" x="59" y="4.199999999999999" transform="translate(0,103.07)" style="font-family: 'Open Sans', verdana, arial, sans-serif; font-size: 12px; fill: rgb(68, 68, 68); fill-opacity: 1; white-space: pre;">200</text></g><g class="ytick"><text text-anchor="end" x="59" y="4.199999999999999" transform="translate(0,64.14)" style="font-family: 'Open Sans', verdana, arial, sans-serif; font-size: 12px; fill: rgb(68, 68, 68); fill-opacity: 1; white-space: pre;">250</text></g></g><g class="overaxes-above"/></g></g><g class="polarlayer"/><g class="ternarylayer"/><g class="geolayer"/><g class="pielayer"/><g class="glimages"/><defs id="topdefs-5dfe62"><g class="clips"/><clipPath id="legend5dfe62"><rect width="116" height="48" x="0" y="0"/></clipPath></defs><g class="layer-above"><g class="imagelayer"/><g class="shapelayer"/></g><g class="infolayer"><g class="legend" pointer-events="all" transform="translate(572.04, 60)"><rect class="bg" shape-rendering="crispEdges" width="116" height="48" x="0" y="0" style="stroke: rgb(68, 68, 68); stroke-opacity: 1; fill: rgb(255, 255, 255); fill-opacity: 1; stroke-width: 0px;"/><g class="scrollbox" transform="translate(0, 0)" clip-path="url(#legend5dfe62)"><g class="groups"><g class="traces" transform="translate(0, 14.5)" style="opacity: 1;"><g class="layers" style="opacity: 1;"><g class="legendfill"/><g class="legendlines"><path class="js-line" d="M5,0h30" style="fill: none; stroke: rgb(31, 119, 180); stroke-opacity: 1; stroke-width: 2px;"/></g><g class="legendsymbols"><g class="legendpoints"/></g></g><text class="legendtext user-select-none" text-anchor="start" x="40" y="4.680000000000001" style="font-family: 'Open Sans', verdana, arial, sans-serif; font-size: 12px; fill: rgb(68, 68, 68); fill-opacity: 1; white-space: pre;">Discriminator</text><rect class="legendtoggle" pointer-events="all" x="0" y="-9.5" width="156" height="19" style="cursor: pointer; fill: rgb(0, 0, 0); fill-opacity: 0;"/></g><g class="traces" transform="translate(0, 33.5)" style="opacity: 1;"><g class="layers" style="opacity: 1;"><g class="legendfill"/><g class="legendlines"><path class="js-line" d="M5,0h30" style="fill: none; stroke: rgb(255, 127, 14); stroke-opacity: 1; stroke-width: 2px;"/></g><g class="legendsymbols"><g class="legendpoints"/></g></g><text class="legendtext user-select-none" text-anchor="start" x="40" y="4.680000000000001" style="font-family: 'Open Sans', verdana, arial, sans-serif; font-size: 12px; fill: rgb(68, 68, 68); fill-opacity: 1; white-space: pre;">Generator</text><rect class="legendtoggle" pointer-events="all" x="0" y="-9.5" width="156" height="19" style="cursor: pointer; fill: rgb(0, 0, 0); fill-opacity: 0;"/></g></g></g><rect class="scrollbar" rx="20" ry="3" width="0" height="0" x="0" y="0" style="fill: rgb(128, 139, 164); fill-opacity: 1;"/></g><g class="g-gtitle"><text class="gtitle" x="350" y="30" text-anchor="middle" style="font-family: 'Open Sans', verdana, arial, sans-serif; font-size: 17px; fill: rgb(68, 68, 68); opacity: 1; font-weight: normal; white-space: pre;">loss over time</text></g><g class="g-xtitle"><text class="xtitle" x="311" y="442" text-anchor="middle" style="font-family: 'Open Sans', verdana, arial, sans-serif; font-size: 14px; fill: rgb(68, 68, 68); opacity: 1; font-weight: normal; white-space: pre;">epoch</text></g><g class="g-ytitle"><text class="ytitle" transform="rotate(-90,22,225)" x="22" y="225" text-anchor="middle" style="font-family: 'Open Sans', verdana, arial, sans-serif; font-size: 14px; fill: rgb(68, 68, 68); opacity: 1; font-weight: normal; white-space: pre;">loss</text></g></g></svg>